SplineFontDB: 3.2
FontName: am_type1
FullName: am_type1
FamilyName: am_type1
Weight: Bold
Copyright: Copyright (c) 2016, AM.
Version: 1.0 (2016)
ItalicAngle: 0
UnderlinePosition: -100
UnderlineWidth: 50
Ascent: 800
Descent: 200
InvalidEm: 0
sfntRevision: 0x00010000
LayerCount: 2
Layer: 0 1 "Back" 1
Layer: 1 1 "Fore" 0
XUID: [1021 815 -601308763 10681450]
StyleMap: 0x0040
FSType: 0
OS2Version: 2
OS2_WeightWidthSlopeOnly: 0
OS2_UseTypoMetrics: 0
CreationTime: 1460284394
ModificationTime: 1609659865
PfmFamily: 81
TTFWeight: 700
TTFWidth: 5
LineGap: 9
VLineGap: 0
Panose: 0 0 0 0 0 0 0 0 0 0
OS2TypoAscent: 750
OS2TypoAOffset: 0
OS2TypoDescent: -170
OS2TypoDOffset: 0
OS2TypoLinegap: 30
OS2WinAscent: 950
OS2WinAOffset: 0
OS2WinDescent: 206
OS2WinDOffset: 0
HheadAscent: 950
HheadAOffset: 0
HheadDescent: -206
HheadDOffset: 0
OS2SubXSize: 700
OS2SubYSize: 650
OS2SubXOff: 0
OS2SubYOff: 140
OS2SupXSize: 700
OS2SupYSize: 650
OS2SupXOff: 0
OS2SupYOff: 477
OS2StrikeYSize: 50
OS2StrikeYPos: 250
OS2CapHeight: 723
OS2XHeight: 510
OS2Vendor: 'PYRS'
OS2CodePages: 00000001.00000000
OS2UnicodeRanges: 8000002f.0000000a.00000000.00000000
Lookup: 258 0 0 "'kern' Horizontal Kerning lookup 0" { "'kern' Horizontal Kerning lookup 0 subtable"  } ['kern' ('DFLT' <'dflt' > ) ]
MarkAttachClasses: 1
DEI: 91125
ShortTable: maxp 16
  1
  0
  220
  190
  5
  0
  0
  1
  0
  0
  0
  0
  0
  0
  0
  0
EndShort
LangName: 1033 "" "" "" "am_type1:2016" "" "Version 1.0 (2016)" "" "Trademark: FREE FOR PERSONAL USE. CONFIDENTIAL."
GaspTable: 1 65535 2 0
Encoding: UnicodeBmp
UnicodeInterp: none
NameList: AGL For New Fonts
DisplaySize: -48
AntiAlias: 1
FitToEm: 0
WinInfo: 54 27 14
BeginPrivate: 0
EndPrivate
BeginChars: 65539 220

StartChar: .notdef
Encoding: 65536 -1 0
Width: 610
Flags: W
LayerCount: 2
Fore
SplineSet
36 -108 m 1,0,-1
 36 768 l 1,1,-1
 574 768 l 1,2,-1
 574 -108 l 1,3,-1
 36 -108 l 1,0,-1
75 -69 m 1,4,-1
 535 -69 l 1,5,-1
 535 729 l 1,6,-1
 75 729 l 1,7,-1
 75 -69 l 1,4,-1
EndSplineSet
EndChar

StartChar: exclam
Encoding: 33 33 4
Width: 610
GlyphClass: 2
Flags: W
LayerCount: 2
Fore
SplineSet
293 740 m 2,0,-1
 294 740 l 2,1,2
 341 737 341 737 361 708 c 0,3,4
 379 682 379 682 379 656 c 2,5,-1
 379 654 l 1,6,7
 357 471 357 471 355 451.5 c 128,-1,8
 353 432 353 432 351.5 412.5 c 128,-1,9
 350 393 350 393 348.5 373.5 c 128,-1,10
 347 354 347 354 347 334 c 0,11,12
 345 294 345 294 345 255 c 2,13,-1
 345 230 l 1,14,-1
 240 230 l 1,15,-1
 239 254 l 2,16,17
 236 373 236 373 219.5 496 c 128,-1,18
 203 619 203 619 203 656 c 2,19,-1
 203 657 l 2,20,21
 206 686 206 686 228 712 c 0,22,23
 253 740 253 740 293 740 c 2,0,-1
292 -27 m 0,24,25
 257 -27 257 -27 228 -2 c 0,26,27
 199 24 199 24 199 68 c 0,28,29
 199 105 199 105 225 132 c 128,-1,30
 251 159 251 159 292 159 c 0,31,32
 331 159 331 159 359 133.5 c 128,-1,33
 387 108 387 108 387 69 c 128,-1,34
 387 30 387 30 361 1.5 c 128,-1,35
 335 -27 335 -27 292 -27 c 0,24,25
EndSplineSet
EndChar

StartChar: quotedbl
Encoding: 34 34 5
Width: 610
GlyphClass: 2
Flags: W
LayerCount: 2
Fore
SplineSet
416 757 m 2,0,-1
 417 757 l 2,1,2
 464 754 464 754 484 725 c 0,3,4
 502 699 502 699 502 673 c 2,5,-1
 502 671 l 1,6,7
 497 627 497 627 482.5 563.5 c 128,-1,8
 468 500 468 500 468 383 c 2,9,-1
 468 358 l 1,10,-1
 363 358 l 1,11,-1
 362 382 l 2,12,13
 359 500 359 500 342.5 567.5 c 128,-1,14
 326 635 326 635 326 673 c 2,15,-1
 326 674 l 2,16,17
 329 703 329 703 351 729 c 0,18,19
 376 757 376 757 416 757 c 2,0,-1
197 757 m 2,20,-1
 198 757 l 2,21,22
 245 754 245 754 265 725 c 0,23,24
 283 699 283 699 283 673 c 2,25,-1
 283 671 l 1,26,27
 278 627 278 627 263.5 563.5 c 128,-1,28
 249 500 249 500 249 383 c 2,29,-1
 249 358 l 1,30,-1
 144 358 l 1,31,32
 142 426 142 426 140 451 c 128,-1,33
 138 476 138 476 137 487.5 c 128,-1,34
 136 499 136 499 134.5 509.5 c 128,-1,35
 133 520 133 520 131 529 c 0,36,37
 128 549 128 549 122 574 c 0,38,39
 107 635 107 635 107 673 c 2,40,-1
 107 674 l 2,41,42
 110 703 110 703 132 729 c 0,43,44
 157 757 157 757 197 757 c 2,20,-1
EndSplineSet
EndChar

StartChar: numbersign
Encoding: 35 35 6
Width: 610
GlyphClass: 2
Flags: W
LayerCount: 2
Fore
SplineSet
139 -104 m 1,0,-1
 33 -104 l 1,1,-1
 120 190 l 1,2,-1
 -4 190 l 1,3,-1
 35 304 l 1,4,-1
 157 304 l 1,5,-1
 193 422 l 1,6,-1
 61 422 l 1,7,-1
 95 540 l 1,8,-1
 229 540 l 1,9,-1
 309 799 l 1,10,-1
 414 799 l 1,11,-1
 335 540 l 1,12,-1
 377 540 l 1,13,-1
 457 799 l 1,14,-1
 563 799 l 1,15,-1
 483 540 l 1,16,-1
 606 540 l 1,17,-1
 573 422 l 1,18,-1
 448 422 l 1,19,-1
 412 304 l 1,20,-1
 545 304 l 1,21,-1
 507 190 l 1,22,-1
 375 190 l 1,23,-1
 287 -104 l 1,24,-1
 181 -104 l 1,25,-1
 269 190 l 1,26,-1
 226 190 l 1,27,-1
 139 -104 l 1,0,-1
263 304 m 1,28,-1
 306 304 l 1,29,-1
 342 422 l 1,30,-1
 299 422 l 1,31,-1
 263 304 l 1,28,-1
EndSplineSet
EndChar

StartChar: dollar
Encoding: 36 36 7
Width: 610
GlyphClass: 2
Flags: W
LayerCount: 2
Fore
SplineSet
452 140 m 0,0,1
 461 159 461 159 461 187 c 0,2,3
 460 244 460 244 420 277 c 0,4,5
 395 296 395 296 356 308 c 1,6,-1
 356 85 l 1,7,8
 430 96 430 96 452 140 c 0,0,1
352 -9 m 1,9,10
 352 -84 352 -84 362 -142 c 1,11,-1
 362 -175 l 1,12,-1
 251 -159 l 1,13,-1
 251 -11 l 1,14,-1
 229 -11 l 1,15,16
 172 3 172 3 138 28 c 1,17,18
 129 7 129 7 112 -3 c 0,19,20
 100 -9 100 -9 86 -9 c 0,21,22
 85 -9 85 -9 83 -9.5 c 128,-1,23
 81 -10 81 -10 79 -10 c 0,24,25
 67 -10 67 -10 55 -4.5 c 128,-1,26
 43 1 43 1 35 14.5 c 128,-1,27
 27 28 27 28 27 50 c 0,28,29
 27 66 27 66 29 73 c 0,30,31
 42 115 42 115 42 161 c 0,32,33
 42 178 42 178 40 196 c 2,34,-1
 40 198 l 2,35,36
 40 237 40 237 52 255 c 0,37,38
 62 270 62 270 79 273 c 1,39,-1
 81 274 l 1,40,-1
 102 274 l 2,41,42
 117 274 117 274 129 261 c 0,43,44
 136 253 136 253 143 236 c 0,45,46
 155 207 155 207 169 145 c 1,47,48
 194 107 194 107 254 97 c 1,49,-1
 253 328 l 1,50,51
 206 336 206 336 168 357 c 0,52,53
 132 375 132 375 87 424 c 1,54,55
 61 469 61 469 59 522 c 1,56,-1
 62 552 l 1,57,58
 84 651 84 651 174 699 c 0,59,60
 197 715 197 715 256 728 c 1,61,62
 258 749 258 749 258 775.5 c 128,-1,63
 258 802 258 802 254 837 c 2,64,-1
 251 864 l 1,65,-1
 362 859 l 1,66,-1
 362 723 l 1,67,68
 402 717 402 717 436 691 c 1,69,-1
 441 711 l 1,70,-1
 483 720 l 2,71,72
 487 721 487 721 492.5 721 c 128,-1,73
 498 721 498 721 504 719.5 c 128,-1,74
 510 718 510 718 516 716 c 0,75,76
 527 710 527 710 533 701 c 0,77,78
 544 685 544 685 545 663 c 2,79,-1
 545 657 l 2,80,81
 545 638 545 638 533 596 c 1,82,83
 539 551 539 551 539 521 c 0,84,85
 539 503 539 503 531 490 c 0,86,87
 519 472 519 472 495 468 c 0,88,89
 467 460 467 460 448 484 c 0,90,91
 434 501 434 501 428 537 c 0,92,93
 423 580 423 580 391 604 c 0,94,95
 377 615 377 615 358 623 c 1,96,-1
 358 413 l 1,97,98
 431 395 431 395 460 379 c 0,99,100
 469 374 469 374 475 369 c 0,101,102
 505 354 505 354 540 314 c 0,103,104
 579 269 579 269 579 191 c 0,105,106
 579 123 579 123 539 80 c 0,107,108
 477 11 477 11 379 -8 c 0,109,110
 364 -9 364 -9 352 -9 c 1,9,10
215 461 m 0,111,112
 231 449 231 449 253 442 c 1,113,-1
 253 646 l 1,114,115
 233 639 233 639 217 624 c 0,116,117
 193 602 193 602 176 561 c 1,118,-1
 174 531 l 1,119,120
 183 485 183 485 215 461 c 0,111,112
EndSplineSet
EndChar

StartChar: percent
Encoding: 37 37 8
Width: 610
GlyphClass: 2
Flags: W
LayerCount: 2
Fore
SplineSet
602 313 m 0,0,1
 626 272 626 272 626 218 c 0,2,3
 626 192 626 192 621 170 c 0,4,5
 606 95 606 95 549.5 37.5 c 128,-1,6
 493 -20 493 -20 431 -20 c 0,7,8
 360 -20 360 -20 323 45 c 0,9,10
 300 86 300 86 300 137 c 0,11,12
 300 160 300 160 305 186 c 0,13,14
 319 264 319 264 374 320 c 0,15,16
 431 377 431 377 496 377 c 1,17,-1
 496 377 l 1,18,19
 564 376 564 376 602 313 c 0,0,1
411 173 m 0,20,21
 409 160 409 160 409 149 c 0,22,23
 409 125 409 125 420 108 c 0,24,25
 423 103 423 103 428.5 99 c 128,-1,26
 434 95 434 95 444 94 c 0,27,28
 466 94 466 94 482 115 c 0,29,30
 502 141 502 141 510 180 c 0,31,32
 517 219 517 219 507 245 c 0,33,34
 504 255 504 255 499.5 259 c 128,-1,35
 495 263 495 263 487 264 c 0,36,37
 466 264 466 264 445 240 c 0,38,39
 420 212 420 212 411 173 c 0,20,21
-10 -31 m 1,40,-1
 428 652 l 1,41,42
 373 627 373 627 313 621 c 1,43,44
 315 610 315 610 316 594 c 2,45,-1
 316 593 l 2,46,47
 316 530 316 530 283 467 c 0,48,49
 244 392 244 392 180 357 c 0,50,51
 139 334 139 334 101 334 c 0,52,53
 45 334 45 334 10.5 368.5 c 128,-1,54
 -24 403 -24 403 -24 468 c 0,55,56
 -24 511 -24 511 -6 556 c 0,57,58
 20 622 20 622 74 668 c 0,59,60
 134 717 134 717 198 717 c 0,61,62
 229 717 229 717 255 703 c 0,63,64
 265 702 265 702 269 702 c 0,65,66
 342 702 342 702 405 731.5 c 128,-1,67
 468 761 468 761 524 821 c 0,68,69
 543 843 543 843 576 844 c 0,70,71
 603 844 603 844 617 825 c 0,72,73
 627 812 627 812 628 793 c 2,74,-1
 628 789 l 1,75,-1
 622 768 l 1,76,77
 102 -75 102 -75 101 -76 c 0,78,79
 75 -116 75 -116 40 -119 c 2,80,-1
 35 -119 l 1,81,82
 12 -112 12 -112 1 -103 c 0,83,84
 -16 -90 -16 -90 -16 -67 c 0,85,86
 -16 -54 -16 -54 -10 -31 c 1,40,-1
198 542.5 m 128,-1,88
 202 561 202 561 202 582 c 0,89,90
 202 585 202 585 202 589 c 0,91,92
 196 623 196 623 184 624 c 2,93,-1
 182 624 l 1,94,-1
 177 625 l 2,95,96
 166 625 166 625 146 609 c 0,97,98
 133 599 133 599 121 583 c 0,99,100
 103 559 103 559 94 532 c 128,-1,101
 85 505 85 505 83 481 c 0,102,103
 83 458 83 458 93 451 c 0,104,105
 98 447 98 447 111 447 c 2,106,-1
 114 447 l 2,107,108
 127 447 127 447 148.5 460 c 128,-1,109
 170 473 170 473 182 498.5 c 128,-1,87
 194 524 194 524 198 542.5 c 128,-1,88
EndSplineSet
EndChar

StartChar: ampersand
Encoding: 38 38 9
Width: 610
GlyphClass: 2
Flags: W
LayerCount: 2
Fore
SplineSet
-20 121 m 0,0,1
 -22 138 -22 138 -22 153 c 128,-1,2
 -22 168 -22 168 -21 182 c 0,3,4
 -15 213 -15 213 -2.5 241.5 c 128,-1,5
 10 270 10 270 54 321 c 1,6,-1
 116 379 l 1,7,-1
 160 412 l 1,8,9
 155 422 155 422 149 429 c 2,10,-1
 127 460 l 2,11,12
 84 527 84 527 84 600 c 0,13,14
 84 676 84 676 129 723.5 c 128,-1,15
 174 771 174 771 254 776 c 1,16,17
 343 773 343 773 384 715 c 0,18,19
 416 670 416 670 416 595 c 0,20,21
 416 544 416 544 390 497 c 0,22,23
 360 447 360 447 293 387 c 1,24,-1
 331 319 l 1,25,26
 347 406 347 406 397 451 c 0,27,28
 435 485 435 485 493 490 c 1,29,30
 557 486 557 486 583 453 c 0,31,32
 606 422 606 422 609 382 c 1,33,34
 607 330 607 330 574 295 c 2,35,-1
 572 293 l 1,36,37
 542 272 542 272 517 272 c 0,38,39
 493 272 493 272 476 288 c 0,40,41
 458 305 458 305 458 333 c 0,42,43
 458 339 458 339 460 355 c 1,44,-1
 467 361 l 2,45,46
 477 371 477 371 477 377 c 0,47,48
 477 379 477 379 472 383 c 1,49,50
 452 379 452 379 439 342 c 0,51,52
 419 274 419 274 416 246 c 0,53,54
 415 232 415 232 415 216 c 0,55,56
 415 183 415 183 431.5 143.5 c 128,-1,57
 448 104 448 104 465 95 c 2,58,-1
 467 94 l 2,59,60
 488 81 488 81 494 81 c 0,61,62
 496 81 496 81 501 83 c 0,63,64
 514 98 514 98 517 117 c 0,65,66
 524 154 524 154 556 175 c 2,67,-1
 570 184 l 1,68,-1
 626 147 l 1,69,-1
 630 101 l 1,70,71
 622 34 622 34 582.5 -1.5 c 128,-1,72
 543 -37 543 -37 478 -37 c 0,73,74
 438 -37 438 -37 408 -15 c 0,75,76
 385 2 385 2 361 41 c 1,77,78
 351 27 351 27 344 19.5 c 128,-1,79
 337 12 337 12 331 6 c 0,80,81
 319 -6 319 -6 313 -13 c 0,82,83
 274 -37 274 -37 229 -37 c 2,84,-1
 184 -41 l 1,85,-1
 129 -33 l 1,86,87
 103 -25 103 -25 81.5 -17 c 128,-1,88
 60 -9 60 -9 35 16 c 2,89,-1
 10 45 l 1,90,91
 -15 90 -15 90 -20 121 c 0,0,1
254 674 m 0,92,93
 233 674 233 674 211 650 c 0,94,95
 194 632 194 632 194 612 c 0,96,97
 194 608 194 608 195 600 c 2,98,-1
 195 598 l 2,99,100
 195 581 195 581 196 575 c 0,101,102
 198 569 198 569 209 545 c 0,103,104
 224 511 224 511 230 501.5 c 128,-1,105
 236 492 236 492 243 485 c 1,106,107
 257 499 257 499 273.5 518.5 c 128,-1,108
 290 538 290 538 298 557 c 0,109,110
 308 581 308 581 308 604 c 0,111,112
 308 634 308 634 293.5 654 c 128,-1,113
 279 674 279 674 254 674 c 0,92,93
285 148 m 0,114,115
 285 159 285 159 282 172 c 0,116,117
 271 205 271 205 246.5 249.5 c 128,-1,118
 222 294 222 294 207 318 c 1,119,120
 189 301 189 301 165 278 c 0,121,122
 148 258 148 258 127 238 c 0,123,124
 123 232 123 232 117 221 c 0,125,126
 106 202 106 202 103.5 188.5 c 128,-1,127
 101 175 101 175 101 159 c 0,128,129
 101 128 101 128 115 107 c 0,130,131
 120 98 120 98 134.5 88.5 c 128,-1,132
 149 79 149 79 172 71 c 1,133,-1
 205 67 l 1,134,135
 245 73 245 73 268 104 c 0,136,137
 285 124 285 124 285 148 c 0,114,115
EndSplineSet
EndChar

StartChar: quotesingle
Encoding: 39 39 10
Width: 610
GlyphClass: 2
Flags: W
LayerCount: 2
Fore
SplineSet
301 758 m 2,0,-1
 302 758 l 2,1,2
 355 755 355 755 376 725 c 0,3,4
 395 699 395 699 395 673 c 2,5,-1
 395 671 l 1,6,7
 390 626 390 626 371 559 c 0,8,9
 354 498 354 498 354 380 c 2,10,-1
 354 355 l 1,11,-1
 247 355 l 1,12,-1
 246 379 l 2,13,14
 243 497 243 497 223 565.5 c 128,-1,15
 203 634 203 634 203 673 c 2,16,-1
 203 674 l 2,17,18
 206 704 206 704 229 730 c 0,19,20
 255 758 255 758 301 758 c 2,0,-1
EndSplineSet
EndChar

StartChar: parenleft
Encoding: 40 40 11
Width: 610
GlyphClass: 2
Flags: W
LayerCount: 2
Fore
SplineSet
368 848 m 1,0,-1
 390 848 l 2,1,2
 410 847 410 847 423 832 c 0,3,4
 431 822 431 822 434 807 c 2,5,-1
 436 797 l 1,6,7
 400 745 400 745 374 700 c 0,8,9
 350 655 350 655 330 611 c 0,10,11
 308 559 308 559 302 537 c 0,12,13
 274 453 274 453 274 312 c 0,14,15
 274 295 274 295 274 278 c 0,16,17
 301 45 301 45 364 -25 c 1,18,-1
 370 -33 l 1,19,-1
 370 -37 l 1,20,21
 384 -61 384 -61 445 -150 c 1,22,-1
 445 -185 l 2,23,24
 445 -209 445 -209 415 -227 c 2,25,-1
 409 -231 l 1,26,-1
 389 -231 l 2,27,28
 364 -231 364 -231 334 -207.5 c 128,-1,29
 304 -184 304 -184 263 -132 c 2,30,-1
 232 -92 l 1,31,-1
 245 -92 l 1,32,33
 213 -42 213 -42 189 21 c 1,34,35
 181 28 181 28 177 36 c 0,36,37
 163 66 163 66 153 152 c 1,38,39
 138 217 138 217 138 285 c 0,40,41
 138 323 138 323 144 371 c 128,-1,42
 150 419 150 419 156 440 c 0,43,44
 178 572 178 572 264 716 c 0,45,46
 316 802 316 802 360 842 c 1,47,-1
 368 848 l 1,0,-1
EndSplineSet
EndChar

StartChar: parenright
Encoding: 41 41 12
Width: 610
GlyphClass: 2
Flags: W
LayerCount: 2
Fore
SplineSet
191 855 m 1,0,-1
 219 855 l 1,1,-1
 225 850 l 1,2,3
 308 792 308 792 349 698 c 1,4,5
 358 690 358 690 370 670 c 0,6,7
 390 635 390 635 421 564 c 0,8,9
 450 499 450 499 465 366 c 1,10,-1
 465 319 l 2,11,12
 465 313 465 313 465 306 c 0,13,14
 465 205 465 205 422 64 c 1,15,16
 363 -76 363 -76 307 -147 c 0,17,18
 264 -203 264 -203 220 -220 c 1,19,20
 210 -231 210 -231 191 -231 c 2,21,-1
 184 -231 l 1,22,-1
 141 -205 l 1,23,-1
 149 -147 l 1,24,-1
 155 -141 l 2,25,26
 196 -97 196 -97 263 20 c 1,27,28
 328 160 328 160 337 260 c 0,29,30
 341 294 341 294 341 316.5 c 128,-1,31
 341 339 341 339 340.5 350 c 128,-1,32
 340 361 340 361 340 372 c 0,33,34
 338 395 338 395 334 417 c 2,35,-1
 326 462 l 1,36,37
 304 550 304 550 250 651 c 0,38,39
 226 691 226 691 202 715 c 0,40,41
 177 744 177 744 166 765 c 128,-1,42
 155 786 155 786 155 802 c 2,43,-1
 155 809 l 2,44,45
 155 833 155 833 185 851 c 2,46,-1
 191 855 l 1,0,-1
EndSplineSet
EndChar

StartChar: asterisk
Encoding: 42 42 13
Width: 610
GlyphClass: 2
Flags: W
LayerCount: 2
Fore
SplineSet
243 386 m 1,0,-1
 256 537 l 1,1,-1
 124 449 l 1,2,-1
 61 557 l 1,3,-1
 206 620 l 1,4,-1
 61 683 l 1,5,-1
 124 792 l 1,6,-1
 256 703 l 1,7,-1
 243 857 l 1,8,-1
 365 857 l 1,9,-1
 357 701 l 1,10,-1
 483 792 l 1,11,-1
 549 684 l 1,12,-1
 404 620 l 1,13,-1
 549 556 l 1,14,-1
 484 450 l 1,15,-1
 355 537 l 1,16,-1
 366 386 l 1,17,-1
 243 386 l 1,0,-1
EndSplineSet
EndChar

StartChar: plus
Encoding: 43 43 14
Width: 610
GlyphClass: 2
Flags: W
LayerCount: 2
Fore
SplineSet
363 271 m 1,0,-1
 363 61 l 1,1,-1
 245 61 l 1,2,-1
 245 271 l 1,3,-1
 43 271 l 1,4,-1
 43 390 l 1,5,-1
 245 390 l 1,6,-1
 245 599 l 1,7,-1
 363 599 l 1,8,-1
 363 390 l 1,9,-1
 567 390 l 1,10,-1
 567 271 l 1,11,-1
 363 271 l 1,0,-1
EndSplineSet
EndChar

StartChar: comma
Encoding: 44 44 15
Width: 610
GlyphClass: 2
Flags: W
LayerCount: 2
Fore
SplineSet
197 74 m 0,0,1
 197 115 197 115 228 146 c 128,-1,2
 259 177 259 177 304 177 c 0,3,4
 353 177 353 177 385 140 c 128,-1,5
 417 103 417 103 417 33 c 0,6,7
 417 -52 417 -52 367 -111 c 128,-1,8
 317 -170 317 -170 250 -201 c 2,9,-1
 229 -210 l 1,10,-1
 178 -115 l 1,11,-1
 203 -104 l 2,12,13
 241 -88 241 -88 264 -61 c 0,14,15
 277 -45 277 -45 284 -26 c 1,16,17
 249 -21 249 -21 226 0 c 0,18,19
 197 28 197 28 197 74 c 0,0,1
EndSplineSet
EndChar

StartChar: hyphen
Encoding: 45 45 16
Width: 610
GlyphClass: 2
Flags: W
LayerCount: 2
Fore
SplineSet
57 305 m 0,0,1
 57 307 57 307 57 310 c 2,2,-1
 57 333 l 1,3,4
 62 368 62 368 86 384 c 0,5,6
 104 396 104 396 132 396 c 0,7,8
 139 396 139 396 147 395 c 2,9,-1
 493 395 l 1,10,11
 538 383 538 383 550 350 c 0,12,13
 555 337 555 337 555 323 c 2,14,-1
 555 297 l 1,15,16
 551 270 551 270 533 255 c 0,17,18
 520 243 520 243 497 237 c 1,19,-1
 118 237 l 1,20,21
 92 241 92 241 77 255 c 0,22,23
 57 274 57 274 57 305 c 0,0,1
EndSplineSet
EndChar

StartChar: period
Encoding: 46 46 17
Width: 610
GlyphClass: 2
Flags: W
LayerCount: 2
Fore
SplineSet
284 -35 m 0,0,1
 243 -35 243 -35 211 -5.5 c 128,-1,2
 179 24 179 24 179 74 c 0,3,4
 179 117 179 117 208.5 148 c 128,-1,5
 238 179 238 179 283 179 c 128,-1,6
 328 179 328 179 360 149.5 c 128,-1,7
 392 120 392 120 392 74 c 0,8,9
 392 32 392 32 363 -1 c 0,10,11
 333 -35 333 -35 284 -35 c 0,0,1
EndSplineSet
EndChar

StartChar: slash
Encoding: 47 47 18
Width: 610
GlyphClass: 2
Flags: W
LayerCount: 2
Fore
SplineSet
571 863 m 1,0,1
 583 865 583 865 589.5 865 c 128,-1,2
 596 865 596 865 605.5 861 c 128,-1,3
 615 857 615 857 621.5 846.5 c 128,-1,4
 628 836 628 836 630 819 c 0,5,6
 631 773 631 773 593 706 c 2,7,-1
 87 -194 l 1,8,-1
 50 -226 l 1,9,10
 33 -228 33 -228 27 -228 c 0,11,12
 10 -228 10 -228 -2.5 -220 c 128,-1,13
 -15 -212 -15 -212 -22 -199 c 2,14,-1
 -25 -193 l 1,15,-1
 -24 -126 l 1,16,-1
 512 788 l 1,17,-1
 541 834 l 1,18,-1
 571 863 l 1,0,1
EndSplineSet
EndChar

StartChar: zero
Encoding: 48 48 19
Width: 610
GlyphClass: 2
Flags: W
LayerCount: 2
Fore
SplineSet
574 384 m 2,0,1
 578 345 578 345 578 288 c 2,2,-1
 578 287 l 1,3,-1
 571 232 l 2,4,5
 559 149 559 149 504 83 c 1,6,7
 444 18 444 18 378 -5 c 1,8,-1
 351 -10 l 1,9,-1
 301 -15 l 1,10,-1
 259 -8 l 1,11,12
 173 14 173 14 119 70 c 0,13,14
 100 93 100 93 89 112 c 0,15,16
 77 132 77 132 71 144 c 0,17,18
 48 196 48 196 37 267 c 0,19,20
 35 300 35 300 35 351 c 2,21,-1
 35 352 l 2,22,23
 37 394 37 394 43 429 c 0,24,25
 52 485 52 485 86 550 c 0,26,27
 132 641 132 641 225 686 c 0,28,29
 261 705 261 705 309 705 c 0,30,31
 322 705 322 705 326 705 c 0,32,33
 447 689 447 689 519 559 c 0,34,35
 556 492 556 492 565 435 c 2,36,-1
 574 384 l 2,0,1
312 588 m 1,37,-1
 295 588 l 1,38,39
 258 583 258 583 227 545 c 0,40,41
 204 516 204 516 190 477 c 0,42,43
 163 398 163 398 163 330 c 0,44,45
 163 282 163 282 173 229 c 1,46,-1
 188 181 l 1,47,48
 231 74 231 74 307 69 c 1,49,-1
 323 69 l 1,50,51
 373 81 373 81 401 121 c 0,52,53
 425 156 425 156 434 213 c 2,54,-1
 443 275 l 1,55,-1
 443 337 l 1,56,-1
 436 376 l 1,57,-1
 429 411 l 1,58,-1
 421 443 l 1,59,60
 385 562 385 562 312 588 c 1,37,-1
EndSplineSet
EndChar

StartChar: one
Encoding: 49 49 20
Width: 610
GlyphClass: 2
Flags: W
LayerCount: 2
Fore
SplineSet
332 705 m 0,0,1
 342 706 342 706 348 706 c 0,2,3
 358 706 358 706 361 706 c 0,4,5
 373 705 373 705 382 701 c 0,6,7
 406 689 406 689 407 665 c 2,8,-1
 407 588 l 1,9,-1
 403 435 l 1,10,-1
 397 98 l 1,11,-1
 397 49 l 1,12,-1
 397 43 l 2,13,14
 397 16 397 16 387 0 c 0,15,16
 369 -21 369 -21 331 -23 c 0,17,18
 329 -23 329 -23 328 -23 c 0,19,20
 312 -23 312 -23 298 -19 c 256,21,22
 284 -15 284 -15 275 -8 c 0,23,24
 263 5 263 5 263 25 c 0,25,26
 263 28 263 28 263 31 c 2,27,-1
 263 101 l 1,28,-1
 269 505 l 1,29,-1
 259 501 l 2,30,31
 216 487 216 487 163 470 c 0,32,33
 150 464 150 464 139 464 c 0,34,35
 110 464 110 464 89 494 c 1,36,-1
 87 498 l 2,37,38
 83 512 83 512 83 521 c 0,39,40
 83 545 83 545 118 560 c 1,41,42
 215 625 215 625 298 692 c 0,43,44
 314 701 314 701 332 705 c 0,0,1
EndSplineSet
EndChar

StartChar: two
Encoding: 50 50 21
Width: 610
GlyphClass: 2
Flags: W
LayerCount: 2
Fore
SplineSet
133 652 m 0,0,1
 208 718 208 718 312 718 c 0,2,3
 332 718 332 718 340 717 c 0,4,5
 422 704 422 704 461 672 c 1,6,7
 531 628 531 628 549 504 c 1,8,-1
 546 455 l 1,9,10
 534 402 534 402 481 351 c 0,11,12
 418 290 418 290 295 228 c 1,13,14
 221 197 221 197 198 165 c 0,15,16
 189 152 189 152 189 139 c 0,17,18
 190 136 190 136 196 133.5 c 128,-1,19
 202 131 202 131 210 129 c 0,20,21
 227 125 227 125 256 125 c 0,22,23
 264 125 264 125 274 125 c 2,24,-1
 491 122 l 1,25,-1
 532 116 l 1,26,-1
 538 108 l 2,27,28
 557 85 557 85 557 62 c 0,29,30
 556 23 556 23 503 0 c 2,31,-1
 498 -2 l 1,32,-1
 443 -2 l 2,33,34
 418 -2 418 -2 374 -5 c 1,35,-1
 231 0 l 2,36,37
 210 0 210 0 122 -7 c 1,38,-1
 117 -6 l 2,39,40
 73 5 73 5 52 39 c 0,41,42
 37 65 37 65 37 102 c 2,43,-1
 37 108 l 2,44,45
 37 235 37 235 240 339 c 0,46,47
 291 367 291 367 360 410 c 1,48,49
 368 423 368 423 402 458 c 1,50,51
 411 475 411 475 411 496 c 2,52,-1
 410 528 l 1,53,54
 394 562 394 562 374 581 c 0,55,56
 349 603 349 603 317 603 c 0,57,58
 310 603 310 603 302 602 c 2,59,-1
 294 602 l 2,60,61
 238 600 238 600 211 562 c 0,62,63
 204 553 204 553 201 543 c 128,-1,64
 198 533 198 533 196 527.5 c 128,-1,65
 194 522 194 522 192.5 515 c 128,-1,66
 191 508 191 508 190 501 c 0,67,68
 187 486 187 486 183 453 c 1,69,-1
 131 436 l 2,70,71
 125 435 125 435 123 435 c 0,72,73
 90 435 90 435 73 460 c 0,74,75
 62 476 62 476 61 504 c 1,76,77
 72 599 72 599 133 652 c 0,0,1
EndSplineSet
EndChar

StartChar: three
Encoding: 51 51 22
Width: 610
GlyphClass: 2
Flags: W
LayerCount: 2
Fore
SplineSet
121 -123 m 1,0,-1
 119 -123 l 2,1,2
 71 -123 71 -123 40 -91 c 2,3,-1
 31 -81 l 1,4,-1
 35 -69 l 2,5,6
 51 -16 51 -16 102 10 c 0,7,8
 140 30 140 30 197 34 c 1,9,10
 289 58 289 58 335 101 c 0,11,12
 408 170 408 170 416 242 c 1,13,-1
 416 259 l 1,14,15
 407 300 407 300 387 322 c 0,16,17
 364 348 364 348 321 348 c 0,18,19
 320 348 320 348 319 347 c 2,20,-1
 318 347 l 1,21,-1
 289 347 l 2,22,23
 245 344 245 344 203 317 c 1,24,-1
 197 314 l 1,25,-1
 165 314 l 1,26,-1
 160 316 l 2,27,28
 144 322 144 322 135 333 c 0,29,30
 123 348 123 348 123 367 c 2,31,-1
 123 370 l 1,32,-1
 124 372 l 1,33,34
 129 396 129 396 155 420 c 0,35,36
 286 535 286 535 345 591 c 1,37,-1
 346 593 l 1,38,-1
 258 596 l 1,39,-1
 165 593 l 1,40,41
 156 585 156 585 153 553 c 2,42,-1
 151 538 l 1,43,-1
 100 522 l 1,44,-1
 93 523 l 2,45,46
 63 529 63 529 49 553 c 0,47,48
 40 570 40 570 40 594 c 0,49,50
 40 604 40 604 41 614 c 0,51,52
 41 640 41 640 53 660 c 0,53,54
 68 687 68 687 101 702 c 2,55,-1
 106 704 l 1,56,-1
 165 705 l 1,57,-1
 165 705 l 1,58,59
 338 704 338 704 447 706 c 1,60,-1
 447 706 l 1,61,62
 476 706 476 706 497 692 c 0,63,64
 523 675 523 675 530 641 c 2,65,-1
 531 634 l 1,66,-1
 513 594 l 1,67,-1
 419 509 l 2,68,69
 396 485 396 485 372 462 c 1,70,-1
 408 458 l 1,71,-1
 412 457 l 1,72,73
 492 425 492 425 527 358 c 0,74,75
 547 314 547 314 552 258 c 1,76,-1
 551 234 l 2,77,78
 544 127 544 127 449 31 c 0,79,80
 385 -33 385 -33 284 -77 c 1,81,-1
 283 -78 l 1,82,83
 208 -107 208 -107 121 -123 c 1,0,-1
EndSplineSet
EndChar

StartChar: four
Encoding: 52 52 23
Width: 610
GlyphClass: 2
Flags: W
LayerCount: 2
Fore
SplineSet
444 391 m 128,-1,1
 444 302 444 302 446 244 c 1,2,3
 500 246 500 246 517 245 c 2,4,-1
 542 245 l 2,5,6
 565 245 565 245 582 231 c 0,7,8
 593 220 593 220 600 203 c 2,9,-1
 601 200 l 1,10,-1
 601 173 l 1,11,-1
 598 167 l 2,12,13
 584 144 584 144 553 129 c 2,14,-1
 548 127 l 1,15,-1
 450 127 l 2,16,17
 446 127 446 127 444.5 125 c 128,-1,18
 443 123 443 123 442 117 c 0,19,20
 435 66 435 66 441 -11 c 0,21,22
 440 -40 440 -40 428 -57 c 0,23,24
 411 -82 411 -82 376 -82 c 2,25,-1
 374 -82 l 2,26,27
 358 -80 358 -80 351 -76 c 0,28,29
 339 -71 339 -71 333 -65 c 0,30,31
 312 -50 312 -50 312 -22 c 0,32,33
 312 -15 312 -15 313 -8 c 0,34,35
 321 43 321 43 317 98 c 0,36,37
 316 106 316 106 313 109 c 2,38,-1
 249 109 l 1,39,-1
 121 107 l 1,40,-1
 93 107 l 2,41,42
 65 109 65 109 47 120 c 0,43,44
 21 136 21 136 21 168 c 0,45,46
 21 182 21 182 27 200 c 1,47,-1
 46 231 l 1,48,-1
 81 292 l 1,49,-1
 250 594 l 1,50,51
 290 693 290 693 332 714 c 0,52,53
 338 714 338 714 341 717 c 0,54,55
 351 727 351 727 364 727 c 0,56,57
 390 727 390 727 408 713 c 0,58,59
 445 687 445 687 447 613 c 2,60,-1
 447 612 l 1,61,-1
 447 612 l 1,62,0
 444 480 444 480 444 391 c 128,-1,1
192 235 m 1,63,64
 194 235 194 235 197 235 c 2,65,-1
 316 235 l 1,66,67
 319 240 319 240 319 252 c 2,68,-1
 319 253 l 2,69,70
 322 338 322 338 322 407.5 c 128,-1,71
 322 477 322 477 322 502 c 1,72,73
 241 338 241 338 192 235 c 1,63,64
EndSplineSet
EndChar

StartChar: five
Encoding: 53 53 24
Width: 610
GlyphClass: 2
Flags: W
LayerCount: 2
Fore
SplineSet
517 670 m 2,0,-1
 518 666 l 1,1,-1
 518 647 l 1,2,-1
 517 645 l 1,3,4
 511 615 511 615 480 597 c 2,5,-1
 476 595 l 1,6,-1
 434 590 l 1,7,-1
 433 590 l 1,8,-1
 392 590 l 1,9,-1
 279 591 l 1,10,-1
 237 592 l 1,11,-1
 205 592 l 1,12,-1
 200 591 l 2,13,14
 198 588 198 588 198 583 c 0,15,16
 198 580 198 580 198 576 c 2,17,-1
 198 466 l 1,18,-1
 218 477 l 1,19,-1
 272 487 l 2,20,21
 293 490 293 490 313 490 c 0,22,23
 352 490 352 490 386 479 c 0,24,25
 463 458 463 458 515 390 c 0,26,27
 531 371 531 371 540.5 340.5 c 128,-1,28
 550 310 550 310 556 266 c 1,29,-1
 556 241 l 1,30,31
 552 190 552 190 535.5 147.5 c 128,-1,32
 519 105 519 105 475 59 c 0,33,34
 437 14 437 14 340 -40 c 1,35,36
 225 -90 225 -90 162 -100 c 1,37,38
 153 -109 153 -109 139 -109 c 2,39,-1
 126 -109 l 2,40,41
 109 -109 109 -109 74 -89 c 2,42,-1
 61 -82 l 1,43,-1
 61 -38 l 1,44,-1
 63 -34 l 1,45,46
 81 12 81 12 195 45 c 0,47,48
 219 52 219 52 248 59 c 1,49,50
 312 85 312 85 361 128 c 0,51,52
 408 171 408 171 422 225 c 0,53,54
 434 283 434 283 406 326 c 0,55,56
 392 347 392 347 375.5 358.5 c 128,-1,57
 359 370 359 370 339 373 c 0,58,59
 320 377 320 377 300 377 c 0,60,61
 223 377 223 377 180 302 c 2,62,-1
 173 289 l 1,63,-1
 130 290 l 2,64,65
 107 292 107 292 92 309 c 0,66,67
 71 334 71 334 70 396 c 2,68,-1
 70 397 l 2,69,70
 72 455 72 455 72 521.5 c 128,-1,71
 72 588 72 588 71 657 c 1,72,73
 77 671 77 671 82.5 680 c 128,-1,74
 88 689 88 689 97 697 c 128,-1,75
 106 705 106 705 119 710 c 256,76,77
 132 715 132 715 146 715 c 2,78,-1
 215 715 l 2,79,80
 306 715 306 715 442 722 c 1,81,82
 462 719 462 719 476 713 c 128,-1,83
 490 707 490 707 501.5 696 c 128,-1,84
 513 685 513 685 517 670 c 2,0,-1
EndSplineSet
EndChar

StartChar: six
Encoding: 54 54 25
Width: 610
GlyphClass: 2
Flags: W
LayerCount: 2
Fore
SplineSet
495 648 m 2,0,-1
 491 647 l 1,1,-1
 438 647 l 1,2,3
 357 639 357 639 282 591 c 1,4,5
 209 537 209 537 198 463 c 1,6,-1
 198 462 l 1,7,8
 235 479 235 479 295 487 c 0,9,10
 300 487 300 487 304 487 c 0,11,12
 409 487 409 487 480 433 c 0,13,14
 569 363 569 363 569 241 c 2,15,-1
 569 240 l 1,16,17
 564 113 564 113 482 51 c 0,18,19
 418 2 418 2 308 -4 c 2,20,-1
 282 -5 l 1,21,-1
 282 -4 l 1,22,23
 167 6 167 6 102 103 c 1,24,-1
 101 104 l 1,25,26
 49 191 49 191 49 261 c 1,27,-1
 44 308 l 1,28,-1
 48 368 l 1,29,-1
 52 406 l 2,30,31
 64 518 64 518 140 616 c 1,32,-1
 140 616 l 1,33,34
 203 692 203 692 290 730 c 128,-1,35
 377 768 377 768 484 768 c 0,36,37
 486 768 486 768 494 768 c 1,38,-1
 533 743 l 1,39,-1
 545 703 l 1,40,-1
 543 695 l 2,41,42
 538 679 538 679 525.5 667 c 128,-1,43
 513 655 513 655 495 648 c 2,0,-1
407 322 m 0,44,45
 387 344 387 344 354 358 c 1,46,-1
 343 358 l 1,47,48
 306 363 306 363 298 363 c 2,49,-1
 275 361 l 1,50,51
 225 352 225 352 204 320 c 0,52,53
 186 293 186 293 186 248 c 2,54,-1
 186 226 l 2,55,56
 186 192 186 192 221 140 c 1,57,58
 257 106 257 106 294 106 c 0,59,60
 299 106 299 106 306 107 c 0,61,62
 380 112 380 112 412 158 c 0,63,64
 431 184 431 184 437 228 c 1,65,-1
 437 254 l 1,66,67
 432 295 432 295 407 322 c 0,44,45
EndSplineSet
EndChar

StartChar: seven
Encoding: 55 55 26
Width: 610
GlyphClass: 2
Flags: W
LayerCount: 2
Fore
SplineSet
479 713 m 1,0,-1
 480 713 l 2,1,2
 513 713 513 713 536 699 c 0,3,4
 566 681 566 681 576 644 c 2,5,-1
 578 637 l 1,6,7
 543 554 543 554 507 507 c 1,8,9
 450 404 450 404 432 350 c 0,10,11
 413 293 413 293 401 241.5 c 128,-1,12
 389 190 389 190 386 130 c 2,13,-1
 386 99 l 2,14,15
 386 66 386 66 390 29 c 1,16,-1
 383 -16 l 1,17,-1
 375 -22 l 2,18,19
 348 -44 348 -44 317.5 -44 c 128,-1,20
 287 -44 287 -44 257 -22 c 2,21,-1
 247 -15 l 1,22,-1
 247 72 l 2,23,24
 247 79 247 79 247 87 c 0,25,26
 247 198 247 198 317 390 c 1,27,28
 374 501 374 501 388.5 529 c 128,-1,29
 403 557 403 557 408 566.5 c 128,-1,30
 413 576 413 576 415 580 c 1,31,32
 397 585 397 585 369 585 c 0,33,34
 343 585 343 585 313 582 c 2,35,-1
 193 582 l 2,36,37
 189 582 189 582 187 582 c 0,38,39
 179 582 179 582 178 579 c 0,40,41
 173 573 173 573 173 557 c 0,42,43
 173 549 173 549 174 542.5 c 128,-1,44
 175 536 175 536 175.5 533.5 c 128,-1,45
 176 531 176 531 176 528.5 c 128,-1,46
 176 526 176 526 176 523 c 0,47,48
 177 518 177 518 177 514 c 0,49,50
 177 466 177 466 147 446 c 0,51,52
 129 434 129 434 104 434 c 2,53,-1
 101 434 l 1,54,-1
 97 435 l 2,55,56
 68 443 68 443 54 468 c 0,57,58
 45 487 45 487 45 513 c 0,59,60
 45 517 45 517 45 521 c 2,61,-1
 45 522 l 2,62,63
 48 563 48 563 48 575 c 128,-1,64
 48 587 48 587 42 646 c 1,65,-1
 42 647 l 2,66,67
 42 675 42 675 61 692 c 0,68,69
 85 713 85 713 135 713 c 2,70,-1
 136 713 l 1,71,72
 241 706 241 706 327 706 c 0,73,74
 412 706 412 706 479 713 c 1,0,-1
EndSplineSet
EndChar

StartChar: eight
Encoding: 56 56 27
Width: 610
GlyphClass: 2
Flags: W
LayerCount: 2
Fore
SplineSet
91 423 m 0,0,1
 66 452 66 452 59 510 c 1,2,-1
 59 530 l 2,3,4
 59 595 59 595 103 645 c 1,5,6
 134 674 134 674 170 695 c 0,7,8
 205 711 205 711 241 719 c 2,9,-1
 278 726 l 2,10,11
 287 726 287 726 296 726 c 0,12,13
 322 726 322 726 348 722 c 0,14,15
 465 703 465 703 513 635 c 0,16,17
 541 601 541 601 550 550 c 0,18,19
 551 542 551 542 552 531 c 2,20,-1
 549 497 l 1,21,22
 530 435 530 435 478 394 c 1,23,24
 527 362 527 362 552 314.5 c 128,-1,25
 577 267 577 267 577 206 c 2,26,-1
 577 204 l 1,27,-1
 575 185 l 2,28,29
 572 151 572 151 532 91 c 1,30,-1
 512 67 l 1,31,-1
 477 47 l 1,32,33
 412 -3 412 -3 353 -3 c 2,34,-1
 256 -3 l 1,35,36
 75 35 75 35 39 158 c 0,37,38
 33 166 33 166 31 176 c 0,39,40
 27 198 27 198 27 221 c 0,41,42
 27 315 27 315 124 393 c 1,43,44
 100 409 100 409 91 423 c 0,0,1
400 580 m 0,45,46
 378 597 378 597 335 603 c 0,47,48
 317 607 317 607 303 607 c 0,49,50
 234 607 234 607 208 575 c 0,51,52
 195 559 195 559 191 534 c 1,53,54
 194 498 194 498 213 479 c 0,55,56
 236 455 236 455 288 455 c 2,57,-1
 314 455 l 2,58,59
 359 456 359 456 386 471 c 0,60,61
 417 488 417 488 425 525 c 1,62,-1
 425 525 l 1,63,64
 425 561 425 561 400 580 c 0,45,46
266 136 m 1,65,-1
 310 130 l 2,66,67
 313 130 313 130 320 130 c 0,68,69
 337 130 337 130 368 136 c 1,70,71
 423 157 423 157 441 196 c 0,72,73
 449 220 449 220 450 227 c 2,74,-1
 450 234 l 1,75,76
 440 277 440 277 410 301 c 0,77,78
 385 317 385 317 351 329 c 2,79,-1
 326 335 l 2,80,81
 316 336 316 336 298.5 336 c 128,-1,82
 281 336 281 336 251 334 c 1,83,84
 203 320 203 320 182 291 c 0,85,86
 165 267 165 267 165 231 c 1,87,88
 174 179 174 179 220 152 c 1,89,-1
 266 136 l 1,65,-1
EndSplineSet
EndChar

StartChar: nine
Encoding: 57 57 28
Width: 610
GlyphClass: 2
Flags: W
LayerCount: 2
Fore
SplineSet
87 66 m 0,0,1
 92 72 92 72 99 76 c 128,-1,2
 106 80 106 80 111.5 80 c 128,-1,3
 117 80 117 80 120 79 c 2,4,-1
 173 84 l 1,5,6
 264 97 264 97 328 142 c 1,7,8
 409 208 409 208 419 281 c 0,9,10
 421 286 421 286 422 289 c 1,11,12
 373 259 373 259 307 250 c 0,13,14
 297 249 297 249 289 249 c 0,15,16
 178 249 178 249 105 309 c 1,17,18
 44 365 44 365 37 470 c 1,19,20
 41 572 41 572 92 634 c 0,21,22
 157 712 157 712 292 724 c 2,23,-1
 319 726 l 1,24,-1
 319 724 l 1,25,26
 470 706 470 706 526 599 c 1,27,28
 566 536 566 536 569 445 c 0,29,30
 570 423 570 423 570 416 c 0,31,32
 571 407 571 407 571 400 c 0,33,34
 571 376 571 376 566 344 c 2,35,-1
 565 326 l 2,36,37
 558 268 558 268 535 215 c 0,38,39
 518 174 518 174 474 115 c 0,40,41
 365 -35 365 -35 156 -35 c 0,42,43
 138 -35 138 -35 114 -34 c 1,44,-1
 71 -9 l 1,45,-1
 69 33 l 1,46,47
 78 57 78 57 87 66 c 0,0,1
248 339 m 1,48,-1
 266 336 l 2,49,50
 274 334 274 334 285 334 c 128,-1,51
 296 334 296 334 316 339 c 2,52,-1
 351 348 l 1,53,54
 383 366 383 366 401.5 393 c 128,-1,55
 420 420 420 420 426 458 c 1,56,-1
 424 465 l 2,57,58
 424 473 424 473 424 477 c 0,59,60
 424 507 424 507 413.5 529 c 128,-1,61
 403 551 403 551 379 569 c 0,62,63
 361 585 361 585 336 595 c 1,64,65
 304 601 304 601 300.5 601 c 128,-1,66
 297 601 297 601 292 601 c 128,-1,67
 287 601 287 601 280 600 c 0,68,69
 238 595 238 595 211 571 c 0,70,71
 173 538 173 538 169 472 c 1,72,-1
 169 452 l 1,73,74
 173 374 173 374 248 339 c 1,48,-1
EndSplineSet
EndChar

StartChar: colon
Encoding: 58 58 29
Width: 610
GlyphClass: 2
Flags: W
LayerCount: 2
Fore
SplineSet
284 -35 m 0,0,1
 243 -35 243 -35 211 -5.5 c 128,-1,2
 179 24 179 24 179 74 c 0,3,4
 179 117 179 117 208.5 148 c 128,-1,5
 238 179 238 179 283 179 c 128,-1,6
 328 179 328 179 360 149.5 c 128,-1,7
 392 120 392 120 392 74 c 0,8,9
 392 32 392 32 363 -1 c 0,10,11
 333 -35 333 -35 284 -35 c 0,0,1
284 314 m 0,12,13
 243 314 243 314 211 343.5 c 128,-1,14
 179 373 179 373 179 419 c 128,-1,15
 179 465 179 465 208.5 496.5 c 128,-1,16
 238 528 238 528 284 528 c 0,17,18
 328 528 328 528 359 499 c 0,19,20
 392 469 392 469 392 421 c 0,21,22
 392 378 392 378 363 347 c 0,23,24
 333 314 333 314 284 314 c 0,12,13
EndSplineSet
EndChar

StartChar: semicolon
Encoding: 59 59 30
Width: 610
GlyphClass: 2
Flags: W
LayerCount: 2
Fore
SplineSet
197 74 m 0,0,1
 197 115 197 115 228 146 c 128,-1,2
 259 177 259 177 304 177 c 0,3,4
 353 177 353 177 385 140 c 128,-1,5
 417 103 417 103 417 33 c 0,6,7
 417 -52 417 -52 367 -111 c 128,-1,8
 317 -170 317 -170 250 -201 c 2,9,-1
 229 -210 l 1,10,-1
 178 -115 l 1,11,-1
 203 -104 l 2,12,13
 241 -88 241 -88 264 -61 c 0,14,15
 277 -45 277 -45 284 -26 c 1,16,17
 249 -21 249 -21 226 0 c 0,18,19
 197 28 197 28 197 74 c 0,0,1
302 314 m 0,20,21
 261 314 261 314 229 343.5 c 128,-1,22
 197 373 197 373 197 419 c 128,-1,23
 197 465 197 465 226 496 c 0,24,25
 256 528 256 528 302 528 c 0,26,27
 346 528 346 528 377 499 c 0,28,29
 410 469 410 469 410 421 c 0,30,31
 410 378 410 378 381 347 c 0,32,33
 351 314 351 314 302 314 c 0,20,21
EndSplineSet
EndChar

StartChar: less
Encoding: 60 60 31
Width: 610
GlyphClass: 2
Flags: W
LayerCount: 2
Fore
SplineSet
29 252 m 1,0,-1
 29 362 l 1,1,-1
 567 611 l 1,2,-1
 567 484 l 1,3,-1
 187 307 l 1,4,-1
 567 127 l 1,5,-1
 567 2 l 1,6,-1
 29 252 l 1,0,-1
EndSplineSet
EndChar

StartChar: equal
Encoding: 61 61 32
Width: 610
GlyphClass: 2
Flags: W
LayerCount: 2
Fore
SplineSet
161 479 m 2,0,-1
 490 479 l 1,1,-1
 491 479 l 2,2,3
 532 478 532 478 557 451 c 2,4,-1
 562 445 l 1,5,-1
 565 415 l 1,6,-1
 565 414 l 2,7,8
 565 387 565 387 543 370 c 0,9,10
 529 359 529 359 503 352 c 1,11,-1
 310 355 l 1,12,-1
 116 355 l 1,13,14
 77 362 77 362 62 391 c 0,15,16
 57 403 57 403 55 417 c 2,17,-1
 55 435 l 1,18,19
 60 447 60 447 66 454 c 0,20,21
 88 480 88 480 144 480 c 0,22,23
 152 480 152 480 161 479 c 2,0,-1
554 208 m 0,24,25
 554 202 554 202 552 184 c 1,26,-1
 514 156 l 1,27,28
 494 153 494 153 477.5 153 c 128,-1,29
 461 153 461 153 440 156 c 2,30,-1
 136 156 l 1,31,-1
 115 157 l 2,32,33
 87 158 87 158 70 170 c 0,34,35
 44 187 44 187 44 221.5 c 128,-1,36
 44 256 44 256 69 274 c 0,37,38
 86 287 86 287 116 289 c 0,39,40
 282 282 282 282 403 282 c 0,41,42
 451 282 451 282 496 283 c 1,43,-1
 523 273 l 1,44,-1
 527 270 l 2,45,46
 540 258 540 258 547 242 c 128,-1,47
 554 226 554 226 554 208 c 0,24,25
EndSplineSet
EndChar

StartChar: greater
Encoding: 62 62 33
Width: 610
GlyphClass: 2
Flags: W
LayerCount: 2
Fore
SplineSet
29 2 m 1,0,-1
 29 127 l 1,1,-1
 409 307 l 1,2,-1
 29 484 l 1,3,-1
 29 611 l 1,4,-1
 567 362 l 1,5,-1
 567 252 l 1,6,-1
 29 2 l 1,0,-1
EndSplineSet
EndChar

StartChar: question
Encoding: 63 63 34
Width: 610
GlyphClass: 2
Flags: W
LayerCount: 2
Fore
SplineSet
306 643 m 2,0,1
 297 642 297 642 288 642 c 0,2,3
 279 644 279 644 272 643 c 0,4,5
 201 629 201 629 201 599 c 2,6,7
 201 599 201 599 201 598 c 2,8,-1
 201 597 l 2,9,10
 201 584 201 584 230 568 c 2,11,-1
 243 561 l 1,12,-1
 243 506 l 1,13,-1
 240 501 l 2,14,15
 222 469 222 469 194 457 c 0,16,17
 179 451 179 451 165 451 c 0,18,19
 140 451 140 451 112 465 c 2,20,-1
 110 466 l 1,21,22
 63 502 63 502 63 565 c 0,23,24
 63 568 63 568 63 571 c 0,25,26
 64 647 64 647 126 698 c 1,27,28
 175 748 175 748 240 757 c 0,29,30
 270 762 270 762 297 762 c 0,31,32
 307 762 307 762 315 761 c 2,33,-1
 354 758 l 1,34,35
 452 732 452 732 499 667 c 0,36,37
 542 608 542 608 543 543 c 2,38,-1
 543 528 l 1,39,-1
 543 527 l 1,40,41
 537 411 537 411 425 359 c 1,42,43
 425 359 425 359 425 359 c 1,44,45
 362 331 362 331 358 297 c 1,46,-1
 358 207 l 1,47,-1
 352 200 l 2,48,49
 326 168 326 168 289 168 c 2,50,-1
 288 168 l 2,51,52
 265 169 265 169 250 181 c 0,53,54
 229 196 229 196 229 226 c 0,55,56
 229 232 229 232 230 238 c 2,57,-1
 230 284 l 2,58,59
 230 286 230 286 230 289 c 0,60,61
 230 347 230 347 273 399 c 1,62,-1
 275 402 l 1,63,-1
 318 429 l 1,64,65
 356 442 356 442 376 463 c 0,66,67
 401 489 401 489 407 530 c 0,68,69
 407 539 407 539 407 548 c 128,-1,70
 407 557 407 557 405 570 c 0,71,72
 399 595 399 595 383 612 c 0,73,74
 364 632 364 632 327 642 c 1,75,-1
 306 643 l 2,0,1
297 -24 m 0,76,77
 264 -24 264 -24 238 -1 c 0,78,79
 224 10 224 10 217 26.5 c 128,-1,80
 210 43 210 43 210 61 c 0,81,82
 210 96 210 96 235 120 c 0,83,84
 260 143 260 143 296.5 143 c 128,-1,85
 333 143 333 143 359 122 c 0,86,87
 388 99 388 99 388 61 c 0,88,89
 388 29 388 29 362.5 2.5 c 128,-1,90
 337 -24 337 -24 297 -24 c 0,76,77
EndSplineSet
EndChar

StartChar: at
Encoding: 64 64 35
Width: 610
GlyphClass: 2
Flags: W
LayerCount: 2
Fore
SplineSet
301 -122 m 0,0,1
 240 -122 240 -122 181.5 -96 c 128,-1,2
 123 -70 123 -70 77 -19 c 128,-1,3
 31 32 31 32 5.5 112 c 128,-1,4
 -20 192 -20 192 -20 302 c 0,5,6
 -20 432 -20 432 6 518 c 0,7,8
 32 606 32 606 81 665 c 128,-1,9
 130 724 130 724 193.5 760.5 c 128,-1,10
 257 797 257 797 333 797 c 0,11,12
 390 797 390 797 443 774 c 128,-1,13
 496 751 496 751 538 705.5 c 128,-1,14
 580 660 580 660 604.5 590.5 c 128,-1,15
 629 521 629 521 629 437 c 0,16,17
 629 310 629 310 601 236 c 0,18,19
 590 208 590 208 575 184 c 0,20,21
 544 136 544 136 509 106 c 0,22,23
 469 72 469 72 420 72 c 2,24,-1
 419 72 l 2,25,26
 381 73 381 73 356 108 c 0,27,28
 349 118 349 118 344 130 c 1,29,30
 337 119 337 119 330 110 c 0,31,32
 302 74 302 74 251 74 c 0,33,34
 203 74 203 74 173 105 c 0,35,36
 162 117 162 117 154 133 c 0,37,38
 128 183 128 183 128 254.5 c 128,-1,39
 128 326 128 326 142 378 c 0,40,41
 157 429 157 429 180 469 c 128,-1,42
 203 509 203 509 239 535 c 0,43,44
 274 561 274 561 314 561 c 0,45,46
 318 561 318 561 322 561 c 0,47,48
 358 558 358 558 379 541 c 1,49,-1
 386 572 l 1,50,-1
 482 574 l 1,51,-1
 475 543 l 2,52,53
 436 357 436 357 429 288 c 0,54,55
 425 241 425 241 425 224 c 0,56,57
 425 199 425 199 427 190 c 128,-1,58
 429 181 429 181 431 178 c 0,59,60
 434 176 434 176 438 176 c 0,61,62
 439 176 439 176 442.5 177 c 128,-1,63
 446 178 446 178 452.5 182 c 128,-1,64
 459 186 459 186 466 192 c 0,65,66
 481 206 481 206 496 235 c 128,-1,67
 511 264 511 264 520.5 319 c 128,-1,68
 530 374 530 374 530 432 c 0,69,70
 529 505 529 505 514 557 c 128,-1,71
 499 609 499 609 472.5 638 c 128,-1,72
 446 667 446 667 412 681 c 128,-1,73
 378 695 378 695 339 695 c 0,74,75
 257 695 257 695 195 636 c 0,76,77
 155 597 155 597 126 534 c 0,78,79
 112 504 112 504 102 470 c 0,80,81
 82 401 82 401 82 290 c 0,82,83
 82 203 82 203 101 148.5 c 128,-1,84
 120 94 120 94 151.5 55.5 c 128,-1,85
 183 17 183 17 220.5 0.5 c 128,-1,86
 258 -16 258 -16 298 -16 c 0,87,88
 362 -16 362 -16 409 4.5 c 128,-1,89
 456 25 456 25 500 65 c 2,90,-1
 526 89 l 1,91,-1
 566 -2 l 1,92,-1
 553 -14 l 2,93,94
 500 -66 500 -66 441 -94 c 128,-1,95
 382 -122 382 -122 301 -122 c 0,0,1
272 193 m 0,96,97
 283 202 283 202 295 226 c 0,98,99
 309 252 309 252 319 291.5 c 128,-1,100
 329 331 329 331 333.5 364 c 128,-1,101
 338 397 338 397 338 409.5 c 128,-1,102
 338 422 338 422 337 428 c 0,103,104
 334 444 334 444 325 455 c 0,105,106
 322 458 322 458 320 458.5 c 128,-1,107
 318 459 318 459 316 459 c 2,108,-1
 315 459 l 2,109,110
 302 460 302 460 286 440 c 0,111,112
 265 414 265 414 253.5 375.5 c 128,-1,113
 242 337 242 337 239 305 c 0,114,115
 238 286 238 286 238 274 c 0,116,117
 238 228 238 228 241.5 213 c 128,-1,118
 245 198 245 198 249.5 191.5 c 128,-1,119
 254 185 254 185 259 185 c 128,-1,120
 264 185 264 185 272 193 c 0,96,97
EndSplineSet
EndChar

StartChar: A
Encoding: 65 65 36
Width: 610
GlyphClass: 2
Flags: W
LayerCount: 2
Fore
SplineSet
280 9 m 1,0,1
 259 -5 259 -5 242 -8 c 0,2,3
 238 -8 238 -8 231 -8 c 128,-1,4
 224 -8 224 -8 216 -6 c 2,5,-1
 145 -6 l 2,6,7
 100 -8 100 -8 28 -8 c 2,8,-1
 24 -8 l 1,9,-1
 19 -7 l 1,10,11
 -12 4 -12 4 -27 34 c 2,12,-1
 -29 39 l 1,13,-1
 -29 60 l 2,14,15
 -26 69 -26 69 -22.5 73.5 c 128,-1,16
 -19 78 -19 78 -12 84 c 128,-1,17
 -5 90 -5 90 10 96 c 0,18,19
 36 108 36 108 83 118 c 1,20,21
 100 161 100 161 130 277 c 0,22,23
 192 537 192 537 221 636 c 1,24,-1
 242 681 l 2,25,26
 257 720 257 720 315 730 c 2,27,-1
 323 731 l 1,28,-1
 383 697 l 1,29,-1
 484 287 l 2,30,31
 511 169 511 169 534 131 c 1,32,33
 553 132 553 132 556 132 c 128,-1,34
 559 132 559 132 559 132 c 2,35,36
 592 132 592 132 612 117 c 0,37,38
 639 96 639 96 639 54 c 0,39,40
 639 37 639 37 627 24 c 0,41,42
 610 7 610 7 568 0 c 1,43,44
 539 1 539 1 522 1 c 128,-1,45
 505 1 505 1 494 0.5 c 128,-1,46
 483 0 483 0 473 0 c 0,47,48
 453 -1 453 -1 434 -2 c 2,49,-1
 388 1 l 1,50,-1
 346 2 l 1,51,-1
 338 10 l 2,52,53
 318 30 318 30 318 51 c 0,54,55
 318 82 318 82 359 106 c 2,56,-1
 363 108 l 1,57,-1
 393 113 l 1,58,59
 391 155 391 155 380 174 c 1,60,-1
 379 178 l 1,61,62
 372 180 372 180 358 181 c 2,63,-1
 293 181 l 2,64,65
 258 180 258 180 237 180 c 1,66,-1
 229 173 l 1,67,-1
 213 123 l 2,68,69
 215 117 215 117 216.5 115.5 c 128,-1,70
 218 114 218 114 223 114 c 2,71,-1
 230 114 l 1,72,-1
 274 97 l 1,73,-1
 291 68 l 1,74,-1
 291 64 l 1,75,-1
 293 48 l 2,76,77
 293 28 293 28 283 13 c 2,78,-1
 280 9 l 1,0,1
314 297 m 0,79,80
 332 299 332 299 344 304 c 1,81,82
 346 310 346 310 346 323 c 128,-1,83
 346 336 346 336 339 363 c 0,84,85
 330 430 330 430 308 533 c 1,86,87
 279 422 279 422 265 343 c 0,88,89
 261 326 261 326 261 305 c 1,90,-1
 269 301 l 2,91,92
 279 300 279 300 314 297 c 0,79,80
EndSplineSet
EndChar

StartChar: B
Encoding: 66 66 37
Width: 610
GlyphClass: 2
Flags: W
LayerCount: 2
Fore
SplineSet
273 0 m 1,0,-1
 203 0 l 2,1,2
 179 0 179 0 131 -8 c 1,3,4
 112 0 112 0 105 5 c 1,5,-1
 74 0 l 1,6,-1
 47 0 l 2,7,8
 32 0 32 0 19 13 c 0,9,10
 9 23 9 23 -4 47 c 1,11,-1
 -7 74 l 1,12,-1
 -7 77 l 1,13,14
 -1 112 -1 112 29 129 c 2,15,-1
 34 132 l 1,16,-1
 72 132 l 2,17,18
 105 132 105 132 121.5 135.5 c 128,-1,19
 138 139 138 139 142.5 142.5 c 128,-1,20
 147 146 147 146 147 148 c 2,21,-1
 144 488 l 1,22,-1
 144 492 l 1,23,-1
 137 524 l 1,24,-1
 141 532 l 2,25,26
 150 546 150 546 150 558 c 2,27,-1
 150 567 l 1,28,-1
 149 573 l 1,29,30
 149 573 149 573 139 570 c 1,31,-1
 116 582 l 1,32,33
 97 572 97 572 78 572 c 2,34,-1
 76 572 l 1,35,36
 42 578 42 578 29 589.5 c 128,-1,37
 16 601 16 601 16 617 c 2,38,-1
 16 636 l 2,39,40
 16 675 16 675 41 694 c 0,41,42
 60 708 60 708 91 708 c 2,43,-1
 103 708 l 2,44,45
 138 708 138 708 229 710 c 128,-1,46
 320 712 320 712 328 712 c 0,47,48
 474 712 474 712 535 636 c 0,49,50
 572 585 572 585 572 510 c 0,51,52
 572 507 572 507 572 505 c 0,53,54
 572 467 572 467 543 426 c 0,55,56
 527 407 527 407 504 393 c 1,57,58
 553 365 553 365 589 307 c 1,59,60
 607 262 607 262 607 213 c 2,61,-1
 607 212 l 2,62,63
 605 155 605 155 584 110 c 1,64,65
 551 63 551 63 512 37 c 1,66,-1
 510 36 l 1,67,68
 458 17 458 17 434 11 c 256,69,70
 410 5 410 5 387.5 2.5 c 128,-1,71
 365 0 365 0 329 -7 c 1,72,73
 295 -4 295 -4 277 2 c 1,74,-1
 273 0 l 1,0,-1
260 511 m 1,75,-1
 259 485 l 1,76,77
 263 457 263 457 273 453 c 1,78,-1
 360 453 l 1,79,80
 430 476 430 476 434 519 c 0,81,82
 434 532 434 532 439 541 c 1,83,84
 435 593 435 593 401 609 c 0,85,86
 383 617 383 617 356 621 c 1,87,88
 303 621 303 621 269 617 c 0,89,90
 265 618 265 618 264 618 c 0,91,92
 261 611 261 611 260 599 c 2,93,-1
 260 511 l 1,75,-1
284 102 m 1,94,-1
 329 102 l 2,95,96
 405 102 405 102 430 135 c 2,97,-1
 438 145 l 1,98,-1
 446 145 l 2,99,100
 447 146 447 146 448 147 c 1,101,-1
 441 147 l 1,102,-1
 458 183 l 2,103,104
 468 203 468 203 468 215 c 2,105,-1
 468 231 l 2,106,107
 468 290 468 290 392 324 c 1,108,-1
 372 329 l 1,109,-1
 335 327 l 2,110,111
 317 324 317 324 307.5 324 c 128,-1,112
 298 324 298 324 295 324 c 2,113,-1
 283 325 l 2,114,115
 273 325 273 325 270 320.5 c 128,-1,116
 267 316 267 316 267 302 c 0,117,118
 267 301 267 301 267 298 c 2,119,-1
 266 274 l 1,120,-1
 265 159 l 1,121,-1
 265 128 l 1,122,-1
 271 109 l 1,123,-1
 284 102 l 1,94,-1
EndSplineSet
EndChar

StartChar: C
Encoding: 67 67 38
Width: 610
GlyphClass: 2
Flags: W
LayerCount: 2
Fore
SplineSet
46 390 m 1,0,1
 42 400 42 400 42 409 c 0,2,3
 42 425 42 425 58 479 c 1,4,5
 55 485 55 485 55 492 c 2,6,-1
 55 515 l 1,7,-1
 71 515 l 1,8,9
 80 535 80 535 86 584 c 2,10,-1
 89 605 l 1,11,-1
 108 605 l 1,12,13
 116 615 116 615 124 644 c 2,14,-1
 126 652 l 1,15,-1
 133 657 l 2,16,17
 191 700 191 700 269 726 c 1,18,-1
 273 726 l 2,19,20
 342 726 342 726 420 690 c 1,21,22
 476 719 476 719 489 719 c 0,23,24
 490 719 490 719 491 719 c 2,25,-1
 504 719 l 1,26,-1
 536 678 l 1,27,-1
 536 656 l 1,28,29
 524 579 524 579 512 548 c 1,30,31
 540 468 540 468 548 419 c 2,32,-1
 550 403 l 1,33,34
 528 391 528 391 522 389 c 0,35,36
 513 386 513 386 504 386 c 1,37,-1
 504 386 l 1,38,39
 433 387 433 387 403 513 c 0,40,41
 397 538 397 538 393 568 c 1,42,43
 373 583 373 583 302 608 c 1,44,45
 217 573 217 573 197 537 c 0,46,47
 192 528 192 528 192 518 c 2,48,-1
 192 494 l 1,49,-1
 173 494 l 1,50,-1
 166 477 l 2,51,52
 161 460 161 460 158 432 c 1,53,-1
 175 432 l 1,54,-1
 159 399 l 2,55,56
 156 393 156 393 155 390 c 0,57,58
 155 375 155 375 161 338 c 1,59,-1
 155 311 l 1,60,61
 156 221 156 221 209 177 c 2,62,-1
 217 170 l 1,63,-1
 217 160 l 2,64,65
 217 155 217 155 224 147 c 0,66,67
 235 135 235 135 260 121 c 1,68,69
 321 131 321 131 348 145 c 0,70,71
 356 149 356 149 359 153 c 2,72,-1
 361 155 l 1,73,-1
 361 164 l 1,74,-1
 368 170 l 2,75,76
 401 203 401 203 424 269 c 2,77,-1
 430 285 l 1,78,-1
 445 285 l 1,79,80
 455 291 455 291 468 304 c 2,81,-1
 477 314 l 1,82,83
 499 310 499 310 507 307 c 0,84,85
 541 297 541 297 554 271 c 0,86,87
 560 258 560 258 560 243.5 c 128,-1,88
 560 229 560 229 559 217 c 0,89,90
 554 166 554 166 528 142 c 1,91,92
 520 95 520 95 445 40 c 1,93,-1
 381 -18 l 1,94,-1
 327 -9 l 1,95,-1
 319 -9 l 1,96,-1
 300 -23 l 1,97,-1
 266 -23 l 1,98,99
 204 13 204 13 184 26.5 c 128,-1,100
 164 40 164 40 156 47 c 128,-1,101
 148 54 148 54 145 60 c 2,102,-1
 142 65 l 1,103,-1
 142 67 l 1,104,105
 135 74 135 74 121 84 c 2,106,-1
 111 91 l 1,107,-1
 111 102 l 2,108,109
 109 108 109 108 98 126 c 128,-1,110
 87 144 87 144 55 184 c 1,111,-1
 55 224 l 2,112,113
 55 229 55 229 57 234 c 1,114,-1
 42 263 l 1,115,-1
 42 289 l 1,116,-1
 55 307 l 1,117,-1
 42 325 l 1,118,-1
 42 364 l 2,119,120
 42 377 42 377 46 390 c 1,0,1
EndSplineSet
EndChar

StartChar: D
Encoding: 68 68 39
Width: 610
GlyphClass: 2
Flags: W
LayerCount: 2
Fore
SplineSet
158 216 m 0,0,1
 148 242 148 242 148 258 c 0,2,3
 148 264 148 264 155 306 c 1,4,-1
 148 348 l 1,5,-1
 148 350 l 2,6,7
 148 357 148 357 152 364 c 1,8,-1
 148 385 l 1,9,-1
 155 471 l 1,10,-1
 147 506 l 1,11,12
 153 518 153 518 154 521 c 2,13,-1
 147 545 l 1,14,15
 153 567 153 567 155 583 c 1,16,-1
 142 591 l 1,17,18
 85 585 85 585 37 585 c 2,19,-1
 22 585 l 1,20,-1
 15 598 l 2,21,22
 -1 629 -1 629 -1 664 c 2,23,-1
 -1 680 l 1,24,-1
 13 686 l 2,25,26
 46 703 46 703 106 703 c 2,27,-1
 107 703 l 1,28,29
 151 699 151 699 182 696 c 1,30,-1
 218 716 l 1,31,-1
 224 716 l 2,32,33
 236 716 236 716 278 705 c 1,34,35
 314 716 314 716 323 716 c 0,36,37
 324 716 324 716 324 716 c 1,38,-1
 327 716 l 1,39,40
 415 698 415 698 459 675 c 0,41,42
 495 656 495 656 507 632 c 1,43,44
 573 585 573 585 590 499 c 0,45,46
 593 465 593 465 597 449 c 1,47,-1
 605 449 l 1,48,49
 604 352 604 352 603 341 c 0,50,51
 602 319 602 319 598 271 c 0,52,53
 586 197 586 197 562 175 c 0,54,55
 560 172 560 172 556 170 c 1,56,-1
 562 129 l 1,57,-1
 557 122 l 2,58,59
 492 26 492 26 425 21 c 1,60,61
 406 12 406 12 333 -5 c 1,62,-1
 330 -5 l 2,63,64
 315 -5 315 -5 286 6 c 1,65,66
 258 -5 258 -5 243 -5 c 2,67,-1
 242 -5 l 1,68,-1
 174 0 l 1,69,-1
 174 -12 l 1,70,-1
 149 -12 l 2,71,72
 90 -12 90 -12 56.5 0.5 c 128,-1,73
 23 13 23 13 9 37 c 0,74,75
 -1 54 -1 54 -1 74 c 2,76,-1
 -1 103 l 1,77,-1
 21 106 l 2,78,79
 40 108 40 108 49 112 c 1,80,-1
 49 136 l 1,81,-1
 132 126 l 1,82,-1
 149 126 l 2,83,84
 151 127 151 127 152 131 c 1,85,-1
 145 131 l 1,86,87
 152 191 152 191 156 207 c 0,88,89
 156 208 156 208 157 211 c 128,-1,90
 158 214 158 214 158 216 c 0,0,1
486 335 m 1,91,-1
 480 394 l 2,92,93
 480 401 480 401 486 434 c 1,94,-1
 479 462 l 1,95,96
 489 503 489 503 491 523 c 1,97,98
 468 557 468 557 453 575 c 128,-1,99
 438 593 438 593 430 598 c 2,100,-1
 425 601 l 1,101,-1
 422 605 l 2,102,103
 394 647 394 647 327 648 c 1,104,105
 285 638 285 638 268 627 c 1,106,107
 267 538 267 538 267 505 c 2,108,-1
 267 499 l 1,109,-1
 259 482 l 1,110,-1
 267 449 l 1,111,112
 268 327 268 327 268 272 c 0,113,114
 270 259 270 259 275 229 c 1,115,116
 262 192 262 192 262 184.5 c 128,-1,117
 262 177 262 177 262.5 171 c 128,-1,118
 263 165 263 165 263 161 c 0,119,120
 266 137 266 137 273 129 c 0,121,122
 275 126 275 126 280 126 c 2,123,-1
 299 126 l 2,124,125
 426 127 426 127 486 335 c 1,91,-1
EndSplineSet
EndChar

StartChar: E
Encoding: 69 69 40
Width: 610
GlyphClass: 2
Flags: W
LayerCount: 2
Fore
SplineSet
185 710 m 2,0,-1
 186 710 l 2,1,2
 239 710 239 710 295 712 c 2,3,-1
 296 712 l 1,4,-1
 379 712 l 2,5,6
 408 712 408 712 437 713.5 c 128,-1,7
 466 715 466 715 470 715 c 0,8,9
 487 715 487 715 506 713 c 1,10,-1
 521 705 l 1,11,12
 565 700 565 700 580 646 c 0,13,14
 586 625 586 625 588 593 c 2,15,-1
 608 407 l 1,16,-1
 574 389 l 1,17,-1
 533 389 l 2,18,19
 515 389 515 389 504 410 c 0,20,21
 489 440 489 440 468 574 c 1,22,23
 462 579 462 579 458 587 c 1,24,25
 431 588 431 588 399 593 c 1,26,27
 363 587 363 587 354 587 c 0,28,29
 353 587 353 587 353 587 c 1,30,-1
 328 587 l 1,31,-1
 328 591 l 1,32,33
 312 590 312 590 285 587 c 2,34,-1
 254 588 l 2,35,36
 247 586 247 586 243 582 c 1,37,-1
 245 555 l 1,38,39
 242 530 242 530 242 514 c 1,40,-1
 242 514 l 1,41,42
 240 489 240 489 240 468.5 c 128,-1,43
 240 448 240 448 241 434 c 1,44,45
 249 427 249 427 267 426 c 0,46,47
 270 426 270 426 276 427 c 0,48,49
 280 427 280 427 285.5 427 c 128,-1,50
 291 427 291 427 298 428 c 0,51,52
 319 431 319 431 323 440 c 0,53,54
 325 445 325 445 325 452 c 2,55,-1
 325 453 l 2,56,57
 328 507 328 507 339 524 c 0,58,59
 346 533 346 533 353 536 c 128,-1,60
 360 539 360 539 366 539 c 2,61,-1
 379 539 l 2,62,63
 395 539 395 539 409 524 c 0,64,65
 419 513 419 513 431 487 c 1,66,67
 438 442 438 442 438 417 c 0,68,69
 438 394 438 394 436 381 c 0,70,71
 438 331 438 331 442 282 c 1,72,73
 439 241 439 241 428 224.5 c 128,-1,74
 417 208 417 208 398 208 c 2,75,-1
 379 208 l 2,76,77
 364 208 364 208 353 220 c 0,78,79
 346 228 346 228 341 242 c 0,80,81
 331 267 331 267 323 317 c 1,82,83
 311 333 311 333 299 334 c 0,84,85
 276 328 276 328 264 318.5 c 128,-1,86
 252 309 252 309 252 295 c 2,87,-1
 252 293 l 1,88,89
 245 257 245 257 245 196 c 1,90,91
 251 164 251 164 258 147 c 2,92,-1
 263 135 l 1,93,-1
 271 138 l 1,94,-1
 277 142 l 1,95,-1
 284 142 l 2,96,97
 290 142 290 142 326 135 c 1,98,99
 366 132 366 132 376 132 c 128,-1,100
 386 132 386 132 394 132.5 c 128,-1,101
 402 133 402 133 409 133 c 0,102,103
 443 137 443 137 456 148 c 0,104,105
 462 153 462 153 462 163 c 2,106,-1
 462 165 l 1,107,-1
 462 180 l 1,108,-1
 465 197 l 1,109,110
 469 293 469 293 517 328 c 2,111,-1
 524 333 l 1,112,-1
 557 333 l 2,113,114
 576 333 576 333 589 311 c 0,115,116
 598 297 598 297 608 263 c 1,117,118
 600 139 600 139 600 117 c 2,119,-1
 600 92 l 1,120,-1
 599 89 l 2,121,122
 570 -3 570 -3 510 -3 c 2,123,-1
 470 -3 l 2,124,125
 330 -3 330 -3 294 8 c 1,126,127
 253 -3 253 -3 220 -3 c 0,128,129
 215 -3 215 -3 211 -2 c 2,130,-1
 188 -14 l 1,131,-1
 178 -7 l 1,132,133
 155 -2 155 -2 57 0 c 0,134,135
 25 4 25 4 10 15 c 2,136,-1
 5 18 l 1,137,-1
 -13 49 l 1,138,-1
 -13 67 l 1,139,-1
 -12 71 l 2,140,141
 0 107 0 107 32 123 c 0,142,143
 55 135 55 135 88 135 c 2,144,-1
 90 135 l 1,145,-1
 123 129 l 1,146,147
 139 138 139 138 139 172 c 1,148,-1
 133 216 l 1,149,-1
 135 286 l 2,150,151
 134 310 134 310 134 327 c 128,-1,152
 134 344 134 344 135 354 c 2,153,-1
 136 526 l 2,154,155
 137 537 137 537 137 546 c 0,156,157
 137 570 137 570 132 580 c 1,158,-1
 130 580 l 2,159,160
 119 580 119 580 37 584 c 1,161,-1
 33 587 l 1,162,163
 -7 607 -7 607 -7 637 c 2,164,-1
 -7 653 l 2,165,166
 -7 673 -7 673 8 687 c 0,167,168
 28 706 28 706 78 712 c 2,169,-1
 86 713 l 1,170,-1
 99 706 l 1,171,-1
 133 713 l 1,172,-1
 138 711 l 2,173,174
 144 710 144 710 159.5 710 c 128,-1,175
 175 710 175 710 185 710 c 2,0,-1
EndSplineSet
EndChar

StartChar: F
Encoding: 70 70 41
Width: 610
GlyphClass: 2
Flags: W
LayerCount: 2
Fore
SplineSet
399 716 m 1,0,-1
 425 710 l 1,1,2
 455 723 455 723 477 723 c 2,3,-1
 479 723 l 1,4,5
 524 717 524 717 550 694 c 0,6,7
 581 665 581 665 583 614 c 1,8,9
 601 570 601 570 614 475 c 1,10,-1
 614 416 l 1,11,-1
 608 409 l 2,12,13
 599 398 599 398 595 390 c 1,14,-1
 595 367 l 1,15,-1
 552 367 l 1,16,-1
 547 370 l 1,17,18
 476 404 476 404 476 521 c 2,19,-1
 476 527 l 1,20,21
 481 537 481 537 482 540 c 0,22,23
 472 584 472 584 464 601 c 1,24,25
 441 607 441 607 427 610 c 2,26,-1
 414 612 l 1,27,-1
 384 612 l 2,28,29
 344 609 344 609 316 595 c 2,30,-1
 308 591 l 1,31,-1
 269 599 l 1,32,-1
 260 599 l 1,33,34
 256 577 256 577 256 546 c 0,35,36
 256 494 256 494 259 433 c 1,37,38
 282 427 282 427 338 426 c 1,39,40
 345 441 345 441 352 467 c 1,41,-1
 338 467 l 1,42,-1
 353 499 l 2,43,44
 362 518 362 518 369 526 c 128,-1,45
 376 534 376 534 381.5 538 c 128,-1,46
 387 542 387 542 398 545 c 2,47,-1
 427 545 l 2,48,49
 454 545 454 545 467 509 c 0,50,51
 474 490 474 490 477.5 466.5 c 128,-1,52
 481 443 481 443 484 417 c 1,53,-1
 478 406 l 1,54,-1
 484 393 l 1,55,-1
 477 345 l 1,56,57
 483 245 483 245 483 205 c 2,58,-1
 483 190 l 1,59,-1
 451 173 l 1,60,-1
 394 173 l 1,61,-1
 389 176 l 2,62,63
 351 197 351 197 351 239 c 2,64,-1
 351 241 l 1,65,66
 357 279 357 279 358 303 c 1,67,68
 345 314 345 314 339 316 c 2,69,-1
 338 316 l 2,70,71
 328 316 328 316 316 316 c 0,72,73
 287 316 287 316 271 311 c 0,74,75
 263 309 263 309 261 306 c 0,76,77
 272 281 272 281 272 261 c 2,78,-1
 272 259 l 1,79,-1
 267 235 l 1,80,81
 278 216 278 216 278 201 c 2,82,-1
 278 200 l 1,83,-1
 272 144 l 1,84,-1
 281 134 l 1,85,-1
 323 139 l 1,86,-1
 332 139 l 1,87,88
 395 129 395 129 419 109 c 0,89,90
 427 102 427 102 432 93 c 128,-1,91
 437 84 437 84 437 73 c 2,92,-1
 437 45 l 2,93,94
 435 30 435 30 422 18 c 0,95,96
 413 9 413 9 388 -6 c 1,97,-1
 381 -6 l 2,98,99
 371 -6 371 -6 319 1 c 1,100,101
 243 -13 243 -13 216 -13 c 0,102,103
 208 -13 208 -13 195 -8 c 128,-1,104
 182 -3 182 -3 164 6 c 1,105,106
 146 0 146 0 134 -13 c 2,107,-1
 126 -20 l 1,108,-1
 97 -20 l 2,109,110
 58 -20 58 -20 36 -9 c 0,111,112
 -3 10 -3 10 -3 49 c 2,113,-1
 -3 74 l 2,114,115
 -3 87 -3 87 7 96 c 0,116,117
 13 103 13 103 21 106 c 0,118,119
 51 120 51 120 132 128 c 1,120,-1
 135 141 l 1,121,122
 135 161 135 161 141 195 c 0,123,124
 147 243 147 243 147 471 c 1,125,-1
 114 557 l 1,126,-1
 139 562 l 2,127,128
 142 566 142 566 146 573 c 1,129,130
 141 578 141 578 131 583 c 0,131,132
 100 600 100 600 24 612 c 1,133,-1
 11 615 l 1,134,-1
 -3 643 l 1,135,-1
 -3 674 l 2,136,137
 -3 703 -3 703 47 715 c 1,138,-1
 52 717 l 1,139,-1
 113 706 l 1,140,-1
 118 718 l 1,141,-1
 197 709 l 1,142,-1
 260 716 l 1,143,-1
 304 709 l 1,144,145
 363 716 363 716 396 716 c 2,146,-1
 399 716 l 1,0,-1
147 586 m 1024,147,-1
EndSplineSet
EndChar

StartChar: G
Encoding: 71 71 42
Width: 610
GlyphClass: 2
Flags: W
LayerCount: 2
Fore
SplineSet
388 371 m 1,0,-1
 456 363 l 2,1,2
 471 365 471 365 481 367 c 1,3,-1
 481 382 l 1,4,-1
 510 377 l 2,5,6
 580 365 580 365 606 343 c 0,7,8
 625 326 625 326 625 304 c 2,9,-1
 625 277 l 2,10,11
 625 253 625 253 593 241 c 0,12,13
 574 234 574 234 539 228 c 1,14,15
 539 228 539 228 539 227 c 0,16,17
 548 158 548 158 550 98 c 1,18,-1
 567 98 l 1,19,-1
 554 64 l 2,20,21
 534 9 534 9 504 -5 c 2,22,-1
 499 -7 l 1,23,-1
 494 -7 l 2,24,25
 450 -7 450 -7 418 23 c 1,26,27
 385 3 385 3 361 -20 c 2,28,-1
 319 -60 l 1,29,-1
 319 -11 l 1,30,31
 315 -9 315 -9 310 -8 c 0,32,33
 298 -10 298 -10 278 -14 c 1,34,-1
 275 -14 l 2,35,36
 247 -14 247 -14 211 3 c 0,37,38
 175 19 175 19 126 58 c 1,39,40
 85 103 85 103 67.5 130.5 c 128,-1,41
 50 158 50 158 50 175 c 1,42,43
 46 189 46 189 16 247 c 1,44,-1
 36 280 l 1,45,46
 25 296 25 296 25 311.5 c 128,-1,47
 25 327 25 327 31 360 c 1,48,49
 25 386 25 386 25 412 c 2,50,-1
 25 420 l 1,51,52
 40 438 40 438 48 444 c 1,53,54
 45 461 45 461 30 512 c 1,55,-1
 59 512 l 1,56,57
 73 528 73 528 90 589 c 1,58,59
 138 642 138 642 154.5 659 c 128,-1,60
 171 676 171 676 175 679 c 0,61,62
 185 687 185 687 191 689 c 0,63,64
 235 710 235 710 330 715 c 1,65,-1
 337 715 l 1,66,67
 402 676 402 676 433 669 c 1,68,-1
 463 708 l 1,69,-1
 500 708 l 1,70,-1
 504 708 l 1,71,-1
 508 707 l 2,72,73
 521 703 521 703 529.5 692.5 c 128,-1,74
 538 682 538 682 541 671 c 128,-1,75
 544 660 544 660 544 647 c 0,76,77
 544 643 544 643 531 547 c 1,78,79
 537 463 537 463 537 441 c 2,80,-1
 537 418 l 1,81,-1
 506 418 l 2,82,83
 450 418 450 418 408 517 c 0,84,85
 399 537 399 537 391 561 c 1,86,87
 370 582 370 582 312 612 c 1,88,-1
 251 612 l 1,89,90
 237 577 237 577 183 566 c 1,91,92
 178 556 178 556 169 545 c 1,93,-1
 169 487 l 1,94,-1
 145 487 l 1,95,96
 140 483 140 483 134.5 466.5 c 128,-1,97
 129 450 129 450 125 414 c 1,98,-1
 131 402 l 1,99,-1
 131 336 l 1,100,101
 147 255 147 255 168 220 c 0,102,103
 179 201 179 201 187 201 c 2,104,-1
 212 201 l 1,105,-1
 212 178 l 2,106,107
 212 151 212 151 226.5 141.5 c 128,-1,108
 241 132 241 132 269 132 c 2,109,-1
 309 132 l 1,110,111
 369 146 369 146 387 167 c 0,112,113
 393 174 393 174 393 182 c 2,114,-1
 393 207 l 1,115,-1
 406 207 l 1,116,117
 409 220 409 220 411 243 c 1,118,-1
 410 244 l 1,119,120
 398 238 398 238 387 238 c 2,121,-1
 380 238 l 1,122,123
 370 244 370 244 367 245 c 2,124,-1
 344 245 l 1,125,-1
 344 318 l 2,126,127
 344 338 344 338 366 356 c 0,128,129
 372 361 372 361 388 371 c 1,0,-1
EndSplineSet
EndChar

StartChar: H
Encoding: 72 72 43
Width: 610
GlyphClass: 2
Flags: W
LayerCount: 2
Fore
SplineSet
394 -2 m 2,0,1
 393 -2 393 -2 392 -2 c 0,2,3
 352 -2 352 -2 329 31 c 1,4,5
 316 -5 316 -5 251 -8 c 1,6,-1
 169 -2 l 2,7,8
 125 -2 125 -2 58 -10 c 1,9,-1
 54 -9 l 2,10,11
 14 -2 14 -2 -6 34 c 2,12,-1
 -9 39 l 1,13,-1
 -9 80 l 1,14,-1
 -4 86 l 2,15,16
 24 119 24 119 62 124 c 2,17,-1
 85 128 l 1,18,19
 94 167 94 167 94 177 c 2,20,-1
 94 437 l 1,21,-1
 89 469 l 1,22,-1
 89 587 l 1,23,-1
 62 587 l 2,24,25
 41 587 41 587 24 595 c 0,26,27
 2 604 2 604 -11 626 c 2,28,-1
 -14 632 l 1,29,-1
 -14 656 l 1,30,-1
 -13 659 l 2,31,32
 -7 682 -7 682 12 694.5 c 128,-1,33
 31 707 31 707 60 712 c 1,34,35
 131 711 131 711 163 711 c 128,-1,36
 195 711 195 711 247 714 c 2,37,-1
 253 714 l 2,38,39
 272 714 272 714 286 706 c 0,40,41
 311 693 311 693 317 662 c 0,42,43
 318 656 318 656 318 650 c 0,44,45
 318 621 318 621 293 603 c 2,46,-1
 287 599 l 1,47,-1
 208 592 l 1,48,49
 206 585 206 585 206 575 c 128,-1,50
 206 565 206 565 206 559 c 128,-1,51
 206 553 206 553 206.5 544 c 128,-1,52
 207 535 207 535 207 526 c 0,53,54
 208 508 208 508 210 486 c 1,55,-1
 204 453 l 1,56,-1
 212 420 l 1,57,-1
 235 416 l 2,58,59
 272 412 272 412 312 412 c 128,-1,60
 352 412 352 412 394 416 c 0,61,62
 405 417 405 417 408 418 c 2,63,-1
 408 588 l 1,64,65
 393 593 393 593 369 597 c 1,66,-1
 326 614 l 1,67,-1
 323 626 l 2,68,69
 319 640 319 640 319 651 c 0,70,71
 319 675 319 675 334 691 c 0,72,73
 345 702 345 702 366 708 c 1,74,75
 417 709 417 709 449 709 c 128,-1,76
 481 709 481 709 499 708 c 2,77,-1
 551 708 l 1,78,-1
 552 708 l 2,79,80
 573 707 573 707 589 699 c 0,81,82
 611 688 611 688 619 665 c 2,83,-1
 620 662 l 1,84,-1
 620 648 l 1,85,86
 616 613 616 613 573 598 c 2,87,-1
 568 596 l 1,88,-1
 533 599 l 1,89,-1
 525 592 l 1,90,91
 521 432 521 432 525 311 c 2,92,-1
 527 155 l 1,93,-1
 531 121 l 1,94,-1
 535 120 l 1,95,-1
 587 114 l 1,96,-1
 592 110 l 2,97,98
 617 92 617 92 624 69 c 2,99,-1
 625 66 l 1,100,-1
 625 54 l 1,101,102
 618 8 618 8 573 0 c 0,103,104
 568 -1 568 -1 562 -2 c 2,105,-1
 482 -3 l 1,106,-1
 482 -3 l 1,107,-1
 394 -2 l 2,0,1
211 141 m 2,108,109
 208 116 208 116 213 107 c 0,110,111
 216 104 216 104 224 104 c 128,-1,112
 232 104 232 104 243 105 c 2,113,-1
 248 105 l 1,114,115
 297 95 297 95 322 61 c 1,116,117
 348 103 348 103 406 106 c 1,118,-1
 409 121 l 1,119,-1
 409 304 l 2,120,121
 407 311 407 311 404 314 c 128,-1,122
 401 317 401 317 394 317 c 2,123,-1
 393 317 l 1,124,125
 349 321 349 321 308 321 c 2,126,-1
 307 321 l 2,127,128
 294 322 294 322 269 322 c 128,-1,129
 244 322 244 322 215 317 c 0,130,131
 209 316 209 316 209 301 c 2,132,-1
 209 204 l 1,133,-1
 211 141 l 2,108,109
EndSplineSet
EndChar

StartChar: I
Encoding: 73 73 44
Width: 610
GlyphClass: 2
Flags: W
LayerCount: 2
Fore
SplineSet
220 585 m 2,0,-1
 211 585 l 1,1,2
 182 576 182 576 152 576 c 0,3,4
 131 576 131 576 107 581 c 1,5,-1
 42 607 l 1,6,-1
 42 624 l 1,7,-1
 42 649 l 1,8,-1
 44 653 l 1,9,10
 69 719 69 719 142 719 c 2,11,-1
 248 718 l 1,12,-1
 446 718 l 1,13,-1
 515 708 l 1,14,-1
 521 701 l 2,15,16
 546 674 546 674 546 651 c 0,17,18
 546 626 546 626 520 612 c 2,19,-1
 493 596 l 1,20,21
 458 584 458 584 434 584 c 0,22,23
 422 584 422 584 412.5 587 c 128,-1,24
 403 590 403 590 396 592 c 1,25,26
 379 585 379 585 375 579 c 2,27,-1
 368 535 l 1,28,29
 363 459 363 459 363 451 c 2,30,-1
 363 445 l 2,31,32
 362 287 362 287 368 203 c 0,33,34
 372 151 372 151 372 129 c 1,35,36
 376 127 376 127 379 126 c 2,37,-1
 538 115 l 1,38,-1
 554 48 l 1,39,40
 547 33 547 33 543 27.5 c 128,-1,41
 539 22 539 22 536 18 c 0,42,43
 511 -13 511 -13 471 -13 c 0,44,45
 399 -13 399 -13 309 -6 c 1,46,-1
 170 -13 l 1,47,48
 89 -2 89 -2 67 11 c 0,49,50
 47 22 47 22 47 40 c 2,51,-1
 47 60 l 2,52,53
 47 78 47 78 54 92 c 0,54,55
 63 110 63 110 85 121.5 c 128,-1,56
 107 133 107 133 146 133 c 2,57,-1
 147 133 l 2,58,59
 166 132 166 132 181 132 c 0,60,61
 223 132 223 132 237 139 c 1,62,-1
 238 386 l 1,63,-1
 238 574 l 2,64,65
 235 580 235 580 233 581.5 c 128,-1,66
 231 583 231 583 230 584 c 0,67,68
 226 585 226 585 220 585 c 2,0,-1
EndSplineSet
EndChar

StartChar: J
Encoding: 74 74 45
Width: 610
GlyphClass: 2
Flags: W
LayerCount: 2
Fore
SplineSet
424 705 m 2,0,1
 431 705 431 705 438 702 c 1,2,3
 460 706 460 706 488.5 706 c 128,-1,4
 517 706 517 706 546 705 c 1,5,6
 584 690 584 690 601 674 c 0,7,8
 619 658 619 658 619 638 c 0,9,10
 619 633 619 633 616 623 c 2,11,-1
 612 618 l 2,12,13
 595 598 595 598 566 589 c 2,14,-1
 562 588 l 1,15,-1
 503 586 l 2,16,17
 481 589 481 589 451 589 c 1,18,-1
 448 587 l 1,19,20
 445 571 445 571 445 545 c 0,21,22
 445 536 445 536 445 526 c 2,23,-1
 445 525 l 2,24,25
 443 432 443 432 447 346 c 1,26,-1
 447 345 l 1,27,-1
 447 295 l 2,28,29
 448 231 448 231 448 206 c 0,30,31
 448 139 448 139 424 90 c 0,32,33
 393 27 393 27 323 -6 c 1,34,-1
 321 -8 l 1,35,-1
 279 -17 l 1,36,37
 253 -18 253 -18 234 -18 c 1,38,-1
 234 -18 l 1,39,40
 172 -18 172 -18 129 5 c 0,41,42
 77 29 77 29 53 80 c 1,43,44
 43 86 43 86 35 102 c 128,-1,45
 27 118 27 118 17 159 c 1,46,-1
 19 193 l 1,47,48
 26 225 26 225 45 248 c 0,49,50
 70 276 70 276 113 286 c 2,51,-1
 117 287 l 1,52,53
 142 285 142 285 159 280.5 c 128,-1,54
 176 276 176 276 189 268 c 0,55,56
 225 246 225 246 225 204 c 2,57,-1
 224 185 l 1,58,-1
 223 180 l 1,59,-1
 188 134 l 2,60,61
 187 133 187 133 187 132 c 128,-1,62
 187 131 187 131 188 129 c 128,-1,63
 189 127 189 127 191 124 c 0,64,65
 195 117 195 117 206 108 c 1,66,-1
 236 98 l 1,67,68
 267 99 267 99 285 112 c 2,69,-1
 287 113 l 1,70,-1
 290 115 l 2,71,72
 312 125 312 125 318 175 c 0,73,74
 322 225 322 225 322 258 c 2,75,-1
 322 281 l 2,76,77
 324 309 324 309 324 345 c 128,-1,78
 324 381 324 381 320 430 c 1,79,-1
 320 518 l 1,80,-1
 320 528 l 2,81,82
 320 558 320 558 315 571 c 1,83,84
 297 569 297 569 283 569 c 2,85,-1
 278 569 l 1,86,-1
 252 579 l 1,87,-1
 240 574 l 1,88,-1
 148 591 l 1,89,-1
 148 612 l 1,90,-1
 148 648 l 1,91,-1
 151 654 l 1,92,93
 182 705 182 705 251 705 c 2,94,-1
 295 705 l 2,95,96
 308 705 308 705 321 700 c 1,97,98
 334 705 334 705 347 705 c 2,99,-1
 385 705 l 2,100,101
 390 705 390 705 395 704 c 2,102,-1
 397 705 l 1,103,-1
 424 705 l 2,0,1
EndSplineSet
EndChar

StartChar: K
Encoding: 75 75 46
Width: 610
GlyphClass: 2
Flags: W
LayerCount: 2
Fore
SplineSet
238.5 0 m 128,-1,1
 198 0 198 0 148 5 c 1,2,3
 111 0 111 0 49 0 c 2,4,-1
 46 0 l 1,5,-1
 42 1 l 2,6,7
 19 7 19 7 7 26 c 0,8,9
 -2 39 -2 39 -3 60 c 2,10,-1
 -3 63 l 1,11,12
 1 82 1 82 17 95 c 0,13,14
 40 113 40 113 88 118 c 1,15,-1
 98 130 l 1,16,17
 108 160 108 160 108 227 c 0,18,19
 108 246 108 246 107 267 c 2,20,-1
 107 268 l 2,21,22
 109 396 109 396 105 476 c 0,23,24
 101 560 101 560 101 565.5 c 128,-1,25
 101 571 101 571 97 574 c 0,26,27
 78 590 78 590 12 596 c 2,28,-1
 -11 597 l 1,29,-1
 -11 638 l 2,30,31
 -9 665 -9 665 12 681 c 0,32,33
 27 692 27 692 54 699 c 1,34,35
 93 697 93 697 112 697 c 0,36,37
 120 697 120 697 200 699 c 2,38,-1
 201 699 l 2,39,40
 233 698 233 698 256 691 c 0,41,42
 278 688 278 688 294 667 c 1,43,44
 312 695 312 695 352 695 c 2,45,-1
 403 692 l 1,46,-1
 507 692 l 1,47,-1
 547 700 l 1,48,49
 597 686 597 686 608 652 c 2,50,-1
 610 646 l 1,51,-1
 607 630 l 2,52,53
 603 610 603 610 586 598.5 c 128,-1,54
 569 587 569 587 542 581 c 0,55,56
 525 580 525 580 513.5 580 c 128,-1,57
 502 580 502 580 493 580 c 1,58,59
 487 576 487 576 485 571 c 2,60,-1
 484 565 l 1,61,62
 442 512 442 512 366 423 c 1,63,-1
 345 391 l 1,64,65
 452 215 452 215 516 123 c 1,66,67
 525 124 525 124 534 124 c 0,68,69
 585 124 585 124 615 91 c 1,70,-1
 617 88 l 1,71,-1
 631 59 l 1,72,-1
 631 53 l 2,73,74
 629 32 629 32 617 19 c 0,75,76
 600 0 600 0 571 0 c 2,77,-1
 501 0 l 1,78,79
 488 5 488 5 482 5 c 0,80,81
 470 5 470 5 456 0 c 1,82,-1
 408 0 l 2,83,84
 345 -1 345 -1 319 18 c 2,85,-1
 316 20 l 2,86,87
 311 27 311 27 308 31 c 1,88,0
 279 0 279 0 238.5 0 c 128,-1,1
229 107 m 1,89,-1
 235 99 l 1,90,91
 260 90 260 90 287 87 c 2,92,-1
 303 85 l 1,93,-1
 312 57 l 1,94,95
 320 69 320 69 339 79 c 2,96,-1
 383 93 l 1,97,98
 332 189 332 189 262 297 c 1,99,-1
 253 287 l 2,100,101
 242 279 242 279 236 265 c 128,-1,102
 230 251 230 251 230 229 c 2,103,-1
 229 107 l 1,89,-1
213 601 m 1,104,-1
 213 412 l 1,105,106
 215 413 215 413 217 414 c 2,107,-1
 232 434 l 2,108,109
 256 465 256 465 312 535 c 0,110,111
 343 579 343 579 360 608 c 1,112,113
 344 613 344 613 324 616 c 1,114,-1
 297 638 l 1,115,116
 289 626 289 626 271.5 618.5 c 128,-1,117
 254 611 254 611 222 609 c 1,118,-1
 216 606 l 1,119,-1
 213 601 l 1,104,-1
EndSplineSet
EndChar

StartChar: L
Encoding: 76 76 47
Width: 610
GlyphClass: 2
Flags: W
LayerCount: 2
Fore
SplineSet
119 577 m 1,0,-1
 119 577 l 1,1,2
 94 578 94 578 66 578 c 2,3,-1
 65 578 l 2,4,5
 44 579 44 579 32 586 c 0,6,7
 10 599 10 599 4 623 c 2,8,-1
 3 627 l 1,9,-1
 4 646 l 2,10,11
 6 659 6 659 14 671 c 128,-1,12
 22 683 22 683 39.5 691 c 128,-1,13
 57 699 57 699 85 699 c 0,14,15
 90 699 90 699 95 699 c 2,16,-1
 150 699 l 1,17,-1
 314 702 l 1,18,-1
 314 702 l 1,19,20
 377 702 377 702 408 695 c 0,21,22
 425 691 425 691 432 686 c 0,23,24
 448 675 448 675 451 661 c 2,25,-1
 451 658 l 1,26,-1
 451 649 l 2,27,28
 451 628 451 628 444 612 c 0,29,30
 434 589 434 589 411 579 c 2,31,-1
 406 577 l 1,32,-1
 326 577 l 2,33,34
 311 577 311 577 294 578 c 1,35,36
 291 572 291 572 289 559 c 2,37,-1
 289 532 l 2,38,39
 289 467 289 467 285 380 c 0,40,41
 285 332 285 332 281 212 c 0,42,43
 281 145 281 145 309 141 c 0,44,45
 333 138 333 138 352 138 c 128,-1,46
 371 138 371 138 387 139 c 0,47,48
 393 139 393 139 397 139 c 0,49,50
 416 139 416 139 441 146 c 1,51,-1
 445 146 l 2,52,53
 458 146 458 146 471 179 c 1,54,-1
 477 268 l 1,55,-1
 479 347 l 2,56,57
 482 388 482 388 516 407 c 2,58,-1
 522 410 l 1,59,-1
 555 410 l 1,60,-1
 561 407 l 2,61,62
 596 386 596 386 601 319 c 1,63,-1
 601 138 l 1,64,-1
 599 111 l 2,65,66
 594 58 594 58 570 26 c 2,67,-1
 567 22 l 1,68,-1
 546 9 l 2,69,70
 517 -6 517 -6 470 10 c 1,71,-1
 470 0 l 1,72,-1
 295 4 l 1,73,-1
 287 4 l 1,74,-1
 241 12 l 1,75,-1
 203 10 l 1,76,-1
 146 5 l 1,77,-1
 72 11 l 2,78,79
 38 11 38 11 21 29 c 0,80,81
 13 37 13 37 10 50 c 2,82,-1
 10 95 l 1,83,-1
 19 102 l 2,84,85
 71 139 71 139 160 139 c 2,86,87
 160 139 160 139 161 139 c 2,88,-1
 163 154 l 2,89,90
 164 180 164 180 164 194 c 2,91,-1
 162 303 l 1,92,-1
 160 538 l 1,93,-1
 160 549 l 1,94,-1
 159 569 l 1,95,96
 144 577 144 577 119 577 c 1,0,-1
EndSplineSet
EndChar

StartChar: M
Encoding: 77 77 48
Width: 610
GlyphClass: 2
Flags: W
LayerCount: 2
Fore
SplineSet
431 716 m 0,0,1
 447 722 447 722 466 722 c 0,2,3
 468 722 468 722 470 722 c 2,4,-1
 559 722 l 2,5,6
 597 722 597 722 616 698 c 0,7,8
 624 689 624 689 629 675 c 1,9,-1
 629 650 l 1,10,11
 613 605 613 605 560 605 c 0,12,13
 559 605 559 605 558 605 c 1,14,-1
 558 157 l 2,15,16
 558 151 558 151 558 147 c 0,17,18
 558 122 558 122 568 105 c 1,19,20
 600 96 600 96 613 83 c 128,-1,21
 626 70 626 70 626 55 c 2,22,-1
 626 44 l 2,23,24
 626 24 626 24 611 12 c 0,25,26
 601 3 601 3 583 -2 c 0,27,28
 530 -6 530 -6 489 -6 c 0,29,30
 416 -6 416 -6 379 9 c 2,31,-1
 363 15 l 1,32,-1
 364 98 l 1,33,-1
 386 101 l 2,34,35
 420 106 420 106 442 119 c 1,36,-1
 442 487 l 1,37,-1
 442 508 l 1,38,-1
 406 341 l 2,39,40
 390 253 390 253 373 219 c 0,41,42
 358 188 358 188 334 177 c 2,43,-1
 329 175 l 1,44,-1
 305 175 l 1,45,-1
 300 178 l 2,46,47
 275 190 275 190 259.5 212.5 c 128,-1,48
 244 235 244 235 238 264 c 2,49,-1
 206 400 l 1,50,-1
 173 545 l 1,51,-1
 172 173 l 1,52,-1
 172 148 l 2,53,54
 174 125 174 125 182 115 c 1,55,56
 228 109 228 109 242 83 c 0,57,58
 248 73 248 73 248 61 c 2,59,-1
 248 47 l 2,60,61
 248 38 248 38 245 32 c 128,-1,62
 242 26 242 26 234.5 18 c 128,-1,63
 227 10 227 10 202 -7 c 1,64,-1
 109 -4 l 2,65,66
 99 0 99 0 94.5 0 c 128,-1,67
 90 0 90 0 88 0 c 0,68,69
 83 -1 83 -1 75 -4 c 2,70,-1
 27 -7 l 1,71,-1
 -21 16 l 1,72,-1
 -17 93 l 1,73,74
 18 95 18 95 24.5 96 c 128,-1,75
 31 97 31 97 33.5 97.5 c 128,-1,76
 36 98 36 98 38 98 c 0,77,78
 53 102 53 102 53 105 c 0,79,80
 53 133 53 133 57 153 c 1,81,-1
 57 510 l 1,82,-1
 57 510 l 1,83,84
 58 531 58 531 58 547 c 0,85,86
 58 578 58 578 55 599 c 1,87,88
 31 603 31 603 3 618 c 2,89,-1
 -6 622 l 1,90,-1
 -17 655 l 1,91,-1
 -17 660 l 2,92,93
 -15 680 -15 680 -2 695 c 0,94,95
 8 708 8 708 24 716 c 2,96,-1
 29 718 l 1,97,-1
 124 722 l 2,98,99
 158 721 158 721 173 718 c 128,-1,100
 188 715 188 715 196 712 c 0,101,102
 206 708 206 708 211.5 704 c 128,-1,103
 217 700 217 700 222 696 c 0,104,105
 233 685 233 685 239 674 c 2,106,-1
 251 651 l 1,107,-1
 268 590 l 1,108,-1
 315 394 l 1,109,-1
 339 506 l 1,110,-1
 370 652 l 1,111,112
 388 702 388 702 431 716 c 0,0,1
EndSplineSet
EndChar

StartChar: N
Encoding: 78 78 49
Width: 610
GlyphClass: 2
Flags: W
LayerCount: 2
Fore
SplineSet
293 7 m 1,0,1
 271 -2 271 -2 259 -3 c 0,2,3
 256 -4 256 -4 250.5 -4 c 128,-1,4
 245 -4 245 -4 227 -1 c 0,5,6
 225 -1 225 -1 216.5 -1 c 128,-1,7
 208 -1 208 -1 184 -0.5 c 128,-1,8
 160 0 160 0 125 -1 c 2,9,-1
 34 -1 l 1,10,-1
 30 0 l 2,11,12
 8 7 8 7 -4 24 c 0,13,14
 -12 37 -12 37 -12 55 c 2,15,-1
 -12 58 l 1,16,-1
 -11 61 l 2,17,18
 0 102 0 102 32 108 c 0,19,20
 49 111 49 111 70 113 c 2,21,-1
 87 112 l 2,22,23
 88 112 88 112 88 113 c 0,24,25
 91 119 91 119 92 123 c 0,26,27
 93 132 93 132 95 175 c 2,28,-1
 95 549 l 1,29,-1
 88 575 l 2,30,31
 84 583 84 583 71 587 c 0,32,33
 66 588 66 588 58 589 c 0,34,35
 -1 595 -1 595 -11 635 c 0,36,37
 -13 644 -13 644 -13 654 c 0,38,39
 -13 671 -13 671 -6 680 c 0,40,41
 5 694 5 694 42 705 c 1,42,-1
 178 705 l 1,43,-1
 216 693 l 1,44,-1
 252 663 l 1,45,-1
 296 558 l 1,46,-1
 425 194 l 1,47,-1
 417 584 l 1,48,-1
 416 591 l 1,49,-1
 413 591 l 1,50,-1
 368 596 l 1,51,52
 344 604 344 604 333 620 c 0,53,54
 324 634 324 634 324 652 c 0,55,56
 324 678 324 678 342 693 c 0,57,58
 355 704 355 704 377 708 c 1,59,-1
 379 708 l 1,60,-1
 489 707 l 1,61,-1
 571 707 l 2,62,63
 585 707 585 707 596 704 c 128,-1,64
 607 701 607 701 616 693 c 0,65,66
 631 680 631 680 633 656 c 2,67,-1
 633 653 l 1,68,69
 626 619 626 619 600 609 c 0,70,71
 589 604 589 604 548 600 c 0,72,73
 542 599 542 599 537 596 c 1,74,-1
 536 589 l 1,75,-1
 537 104 l 1,76,-1
 535 47 l 1,77,-1
 517 8 l 1,78,-1
 478 -8 l 1,79,-1
 473 -8 l 2,80,81
 432 -8 432 -8 409 10 c 0,82,83
 400 19 400 19 390 32 c 0,84,85
 363 76 363 76 294 268 c 0,86,87
 226 457 226 457 221 467 c 0,88,89
 215 491 215 491 209 510 c 1,90,-1
 209 349 l 1,91,-1
 213 143 l 2,92,93
 215 131 215 131 219 126 c 0,94,95
 223 122 223 122 226 120 c 2,96,-1
 277 110 l 1,97,-1
 280 108 l 2,98,99
 308 92 308 92 311 55 c 2,100,-1
 311 53 l 2,101,102
 310 38 310 38 308 31.5 c 128,-1,103
 306 25 306 25 293 7 c 1,0,1
89 96 m 1024,104,-1
EndSplineSet
EndChar

StartChar: O
Encoding: 79 79 50
Width: 610
GlyphClass: 2
Flags: W
LayerCount: 2
Fore
SplineSet
289 720 m 0,0,1
 308 720 308 720 313 719 c 0,2,3
 419 702 419 702 456 656 c 1,4,5
 521 591 521 591 558 486 c 0,6,7
 568 451 568 451 575 340 c 1,8,-1
 575 339 l 2,9,10
 575 326 575 326 573 297 c 0,11,12
 572 269 572 269 563 231 c 0,13,14
 557 208 557 208 542 181 c 1,15,-1
 552 179 l 1,16,-1
 533 136 l 1,17,18
 463 29 463 29 341 -4 c 0,19,20
 326 -7 326 -7 301 -7 c 128,-1,21
 276 -7 276 -7 261 -5 c 0,22,23
 246 -2 246 -2 233 4 c 0,24,25
 169 17 169 17 109 88 c 1,26,27
 51 144 51 144 24 311 c 0,28,29
 24 315 24 315 24 323.5 c 128,-1,30
 24 332 24 332 22 378 c 1,31,32
 33 557 33 557 130 652 c 1,33,-1
 134 650 l 1,34,35
 168 664 168 664 179 672 c 1,36,37
 196 720 196 720 289 720 c 0,0,1
304 596 m 0,38,39
 253 596 253 596 223 575 c 1,40,-1
 187 535 l 1,41,-1
 170 495 l 2,42,43
 169 485 169 485 165 472 c 0,44,45
 157 441 157 441 154 390 c 2,46,-1
 155 332 l 1,47,-1
 154 326 l 1,48,49
 157 283 157 283 175 225 c 1,50,51
 205 162 205 162 269 145 c 1,52,-1
 297 141 l 2,53,54
 304 140 304 140 307 140 c 0,55,56
 331 140 331 140 352 148 c 256,57,58
 373 156 373 156 391 174 c 2,59,-1
 421 214 l 1,60,61
 427 233 427 233 433 244 c 0,62,63
 445 282 445 282 445 310 c 0,64,65
 442 484 442 484 388 539 c 2,66,-1
 386 541 l 1,67,-1
 385 547 l 1,68,69
 360 579 360 579 311 596 c 0,70,71
 308 596 308 596 304 596 c 0,38,39
EndSplineSet
EndChar

StartChar: P
Encoding: 80 80 51
Width: 610
GlyphClass: 2
Flags: W
LayerCount: 2
Fore
SplineSet
133 702 m 2,0,-1
 151 701 l 2,1,2
 183 698 183 698 198 691 c 1,3,4
 226 694 226 694 230 694 c 0,5,6
 242 694 242 694 249 693 c 2,7,-1
 354 694 l 2,8,9
 360 694 360 694 365 692 c 2,10,-1
 369 693 l 1,11,-1
 391 691 l 1,12,-1
 408 688 l 1,13,-1
 409 692 l 1,14,-1
 434 688 l 2,15,16
 448 685 448 685 468 672.5 c 128,-1,17
 488 660 488 660 521 632 c 1,18,19
 552 590 552 590 571 560 c 0,20,21
 585 536 585 536 596 480 c 1,22,-1
 593 436 l 1,23,24
 583 359 583 359 513 295 c 0,25,26
 497 280 497 280 473 270 c 128,-1,27
 449 260 449 260 415 253 c 0,28,29
 402 252 402 252 394 252 c 0,30,31
 372 252 372 252 360 259 c 0,32,33
 355 258 355 258 352 256 c 2,34,-1
 348 231 l 1,35,-1
 310 253 l 1,36,-1
 309 253 l 2,37,38
 307 253 307 253 302.5 253 c 128,-1,39
 298 253 298 253 279 250 c 1,40,41
 279 177 279 177 291 144 c 0,42,43
 296 130 296 130 301 126 c 1,44,-1
 334 129 l 1,45,-1
 362 127 l 1,46,-1
 386 111 l 1,47,-1
 396 115 l 1,48,-1
 407 110 l 2,49,50
 424 102 424 102 432 94 c 0,51,52
 444 83 444 83 444 70 c 0,53,54
 444 69 444 69 442 48 c 1,55,-1
 437 42 l 2,56,57
 388 -11 388 -11 348 -11 c 0,58,59
 346 -11 346 -11 343 -11 c 0,60,61
 336 -10 336 -10 316 -10 c 0,62,63
 280 -10 280 -10 211 -12 c 1,64,-1
 157 -1 l 2,65,66
 153 -3 153 -3 143 -7 c 1,67,68
 92 -4 92 -4 64 3 c 0,69,70
 -1 19 -1 19 -1 60 c 0,71,72
 -1 62 -1 62 2 99 c 1,73,-1
 11 106 l 2,74,75
 48 132 48 132 86 132 c 0,76,77
 87 132 87 132 112 131 c 1,78,79
 123 137 123 137 132.5 137 c 128,-1,80
 142 137 142 137 148 135 c 1,81,-1
 152 139 l 2,82,83
 157 146 157 146 160 162 c 2,84,-1
 160 274 l 2,85,86
 161 284 161 284 161 325 c 2,87,-1
 160 385 l 2,88,89
 160 431 160 431 162 445 c 0,90,91
 164 460 164 460 167 469 c 1,92,-1
 154 470 l 1,93,-1
 168 537 l 1,94,-1
 171 565 l 1,95,-1
 166 589 l 1,96,97
 93 594 93 594 65 605 c 0,98,99
 45 614 45 614 40 631 c 0,100,101
 39 634 39 634 39 637 c 256,102,103
 39 640 39 640 42 657 c 1,104,-1
 48 662 l 2,105,106
 95 702 95 702 133 702 c 2,0,-1
313 604 m 1,107,-1
 288 600 l 1,108,109
 291 571 291 571 291 534 c 128,-1,110
 291 497 291 497 290 463 c 2,111,-1
 290 455 l 2,112,113
 290 452 290 452 290 446 c 0,114,115
 290 433 290 433 293 398 c 2,116,-1
 293 397 l 2,117,118
 293 387 293 387 298 383 c 0,119,120
 306 378 306 378 323 378 c 0,121,122
 334 378 334 378 350 381 c 2,123,-1
 371 381 l 1,124,125
 438 389 438 389 448 424 c 2,126,-1
 451 434 l 1,127,-1
 449 451 l 1,128,129
 451 476 451 476 465 502 c 1,130,131
 458 571 458 571 376 602 c 1,132,133
 352 601 352 601 313 604 c 1,107,-1
EndSplineSet
EndChar

StartChar: Q
Encoding: 81 81 52
Width: 610
GlyphClass: 2
Flags: W
LayerCount: 2
Fore
SplineSet
40 272 m 2,0,1
 40 279 40 279 42 284 c 0,2,3
 34 306 34 306 34 330 c 2,4,-1
 34 349 l 1,5,-1
 34 350 l 1,6,7
 39 540 39 540 133 635 c 0,8,9
 195 699 195 699 290 717 c 0,10,11
 307 719 307 719 319 719 c 2,12,-1
 336 719 l 1,13,14
 391 703 391 703 433 675 c 1,15,-1
 478 622 l 1,16,17
 549 545 549 545 563 338 c 0,18,19
 564 329 564 329 564 323.5 c 128,-1,20
 564 318 564 318 564 316 c 0,21,22
 564 251 564 251 537 176 c 1,23,24
 499 101 499 101 469 67 c 0,25,26
 453 50 453 50 439 41 c 2,27,-1
 434 39 l 1,28,-1
 434 38 l 1,29,30
 436 38 436 38 437 37 c 0,31,32
 448 44 448 44 469 61 c 1,33,-1
 510 61 l 2,34,35
 519 61 519 61 528 56 c 2,36,-1
 539 46 l 2,37,38
 550 36 550 36 572 7 c 1,39,-1
 572 -21 l 2,40,41
 572 -65 572 -65 546 -94 c 0,42,43
 530 -111 530 -111 505 -122 c 1,44,45
 493 -148 493 -148 453 -148 c 2,46,-1
 449 -148 l 1,47,48
 391 -131 391 -131 360 -109 c 0,49,50
 338 -93 338 -93 328 -73 c 0,51,52
 327 -73 327 -73 303 -73 c 1,53,-1
 303 -37 l 1,54,-1
 300 -12 l 1,55,56
 289 -11 289 -11 278 -8 c 1,57,58
 266 -12 266 -12 253 -12 c 2,59,-1
 226 -12 l 1,60,61
 183 20 183 20 157 42 c 0,62,63
 94 96 94 96 84 131 c 1,64,65
 73 140 73 140 65 163 c 0,66,67
 53 196 53 196 40 271 c 1,68,-1
 40 272 l 2,0,1
170 231 m 0,69,70
 179 203 179 203 189 194 c 1,71,72
 215 231 215 231 297 231 c 0,73,74
 339 231 339 231 392 180 c 1,75,76
 412 195 412 195 429 252 c 1,77,78
 443 337 443 337 444 370 c 0,79,80
 444 382 444 382 443 395 c 0,81,82
 434 464 434 464 404 538 c 1,83,84
 365 609 365 609 311 619 c 1,85,86
 276 614 276 614 251 599 c 0,87,88
 219 578 219 578 200 537 c 1,89,90
 170 490 170 490 157 378 c 1,91,-1
 157 302 l 1,92,93
 162 255 162 255 170 231 c 0,69,70
305 85 m 1,94,-1
 305 108 l 2,95,96
 303 111 303 111 299 113 c 2,97,-1
 291 115 l 1,98,-1
 278 96 l 1,99,100
 286 89 286 89 297 82 c 0,101,102
 301 84 301 84 305 85 c 1,94,-1
EndSplineSet
EndChar

StartChar: R
Encoding: 82 82 53
Width: 610
GlyphClass: 2
Flags: W
LayerCount: 2
Fore
SplineSet
102 391 m 128,-1,1
 102 467 102 467 100 568 c 1,2,3
 94 567 94 567 87 567 c 0,4,5
 25 567 25 567 1 604 c 2,6,-1
 -1 607 l 1,7,8
 -3 621 -3 621 -3 629 c 0,9,10
 -3 646 -3 646 6 658 c 2,11,-1
 7 660 l 1,12,-1
 47 692 l 1,13,-1
 71 692 l 1,14,-1
 102 687 l 1,15,16
 131 697 131 697 272 700 c 0,17,18
 283 700 283 700 293 700 c 0,19,20
 378 700 378 700 435 680 c 128,-1,21
 492 660 492 660 518 617 c 2,22,-1
 538 583 l 1,23,-1
 558 537 l 1,24,-1
 558 485 l 1,25,26
 534 390 534 390 445 340 c 1,27,-1
 449 336 l 2,28,29
 491 291 491 291 498 221 c 1,30,31
 508 170 508 170 518 137 c 1,32,-1
 523 129 l 2,33,34
 525 127 525 127 529 127 c 256,35,36
 533 127 533 127 536 127 c 0,37,38
 560 141 560 141 582 141 c 0,39,40
 601 141 601 141 616 130 c 0,41,42
 627 122 627 122 634 108 c 2,43,-1
 636 104 l 1,44,-1
 641 69 l 1,45,-1
 640 64 l 2,46,47
 632 30 632 30 603 10 c 0,48,49
 581 -5 581 -5 548 -11 c 0,50,51
 532 -12 532 -12 520 -12 c 0,52,53
 501 -12 501 -12 480 -11 c 1,54,-1
 448 3 l 2,55,56
 406 21 406 21 383 94 c 1,57,58
 371 181 371 181 351 238 c 1,59,-1
 316 286 l 1,60,-1
 295 300 l 2,61,62
 289 300 289 300 280 300 c 0,63,64
 259 300 259 300 233 295 c 1,65,-1
 231 295 l 1,66,67
 227 285 227 285 227 266 c 2,68,-1
 226 124 l 2,69,70
 226 121 226 121 229 118.5 c 128,-1,71
 232 116 232 116 242.5 113.5 c 128,-1,72
 253 111 253 111 266 111 c 0,73,74
 282 111 282 111 308 112 c 1,75,-1
 333 59 l 1,76,77
 326 41 326 41 320.5 32.5 c 128,-1,78
 315 24 315 24 307 16 c 256,79,80
 299 8 299 8 286.5 3 c 128,-1,81
 274 -2 274 -2 261 -2 c 2,82,-1
 260 -2 l 1,83,84
 153 3 153 3 142.5 3 c 128,-1,85
 132 3 132 3 72 4 c 2,86,-1
 27 4 l 1,87,-1
 -15 41 l 1,88,-1
 -12 77 l 2,89,90
 -9 93 -9 93 0 103 c 128,-1,91
 9 113 9 113 20 118 c 0,92,93
 39 126 39 126 65 126 c 0,94,95
 69 126 69 126 74 126 c 0,96,97
 87 128 87 128 92.5 131.5 c 128,-1,98
 98 135 98 135 98 140 c 0,99,0
 102 315 102 315 102 391 c 128,-1,1
231 571 m 1,100,-1
 225 510 l 1,101,102
 237 458 237 458 237 446 c 2,103,-1
 237 441 l 1,104,-1
 233 432 l 2,105,106
 235 431 235 431 239 431 c 2,107,-1
 241 431 l 1,108,109
 274 425 274 425 289 424 c 1,110,111
 317 430 317 430 348 431 c 1,112,113
 383 446 383 446 409 474 c 0,114,115
 422 493 422 493 422 527 c 1,116,117
 416 574 416 574 390 592 c 0,118,119
 376 603 376 603 350 605 c 0,120,121
 320 608 320 608 302 608 c 0,122,123
 274 608 274 608 257 606 c 0,124,125
 235 600 235 600 226 594 c 1,126,-1
 231 571 l 1,100,-1
EndSplineSet
EndChar

StartChar: S
Encoding: 83 83 54
Width: 610
GlyphClass: 2
Flags: W
LayerCount: 2
Fore
SplineSet
512 611 m 2,0,-1
 512 600 l 1,1,2
 525 485 525 485 525 472 c 2,3,-1
 525 466 l 1,4,-1
 522 460 l 2,5,6
 510 441 510 441 490 436 c 2,7,-1
 487 435 l 1,8,-1
 468 435 l 1,9,-1
 464 436 l 2,10,11
 438 444 438 444 421 464 c 128,-1,12
 404 484 404 484 395.5 511 c 128,-1,13
 387 538 387 538 385 574 c 1,14,15
 365 595 365 595 333 606 c 1,16,17
 303 611 303 611 298.5 611.5 c 128,-1,18
 294 612 294 612 292 612 c 0,19,20
 278 612 278 612 262 608 c 0,21,22
 228 600 228 600 209 585 c 0,23,24
 186 566 186 566 182 534 c 0,25,26
 181 520 181 520 181 517 c 0,27,28
 181 496 181 496 213 476 c 0,29,30
 262 444 262 444 379 418 c 1,31,32
 437 401 437 401 473 369 c 0,33,34
 520 327 520 327 537 268 c 1,35,-1
 542 237 l 2,36,37
 544 224 544 224 544 212 c 128,-1,38
 544 200 544 200 542 189 c 0,39,40
 535 116 535 116 472 51 c 1,41,42
 421 7 421 7 365 3 c 1,43,44
 355 -2 355 -2 313 -8 c 1,45,46
 241 -5 241 -5 201 10 c 0,47,48
 172 21 172 21 157 38 c 1,49,-1
 154 38 l 1,50,-1
 116 3 l 1,51,-1
 77 3 l 1,52,-1
 72 5 l 2,53,54
 49 16 49 16 38 38 c 0,55,56
 31 55 31 55 31 76 c 2,57,-1
 31 78 l 1,58,59
 40 139 40 139 44 239 c 1,60,-1
 44 289 l 2,61,62
 46 303 46 303 53 312 c 0,63,64
 64 326 64 326 82 326 c 2,65,-1
 99 326 l 1,66,-1
 104 324 l 2,67,68
 128 313 128 313 149 277.5 c 128,-1,69
 170 242 170 242 192 176 c 1,70,71
 220 134 220 134 271 131 c 2,72,-1
 283 131 l 1,73,74
 363 135 363 135 392 171 c 0,75,76
 402 184 402 184 406 202 c 1,77,-1
 406 209 l 2,78,79
 407 216 407 216 407 222 c 0,80,81
 407 255 407 255 383 279 c 0,82,83
 364 299 364 299 326 313 c 0,84,85
 302 321 302 321 282 327 c 0,86,87
 200 351 200 351 127 396 c 0,88,89
 64 434 64 434 64 528 c 0,90,91
 64 546 64 546 65 551 c 0,92,93
 75 601 75 601 107 637.5 c 128,-1,94
 139 674 139 674 190 696 c 0,95,96
 227 713 227 713 278 717 c 0,97,98
 284 717 284 717 292 717 c 0,99,100
 354 717 354 717 402 690 c 1,101,102
 415 712 415 712 437 718 c 2,103,-1
 440 719 l 1,104,-1
 463 719 l 1,105,-1
 469 716 l 2,106,107
 494 702 494 702 505 678 c 0,108,109
 514 660 514 660 514 637 c 0,110,111
 514 632 514 632 512 611 c 2,0,-1
EndSplineSet
EndChar

StartChar: T
Encoding: 84 84 55
Width: 610
GlyphClass: 2
Flags: W
LayerCount: 2
Fore
SplineSet
203 705 m 2,0,-1
 222 705 l 2,1,2
 236 705 236 705 270 704 c 1,3,-1
 281 707 l 2,4,5
 301 710 301 710 319.5 710 c 128,-1,6
 338 710 338 710 355 705 c 1,7,-1
 453 718 l 1,8,9
 542 706 542 706 546 648 c 1,10,-1
 548 640 l 2,11,12
 553 622 553 622 559 565 c 2,13,-1
 571 474 l 1,14,-1
 581 407 l 1,15,-1
 581 403 l 1,16,17
 572 349 572 349 531 345 c 1,18,-1
 530 345 l 1,19,-1
 502 345 l 1,20,-1
 496 349 l 2,21,22
 458 373 458 373 450 405 c 0,23,24
 443 430 443 430 440 456 c 2,25,-1
 434 502 l 1,26,-1
 428 560 l 2,27,28
 424 599 424 599 403 604 c 0,29,30
 399 606 399 606 395 606 c 0,31,32
 370 606 370 606 360 598 c 0,33,34
 353 593 353 593 353 581 c 0,35,36
 354 376 354 376 355 330 c 2,37,-1
 355 329 l 1,38,-1
 355 329 l 1,39,40
 354 301 354 301 354 271 c 128,-1,41
 354 241 354 241 356 214 c 2,42,-1
 359 174 l 1,43,-1
 365 140 l 2,44,45
 369 138 369 138 377 138 c 0,46,47
 431 137 431 137 468 132 c 0,48,49
 499 129 499 129 519 116 c 0,50,51
 532 106 532 106 539 91.5 c 128,-1,52
 546 77 546 77 546 60 c 0,53,54
 546 54 546 54 544 38 c 1,55,-1
 499 2 l 1,56,57
 407 11 407 11 392 16 c 1,58,-1
 346 10 l 2,59,60
 302 3 302 3 265 3 c 2,61,-1
 264 3 l 1,62,63
 159 10 159 10 122 10 c 2,64,-1
 119 10 l 1,65,66
 94 15 94 15 80 27 c 0,67,68
 60 44 60 44 60 72 c 0,69,70
 60 73 60 73 60 73.5 c 128,-1,71
 60 74 60 74 60 75 c 0,72,73
 60 89 60 89 66.5 100 c 128,-1,74
 73 111 73 111 81 117 c 0,75,76
 106 136 106 136 160 140 c 1,77,-1
 161 140 l 2,78,79
 188 140 188 140 218 141 c 0,80,81
 221 141 221 141 224 144 c 0,82,83
 229 151 229 151 233.5 170 c 128,-1,84
 238 189 238 189 238 227 c 0,85,86
 238 235 238 235 238 245 c 1,87,-1
 238 245 l 1,88,89
 237 360 237 360 234 506 c 2,90,-1
 234 582 l 2,91,92
 234 585 234 585 234 586 c 0,93,94
 234 596 234 596 229 599 c 128,-1,95
 224 602 224 602 211.5 602 c 128,-1,96
 199 602 199 602 190 599 c 0,97,98
 165 588 165 588 165 537 c 0,99,100
 165 527 165 527 153 436 c 1,101,-1
 153 394 l 1,102,103
 130 354 130 354 115 345 c 0,104,105
 107 339 107 339 97 339 c 2,106,-1
 85 339 l 1,107,108
 57 352 57 352 47.5 358.5 c 128,-1,109
 38 365 38 365 33 371.5 c 128,-1,110
 28 378 28 378 28 387 c 2,111,-1
 28 403 l 1,112,113
 39 442 39 442 39 496 c 0,114,115
 39 501 39 501 39 506 c 2,116,-1
 39 507 l 1,117,-1
 48 623 l 1,118,-1
 54 675 l 1,119,-1
 86 696 l 1,120,121
 126 705 126 705 203 705 c 2,0,-1
EndSplineSet
EndChar

StartChar: U
Encoding: 85 85 56
Width: 610
GlyphClass: 2
Flags: W
LayerCount: 2
Fore
SplineSet
205 572 m 2,0,-1
 205 488 l 2,1,2
 205 472 205 472 201 463 c 1,3,-1
 205 440 l 1,4,5
 200 357 200 357 200 337 c 1,6,-1
 200 337 l 1,7,8
 199 279 199 279 200 253 c 1,9,-1
 200 253 l 1,10,-1
 200 215 l 1,11,12
 206 171 206 171 224 147 c 0,13,14
 246 119 246 119 288 116 c 0,15,16
 291 116 291 116 292 116 c 0,17,18
 346 116 346 116 374 154 c 0,19,20
 386 171 386 171 394 197 c 1,21,22
 399 236 399 236 399 250 c 2,23,-1
 399 274 l 1,24,-1
 401 574 l 2,25,26
 401 579 401 579 400 582 c 0,27,28
 392 583 392 583 381 583 c 2,29,-1
 379 583 l 1,30,-1
 377 583 l 1,31,32
 323 592 323 592 311 626 c 2,33,-1
 310 629 l 1,34,-1
 310 642 l 1,35,-1
 310 643 l 2,36,37
 311 663 311 663 330 677 c 0,38,39
 356 695 356 695 422 698 c 2,40,-1
 423 698 l 2,41,42
 491 698 491 698 528 694 c 0,43,44
 570 690 570 690 582 682 c 2,45,-1
 609 665 l 1,46,47
 615 650 615 650 615.5 644.5 c 128,-1,48
 616 639 616 639 616 635 c 0,49,50
 616 617 616 617 605 604 c 0,51,52
 596 594 596 594 583 588 c 2,53,-1
 578 586 l 1,54,-1
 572 586 l 2,55,56
 555 586 555 586 525 581 c 0,57,58
 520 580 520 580 519 578.5 c 128,-1,59
 518 577 518 577 518 574 c 2,60,-1
 518 542 l 2,61,62
 518 527 518 527 518 511 c 2,63,-1
 518 364 l 2,64,65
 518 360 518 360 519 333 c 2,66,-1
 519 332 l 2,67,68
 520 288 520 288 520 256 c 1,69,-1
 520 256 l 1,70,71
 518 146 518 146 483 82 c 0,72,73
 443 8 443 8 368 -8 c 0,74,75
 333 -16 333 -16 294 -16 c 0,76,77
 279 -16 279 -16 275 -16 c 0,78,79
 160 -2 160 -2 125 51 c 1,80,81
 90 96 90 96 84 155 c 0,82,83
 80 183 80 183 80 191 c 128,-1,84
 80 199 80 199 80 204 c 128,-1,85
 80 209 80 209 80 212 c 2,86,-1
 84 377 l 1,87,-1
 87 567 l 1,88,89
 83 583 83 583 30 584 c 2,90,-1
 18 584 l 1,91,-1
 -11 619 l 1,92,93
 -11 628 -11 628 -11 629 c 0,94,95
 -11 663 -11 663 12 680 c 0,96,97
 26 690 26 690 47 693 c 2,98,-1
 70 693 l 1,99,-1
 106 695 l 1,100,-1
 186 695 l 1,101,-1
 239 693 l 2,102,103
 258 693 258 693 273 685 c 0,104,105
 292 675 292 675 302 656 c 2,106,-1
 305 651 l 1,107,-1
 305 635 l 2,108,109
 305 624 305 624 299.5 613 c 128,-1,110
 294 602 294 602 280 594 c 2,111,-1
 277 593 l 2,112,113
 255 586 255 586 225 586 c 0,114,115
 222 586 222 586 219 586 c 0,116,117
 209 584 209 584 207 579 c 0,118,119
 206 576 206 576 205 572 c 2,0,-1
EndSplineSet
EndChar

StartChar: V
Encoding: 86 86 57
Width: 610
GlyphClass: 2
Flags: W
LayerCount: 2
Fore
SplineSet
239 712 m 1,0,1
 297 697 297 697 297 654 c 0,2,3
 297 640 297 640 289 625 c 2,4,-1
 286 618 l 1,5,-1
 255 600 l 1,6,-1
 248 600 l 2,7,8
 241 600 241 600 213 593 c 1,9,10
 265 314 265 314 299 194 c 1,11,12
 333 292 333 292 382 470 c 0,13,14
 400 536 400 536 415 595 c 1,15,16
 392 604 392 604 351 611 c 2,17,-1
 335 614 l 1,18,-1
 325 656 l 1,19,-1
 326 662 l 2,20,21
 335 705 335 705 400 712 c 0,22,23
 410 713 410 713 429.5 713 c 128,-1,24
 449 713 449 713 469 711 c 128,-1,25
 489 709 489 709 500 709 c 128,-1,26
 511 709 511 709 562 713 c 0,27,28
 580 711 580 711 587 708 c 0,29,30
 599 704 599 704 606 699 c 0,31,32
 618 692 618 692 625 681 c 128,-1,33
 632 670 632 670 634 655 c 0,34,35
 631 596 631 596 539 591 c 1,36,37
 474 405 474 405 369 34 c 1,38,39
 345 -14 345 -14 298 -14 c 0,40,41
 284 -14 284 -14 274 -11 c 0,42,43
 260 -6 260 -6 241 2 c 1,44,-1
 210 69 l 1,45,-1
 97 534 l 1,46,-1
 80 579 l 1,47,48
 66 596 66 596 23 596 c 0,49,50
 19 596 19 596 1 595 c 1,51,-1
 -23 628 l 1,52,-1
 -23 654 l 1,53,-1
 -23 655 l 1,54,55
 -19 684 -19 684 8 698 c 0,56,57
 25 707 25 707 51 709 c 0,58,59
 132 715 132 715 184 715 c 0,60,61
 214 715 214 715 237 713 c 1,62,-1
 239 712 l 1,0,1
EndSplineSet
EndChar

StartChar: W
Encoding: 87 87 58
Width: 610
GlyphClass: 2
Flags: W
LayerCount: 2
Fore
SplineSet
636 679 m 2,0,-1
 636 614 l 1,1,-1
 614 611 l 1,2,3
 568 610 568 610 567 606 c 2,4,-1
 476 21 l 2,5,6
 471 5 471 5 461 -4 c 0,7,8
 444 -15 444 -15 418 -15 c 0,9,10
 400 -15 400 -15 380 -8 c 1,11,-1
 375 -5 l 1,12,-1
 371 -8 l 1,13,14
 341 27 341 27 333 76 c 2,15,-1
 325 123 l 2,16,17
 306 217 306 217 298 264 c 1,18,-1
 294 248 l 1,19,20
 271 136 271 136 260 68 c 0,21,22
 250 12 250 12 230 -9 c 0,23,24
 223 -14 223 -14 213 -17 c 0,25,26
 203 -19 203 -19 192 -19 c 0,27,28
 191 -19 191 -19 189 -19 c 0,29,30
 127 -15 127 -15 115 62 c 2,31,-1
 82 319 l 1,32,-1
 40 596 l 1,33,-1
 38 595 l 2,34,35
 34 597 34 597 23 599 c 0,36,37
 12 604 12 604 -5 608 c 2,38,-1
 -24 613 l 1,39,-1
 -24 675 l 2,40,41
 -21 694 -21 694 28 701 c 0,42,43
 61 709 61 709 102 709 c 0,44,45
 178 709 178 709 207 692 c 1,46,47
 229 684 229 684 229 671 c 0,48,49
 229 654 229 654 223 635 c 2,50,-1
 219 612 l 1,51,-1
 158 589 l 1,52,53
 168 489 168 489 196 314 c 2,54,-1
 198 300 l 1,55,56
 223 412 223 412 250 520 c 1,57,58
 264 544 264 544 293 550 c 1,59,-1
 298 550 l 1,60,-1
 315 549 l 2,61,62
 335 546 335 546 347 537 c 0,63,64
 359 526 359 526 365 511 c 0,65,66
 371 495 371 495 374 473 c 2,67,-1
 407 284 l 1,68,69
 453 594 453 594 454 597 c 0,70,71
 454 599 454 599 454 602 c 1,72,73
 454 598 454 598 453 592 c 1,74,75
 444 598 444 598 406 604 c 2,76,-1
 396 606 l 1,77,-1
 376 649 l 1,78,79
 375 668 375 668 375 674 c 0,80,81
 375 682 375 682 383 687 c 0,82,83
 395 697 395 697 419 702 c 0,84,85
 443 708 443 708 483 708 c 0,86,87
 487 708 487 708 492 708 c 2,88,-1
 544 708 l 1,89,90
 606 703 606 703 624 689 c 0,91,92
 634 685 634 685 636 679 c 2,0,-1
EndSplineSet
EndChar

StartChar: X
Encoding: 88 88 59
Width: 610
GlyphClass: 2
Flags: W
LayerCount: 2
Fore
SplineSet
255 117 m 1,0,-1
 255 115 l 1,1,2
 282 104 282 104 310 70 c 1,3,4
 325 90 325 90 356 103 c 2,5,-1
 367 108 l 1,6,7
 337 196 337 196 315 245 c 1,8,-1
 303 220 l 2,9,10
 281 174 281 174 255 117 c 1,0,-1
522 2 m 2,11,-1
 448 2 l 2,12,13
 427 0 427 0 415.5 0 c 128,-1,14
 404 0 404 0 399.5 0 c 128,-1,15
 395 0 395 0 390.5 0.5 c 128,-1,16
 386 1 386 1 382 1.5 c 128,-1,17
 378 2 378 2 374 2.5 c 128,-1,18
 370 3 370 3 366.5 3.5 c 128,-1,19
 363 4 363 4 359 4 c 0,20,21
 325 11 325 11 307 30 c 1,22,23
 294 19 294 19 261 13.5 c 128,-1,24
 228 8 228 8 175 8 c 0,25,26
 72 8 72 8 25 13 c 0,27,28
 18 14 18 14 5 19 c 1,29,-1
 -12 38 l 1,30,31
 -17 50 -17 50 -17 58 c 0,32,33
 -17 74 -17 74 -7 90 c 2,34,-1
 -4 95 l 1,35,-1
 29 117 l 1,36,-1
 83 127 l 1,37,-1
 92 126 l 2,38,39
 107 126 107 126 117 133 c 0,40,41
 126 140 126 140 134 154 c 0,42,43
 162 197 162 197 194 260 c 2,44,-1
 244 352 l 2,45,46
 247 364 247 364 251 371 c 1,47,-1
 211 455 l 1,48,-1
 171 529 l 2,49,50
 144 584 144 584 123 595 c 1,51,52
 87 597 87 597 62 597 c 2,53,-1
 49 597 l 1,54,-1
 24 634 l 1,55,-1
 28 660 l 2,56,57
 31 674 31 674 39.5 686 c 128,-1,58
 48 698 48 698 61 705 c 2,59,-1
 66 708 l 1,60,-1
 113 712 l 2,61,62
 128 711 128 711 140 711 c 2,63,-1
 190 715 l 1,64,-1
 192 715 l 2,65,66
 266 715 266 715 297 695 c 0,67,68
 318 685 318 685 323 664 c 1,69,70
 334 699 334 699 386 709 c 0,71,72
 407 710 407 710 433.5 710 c 128,-1,73
 460 710 460 710 496 706 c 1,74,75
 510 709 510 709 524 709 c 0,76,77
 549 709 549 709 575 701 c 2,78,-1
 582 699 l 1,79,-1
 611 668 l 1,80,-1
 608 632 l 1,81,82
 602 621 602 621 597.5 617.5 c 128,-1,83
 593 614 593 614 590 612 c 128,-1,84
 587 610 587 610 584 608 c 128,-1,85
 581 606 581 606 577 604 c 0,86,87
 571 601 571 601 557 596 c 1,88,89
 523 598 523 598 508 599 c 1,90,91
 491 591 491 591 479 559 c 1,92,93
 392 393 392 393 391 389 c 0,94,95
 395 341 395 341 444 250 c 1,96,97
 475 180 475 180 506 150 c 0,98,99
 525 131 525 131 542 131 c 2,100,-1
 543 131 l 2,101,102
 611 128 611 128 631 82 c 2,103,-1
 633 77 l 1,104,-1
 633 52 l 1,105,-1
 629 46 l 2,106,107
 619 30 619 30 603 20 c 0,108,109
 574 2 574 2 526 2 c 0,110,111
 524 2 524 2 522 2 c 2,11,-1
367 575 m 2,112,-1
 383 615 l 1,113,114
 349 623 349 623 326 651 c 2,115,-1
 321 658 l 1,116,-1
 321 666 l 1,117,118
 318 657 318 657 311 646 c 2,119,-1
 305 638 l 1,120,-1
 255 625 l 1,121,122
 289 536 289 536 322 488 c 1,123,124
 328 496 328 496 340 518 c 0,125,126
 359 555 359 555 367 575 c 2,112,-1
EndSplineSet
EndChar

StartChar: Y
Encoding: 89 89 60
Width: 610
GlyphClass: 2
Flags: W
LayerCount: 2
Fore
SplineSet
100 581 m 1,0,-1
 76 576 l 1,1,-1
 67 576 l 2,2,3
 28 576 28 576 9 590 c 0,4,5
 -4 600 -4 600 -8 616 c 1,6,-1
 -8 619 l 1,7,-1
 -8 649 l 2,8,9
 -8 672 -8 672 22 686 c 0,10,11
 45 697 45 697 96 708 c 1,12,-1
 173 701 l 2,13,14
 183 702 183 702 225 709 c 1,15,-1
 231 707 l 2,16,17
 271 694 271 694 291 636 c 2,18,-1
 296 622 l 1,19,-1
 285 611 l 2,20,21
 265 590 265 590 226 581 c 1,22,23
 267 498 267 498 303 412 c 1,24,-1
 372 579 l 1,25,-1
 372 582 l 1,26,27
 350 588 350 588 341.5 592 c 128,-1,28
 333 596 333 596 330 597 c 0,29,30
 324 601 324 601 319 606 c 0,31,32
 310 615 310 615 310 628 c 2,33,-1
 310 642 l 2,34,35
 310 674 310 674 352 693 c 0,36,37
 370 701 370 701 404 709 c 1,38,-1
 436 701 l 1,39,40
 499 708 499 708 535 708 c 0,41,42
 551 708 551 708 566 701 c 0,43,44
 599 683 599 683 604 629 c 1,45,-1
 604 628 l 2,46,47
 604 609 604 609 582 591 c 0,48,49
 576 586 576 586 562 576 c 1,50,-1
 554 576 l 2,51,52
 537 576 537 576 499 586 c 1,53,54
 482 553 482 553 465 515 c 0,55,56
 435 449 435 449 401 382 c 1,57,58
 366 322 366 322 360 249 c 1,59,60
 362 162 362 162 372 134 c 1,61,62
 463 127 463 127 498 102 c 0,63,64
 523 84 523 84 523 57 c 2,65,-1
 523 49 l 2,66,67
 521 31 521 31 509 16 c 2,68,-1
 504 11 l 1,69,-1
 497 8 l 2,70,71
 478 2 478 2 451 2 c 0,72,73
 440 2 440 2 427 3 c 0,74,75
 352 6 352 6 333 6 c 0,76,77
 296 6 296 6 268 4 c 2,78,-1
 217 4 l 1,79,-1
 165 3 l 1,80,-1
 164 3 l 2,81,82
 130 4 130 4 105 30 c 0,83,84
 91 47 91 47 91 65 c 0,85,86
 91 93 91 93 122 113 c 0,87,88
 147 131 147 131 180 131 c 0,89,90
 182 131 182 131 184 131 c 0,91,92
 211 133 211 133 229 139 c 1,93,-1
 231 139 l 2,94,95
 240 141 240 141 242 170 c 2,96,-1
 242 298 l 2,97,98
 242 321 242 321 197 398 c 1,99,100
 187 427 187 427 148 481 c 1,101,-1
 148 488 l 2,102,103
 148 493 148 493 141 508 c 0,104,105
 133 524 133 524 110 555 c 1,106,-1
 110 562 l 2,107,108
 110 575 110 575 100 581 c 1,0,-1
EndSplineSet
EndChar

StartChar: Z
Encoding: 90 90 61
Width: 610
GlyphClass: 2
Flags: W
LayerCount: 2
Fore
SplineSet
152 742 m 0,0,1
 153 742 153 742 238 739 c 1,2,3
 291 742 291 742 330 742 c 128,-1,4
 369 742 369 742 397 741 c 2,5,-1
 453 743 l 1,6,7
 504 737 504 737 522 705 c 0,8,9
 530 691 530 691 530 675 c 2,10,-1
 530 666 l 2,11,12
 530 616 530 616 458 507 c 0,13,14
 415 448 415 448 209 132 c 1,15,-1
 368 132 l 2,16,17
 383 133 383 133 393 140 c 0,18,19
 422 163 422 163 426 241 c 1,20,21
 426 339 426 339 479 357 c 0,22,23
 490 360 490 360 501 360 c 2,24,-1
 505 360 l 1,25,26
 557 345 557 345 557 288 c 2,27,-1
 557 286 l 1,28,29
 550 245 550 245 545 213 c 1,30,-1
 545 73 l 1,31,32
 520 -3 520 -3 433 -3 c 1,33,-1
 375 4 l 1,34,-1
 168 3 l 1,35,36
 129 -2 129 -2 109 -2 c 128,-1,37
 89 -2 89 -2 75 -1 c 1,38,-1
 70 2 l 2,39,40
 29 25 29 25 29 65 c 0,41,42
 29 100 29 100 64 143 c 2,43,-1
 378 591 l 2,44,45
 389 611 389 611 393 623 c 1,46,-1
 393 625 l 1,47,48
 387 627 387 627 379 627 c 0,49,50
 280 628 280 628 247.5 627.5 c 128,-1,51
 215 627 215 627 209.5 627 c 128,-1,52
 204 627 204 627 202.5 626.5 c 128,-1,53
 201 626 201 626 199 625 c 0,54,55
 192 621 192 621 186 606 c 0,56,57
 183 598 183 598 181 588 c 0,58,59
 176 498 176 498 158 465 c 0,60,61
 143 437 143 437 118 437 c 2,62,-1
 99 437 l 2,63,64
 83 437 83 437 73 452 c 0,65,66
 68 460 68 460 63 480.5 c 128,-1,67
 58 501 58 501 56 557 c 1,68,69
 61 651 61 651 82 705 c 1,70,71
 105 742 105 742 152 742 c 0,0,1
EndSplineSet
EndChar

StartChar: bracketleft
Encoding: 91 91 62
Width: 610
GlyphClass: 2
Flags: W
LayerCount: 2
Fore
SplineSet
262 190 m 1,0,-1
 261 -53 l 2,1,2
 261 -70 261 -70 269 -109 c 1,3,-1
 401 -103 l 2,4,5
 419 -100 419 -100 421.5 -100 c 128,-1,6
 424 -100 424 -100 424 -100 c 2,7,8
 446 -100 446 -100 466 -111 c 0,9,10
 479 -118 479 -118 491 -144 c 0,11,12
 494 -152 494 -152 499 -167 c 1,13,-1
 499 -180 l 2,14,15
 499 -192 499 -192 491.5 -201.5 c 128,-1,16
 484 -211 484 -211 472 -220 c 2,17,-1
 458 -231 l 1,18,-1
 444 -221 l 1,19,-1
 155 -225 l 1,20,-1
 148 -213 l 2,21,22
 135 -192 135 -192 135 -170 c 0,23,24
 135 -153 135 -153 138 -144 c 2,25,-1
 139 308 l 2,26,27
 137 554 137 554 140 622 c 1,28,-1
 135 760 l 2,29,30
 134 764 134 764 134 769 c 2,31,-1
 134 779 l 2,32,33
 135 787 135 787 142 822 c 1,34,-1
 167 847 l 1,35,36
 178 852 178 852 183 852.5 c 128,-1,37
 188 853 188 853 191 853 c 0,38,39
 210 853 210 853 229 840 c 1,40,41
 238 841 238 841 250 843 c 2,42,-1
 391 844 l 1,43,-1
 397 848 l 1,44,-1
 405 848 l 2,45,46
 441 848 441 848 459 829 c 0,47,48
 472 815 472 815 472 793 c 2,49,-1
 472 785 l 2,50,51
 472 760 472 760 459 739 c 2,52,-1
 452 727 l 1,53,-1
 262 725 l 1,54,55
 262 698 262 698 258 651 c 1,56,-1
 262 190 l 1,0,-1
EndSplineSet
EndChar

StartChar: backslash
Encoding: 92 92 63
Width: 610
GlyphClass: 2
Flags: W
LayerCount: 2
Fore
SplineSet
587 -228 m 0,0,1
 584 -228 584 -228 565 -225 c 1,2,-1
 517 -170 l 1,3,4
 67 620 67 620 28 699 c 1,5,6
 14 708 14 708 3.5 733 c 128,-1,7
 -7 758 -7 758 -12 817 c 1,8,9
 -8 851 -8 851 14 862 c 0,10,11
 22 865 22 865 31 865 c 0,12,13
 32 865 32 865 57 864 c 1,14,-1
 81 849 l 1,15,-1
 115 789 l 1,16,-1
 634 -127 l 1,17,-1
 630 -195 l 1,18,19
 623 -206 623 -206 619 -211 c 0,20,21
 605 -228 605 -228 587 -228 c 0,0,1
EndSplineSet
EndChar

StartChar: bracketright
Encoding: 93 93 64
Width: 610
GlyphClass: 2
Flags: W
LayerCount: 2
Fore
SplineSet
458 622 m 2,0,1
 460 581 460 581 460 494 c 128,-1,2
 460 407 460 407 459 308 c 2,3,-1
 460 -144 l 2,4,5
 463 -153 463 -153 463 -172.5 c 128,-1,6
 463 -192 463 -192 450 -213 c 2,7,-1
 443 -225 l 1,8,-1
 149 -221 l 1,9,-1
 135 -231 l 1,10,-1
 121 -220 l 2,11,12
 109 -211 109 -211 101.5 -201.5 c 128,-1,13
 94 -192 94 -192 94 -180 c 2,14,-1
 94 -161 l 1,15,16
 103 -138 103 -138 110.5 -127 c 128,-1,17
 118 -116 118 -116 127 -111 c 0,18,19
 147 -100 147 -100 169 -100 c 0,20,21
 180 -100 180 -100 192 -103 c 2,22,-1
 329 -109 l 1,23,24
 337 -70 337 -70 337 -53 c 2,25,-1
 336 195 l 1,26,-1
 340 654 l 1,27,28
 336 699 336 699 336 725 c 1,29,-1
 141 727 l 1,30,-1
 134 739 l 2,31,32
 121 760 121 760 121 785 c 2,33,-1
 121 793 l 2,34,35
 121 824 121 824 147 839 c 0,36,37
 163 848 163 848 188 848 c 2,38,-1
 196 848 l 1,39,-1
 202 844 l 1,40,-1
 343 843 l 2,41,42
 356 841 356 841 364 840 c 1,43,44
 384 853 384 853 405 853 c 0,45,46
 415 853 415 853 430 848 c 1,47,-1
 456 822 l 1,48,49
 463 787 463 787 464 779 c 2,50,-1
 464 769 l 2,51,52
 464 764 464 764 463 760 c 2,53,-1
 458 622 l 2,0,1
EndSplineSet
EndChar

StartChar: asciicircum
Encoding: 94 94 65
Width: 610
GlyphClass: 2
Flags: W
LayerCount: 2
Fore
SplineSet
471 436 m 1,0,-1
 304 702 l 1,1,-1
 140 436 l 1,2,-1
 11 436 l 1,3,-1
 250 857 l 1,4,-1
 358 857 l 1,5,-1
 598 436 l 1,6,-1
 471 436 l 1,0,-1
EndSplineSet
EndChar

StartChar: underscore
Encoding: 95 95 66
Width: 610
GlyphClass: 2
Flags: W
LayerCount: 2
Fore
SplineSet
-6 -86 m 0,0,1
 0 -86 0 -86 5 -86 c 2,2,-1
 122 -86 l 1,3,-1
 189 -93 l 1,4,-1
 390 -86 l 1,5,-1
 621 -86 l 1,6,7
 651 -91 651 -91 667 -114 c 0,8,9
 678 -131 678 -131 682 -157 c 1,10,-1
 682 -177 l 1,11,-1
 680 -182 l 2,12,13
 663 -220 663 -220 628 -230 c 2,14,-1
 624 -231 l 1,15,-1
 550 -226 l 1,16,-1
 3 -231 l 1,17,18
 -30 -227 -30 -227 -48 -214 c 0,19,20
 -76 -194 -76 -194 -76 -159 c 2,21,-1
 -76 -141 l 1,22,-1
 -75 -137 l 2,23,24
 -67 -109 -67 -109 -45 -96 c 0,25,26
 -28 -86 -28 -86 -6 -86 c 0,0,1
EndSplineSet
EndChar

StartChar: grave
Encoding: 96 96 67
Width: 610
GlyphClass: 2
Flags: W
LayerCount: 2
Fore
SplineSet
461 544 m 1,0,-1
 343 544 l 1,1,2
 192 626 192 626 188 628.5 c 128,-1,3
 184 631 184 631 179 636 c 0,4,5
 145 662 145 662 137 705 c 0,6,7
 136 713 136 713 136 721 c 0,8,9
 136 743 136 743 148 760 c 0,10,11
 167 784 167 784 200 784 c 0,12,13
 249 784 249 784 297 732 c 2,14,-1
 461 544 l 1,0,-1
EndSplineSet
EndChar

StartChar: a
Encoding: 97 97 68
Width: 610
GlyphClass: 2
Flags: W
LayerCount: 2
Fore
SplineSet
286 520 m 2,0,-1
 287 520 l 1,1,-1
 304 520 l 1,2,3
 412 511 412 511 455 437 c 0,4,5
 473 406 473 406 480 366 c 0,6,7
 483 352 483 352 484.5 329 c 128,-1,8
 486 306 486 306 487 288 c 0,9,10
 490 239 490 239 493 142 c 0,11,12
 493 130 493 130 498 122 c 1,13,-1
 500 122 l 1,14,15
 514 132 514 132 519 152 c 2,16,-1
 523 168 l 1,17,-1
 559 171 l 1,18,-1
 563 170 l 2,19,20
 597 160 597 160 607 133 c 0,21,22
 609 127 609 127 610 119 c 2,23,-1
 610 94 l 1,24,-1
 609 91 l 2,25,26
 581 15 581 15 491 1 c 1,27,-1
 487 1 l 1,28,-1
 482 2 l 2,29,30
 425 14 425 14 399 57 c 1,31,32
 330 1 330 1 239 1 c 0,33,34
 234 1 234 1 228 1 c 0,35,36
 177 1 177 1 135 19 c 1,37,-1
 98 41 l 1,38,-1
 96 43 l 1,39,40
 45 87 45 87 45 160 c 2,41,-1
 45 161 l 1,42,43
 57 256 57 256 165 301 c 0,44,45
 187 310 187 310 229 319 c 0,46,47
 279 327 279 327 340 335 c 0,48,49
 343 335 343 335 344 335 c 0,50,51
 353 335 353 335 356 338 c 2,52,-1
 361 348 l 1,53,-1
 357 374 l 1,54,-1
 348 392 l 1,55,-1
 334 403 l 1,56,57
 308 415 308 415 287 415 c 0,58,59
 283 415 283 415 278 414 c 2,60,-1
 259 414 l 2,61,62
 237 413 237 413 219 404 c 2,63,-1
 208 399 l 2,64,65
 199 393 199 393 193 385 c 1,66,-1
 220 350 l 1,67,-1
 193 294 l 1,68,-1
 140 276 l 1,69,-1
 135 276 l 1,70,71
 94 280 94 280 75 307 c 0,72,73
 60 328 60 328 59 364 c 1,74,-1
 63 379 l 2,75,76
 73 431 73 431 137 480 c 1,77,78
 180 505 180 505 216 511 c 0,79,80
 242 518 242 518 286 520 c 2,0,-1
308 219 m 0,81,82
 172 196 172 196 172 139 c 0,83,84
 172 110 172 110 195 101 c 0,85,86
 206 96 206 96 222 95 c 2,87,-1
 243 96 l 1,88,89
 312 106 312 106 365 152 c 0,90,91
 373 158 373 158 378 180 c 1,92,-1
 376 207 l 1,93,-1
 373 221 l 1,94,-1
 369 227 l 1,95,-1
 363 228 l 1,96,-1
 354 227 l 2,97,98
 337 226 337 226 308 219 c 0,81,82
EndSplineSet
EndChar

StartChar: b
Encoding: 98 98 69
Width: 610
GlyphClass: 2
Flags: W
LayerCount: 2
Fore
SplineSet
24 720 m 2,0,-1
 66 720 l 2,1,2
 93 721 93 721 108 721 c 128,-1,3
 123 721 123 721 131 721 c 0,4,5
 137 722 137 722 143 722 c 0,6,7
 165 722 165 722 180 712 c 0,8,9
 202 698 202 698 205 668 c 2,10,-1
 205 638 l 2,11,12
 203 600 203 600 203 564.5 c 128,-1,13
 203 529 203 529 204 495 c 1,14,15
 253 531 253 531 341 540 c 1,16,-1
 345 539 l 1,17,18
 439 521 439 521 493 456 c 0,19,20
 544 393 544 393 549 312 c 1,21,-1
 553 284 l 1,22,-1
 553 283 l 2,23,24
 553 246 553 246 550 216 c 0,25,26
 543 160 543 160 505 103 c 0,27,28
 458 30 458 30 362 0 c 1,29,-1
 358 -1 l 1,30,-1
 354 -1 l 2,31,32
 346 -1 346 -1 336 3 c 1,33,34
 324 -1 324 -1 311 -1 c 2,35,-1
 288 -1 l 1,36,37
 226 15 226 15 197 37 c 1,38,-1
 196 19 l 1,39,-1
 143 -7 l 1,40,-1
 75 1 l 1,41,42
 82 50 82 50 86 86 c 1,43,-1
 86 88 l 1,44,45
 93 123 93 123 93 198 c 0,46,47
 93 236 93 236 91 285 c 0,48,49
 94 368 94 368 94 421 c 0,50,51
 94 514 94 514 90 575 c 0,52,53
 89 592 89 592 85 603 c 1,54,55
 63 610 63 610 15 610 c 0,56,57
 6 610 6 610 -21 610 c 1,58,-1
 -45 669 l 1,59,-1
 -39 679 l 2,60,61
 -17 717 -17 717 24 720 c 2,0,-1
332 464 m 2,62,-1
 313 464 l 2,63,64
 283 461 283 461 247 423 c 0,65,66
 228 407 228 407 213 362 c 1,67,-1
 211 305 l 1,68,-1
 213 259 l 1,69,-1
 221 202 l 1,70,71
 235 154 235 154 284 128 c 1,72,-1
 307 128 l 1,73,74
 340 132 340 132 362 146 c 0,75,76
 389 162 389 162 402 196 c 0,77,78
 414 220 414 220 419 246 c 2,79,-1
 423 272 l 2,80,81
 424 297 424 297 425 314 c 0,82,83
 412 393 412 393 387.5 428 c 128,-1,84
 363 463 363 463 332 464 c 2,62,-1
EndSplineSet
EndChar

StartChar: c
Encoding: 99 99 70
Width: 610
GlyphClass: 2
Flags: W
LayerCount: 2
Fore
SplineSet
201 312 m 0,0,1
 194 289 194 289 194 260 c 0,2,3
 194 254 194 254 194 248 c 2,4,-1
 194 247 l 2,5,6
 196 192 196 192 220 166 c 1,7,-1
 239 140 l 1,8,9
 269 119 269 119 288 115 c 1,10,-1
 300 115 l 2,11,12
 318 115 318 115 335 118 c 2,13,-1
 360 126 l 1,14,-1
 384 141 l 2,15,16
 399 150 399 150 405 168 c 2,17,-1
 407 174 l 1,18,-1
 438 201 l 1,19,20
 456 203 456 203 466 203 c 0,21,22
 490 203 490 203 509 193 c 0,23,24
 533 179 533 179 542 151 c 2,25,-1
 544 144 l 1,26,-1
 528 102 l 1,27,-1
 489 61 l 2,28,29
 435 8 435 8 325 0 c 1,30,-1
 295 0 l 2,31,32
 221 3 221 3 166 43 c 0,33,34
 125 68 125 68 95 122 c 1,35,36
 74 173 74 173 68.5 199 c 128,-1,37
 63 225 63 225 62 254 c 1,38,-1
 68 302 l 1,39,40
 87 377 87 377 122 417 c 0,41,42
 149 449 149 449 188 469 c 2,43,-1
 219 483 l 2,44,45
 251 500 251 500 280 505 c 0,46,47
 297 510 297 510 316 510 c 0,48,49
 323 510 323 510 329 510 c 2,50,-1
 346 510 l 1,51,52
 456 494 456 494 512 424 c 1,53,-1
 529 399 l 1,54,-1
 535 370 l 1,55,-1
 535 367 l 2,56,57
 534 324 534 324 504 296 c 0,58,59
 482 275 482 275 440 264 c 1,60,-1
 430 264 l 1,61,62
 380 270 380 270 356 307 c 1,63,-1
 354 309 l 1,64,-1
 346 335 l 1,65,66
 348 353 348 353 352 364.5 c 128,-1,67
 356 376 356 376 364 385 c 1,68,69
 342 401 342 401 299 402 c 1,70,71
 257 393 257 393 232 368 c 0,72,73
 211 346 211 346 201 312 c 0,0,1
EndSplineSet
EndChar

StartChar: d
Encoding: 100 100 71
Width: 610
GlyphClass: 2
Flags: W
LayerCount: 2
Fore
SplineSet
488 405 m 2,0,1
 488 358 488 358 488 325.5 c 128,-1,2
 488 293 488 293 488 275 c 1,3,-1
 488 275 l 1,4,-1
 488 147 l 2,5,6
 489 141 489 141 496 138 c 0,7,8
 505 133 505 133 523 133 c 0,9,10
 530 133 530 133 539 134 c 0,11,12
 588 131 588 131 608 85 c 2,13,-1
 610 80 l 1,14,-1
 610 52 l 1,15,-1
 608 47 l 2,16,17
 587 0 587 0 499 0 c 0,18,19
 479 0 479 0 455 2 c 0,20,21
 421 10 421 10 400 38 c 1,22,23
 367 9 367 9 319 -6 c 1,24,-1
 255 -13 l 1,25,-1
 217 -5 l 1,26,27
 129 20 129 20 82 85 c 0,28,29
 46 136 46 136 35 212 c 0,30,31
 35 222 35 222 35 230 c 0,32,33
 35 327 35 327 79 394 c 0,34,35
 144 494 144 494 243 504 c 1,36,-1
 314 504 l 1,37,38
 344 496 344 496 369 478 c 1,39,-1
 369 479 l 1,40,-1
 367 541 l 2,41,42
 367 576 367 576 367 596 c 1,43,-1
 362 598 l 1,44,45
 310 600 310 600 256 598 c 1,46,47
 214 605 214 605 204 642 c 1,48,-1
 200 667 l 1,49,-1
 204 674 l 2,50,51
 215 698 215 698 247 713 c 1,52,-1
 251 716 l 1,53,54
 311 720 311 720 337.5 720 c 128,-1,55
 364 720 364 720 375 719.5 c 128,-1,56
 386 719 386 719 396 719 c 0,57,58
 434 715 434 715 453 702 c 0,59,60
 463 696 463 696 468 685 c 0,61,62
 488 655 488 655 488 617 c 1,63,-1
 488 617 l 1,64,65
 484 432 484 432 488 406 c 1,66,-1
 488 405 l 2,0,1
209 92 m 1,67,-1
 232 74 l 1,68,69
 252 64 252 64 280 64 c 0,70,71
 294 64 294 64 307 65 c 1,72,-1
 332 83 l 1,73,74
 354 117 354 117 362 147 c 0,75,76
 375 210 375 210 375 237 c 2,77,-1
 374 248 l 2,78,79
 372 288 372 288 367.5 307 c 128,-1,80
 363 326 363 326 358 332 c 0,81,82
 324 379 324 379 278 388 c 0,83,84
 276 388 276 388 275 388 c 0,85,86
 244 388 244 388 224 378 c 0,87,88
 200 366 200 366 188 338 c 0,89,90
 168 303 168 303 164 247 c 2,91,-1
 161 204 l 1,92,-1
 168 164 l 1,93,-1
 184 129 l 1,94,-1
 209 92 l 1,67,-1
EndSplineSet
EndChar

StartChar: e
Encoding: 101 101 72
Width: 610
GlyphClass: 2
Flags: W
LayerCount: 2
Fore
SplineSet
463 460 m 2,0,1
 528 402 528 402 538 326 c 0,2,3
 539 316 539 316 539 306 c 0,4,5
 539 286 539 286 536 269 c 0,6,7
 534 262 534 262 534 258 c 2,8,-1
 534 251 l 1,9,-1
 530 245 l 2,10,11
 501 205 501 205 430 205 c 2,12,-1
 220 207 l 1,13,-1
 214 207 l 2,14,15
 208 207 208 207 186 208 c 1,16,-1
 184 204 l 1,17,18
 186 190 186 190 196 170 c 1,19,-1
 210 152 l 1,20,21
 243 122 243 122 304 120 c 0,22,23
 309 119 309 119 314 119 c 0,24,25
 337 119 337 119 370 133 c 0,26,27
 407 151 407 151 428 187 c 1,28,-1
 442 206 l 1,29,-1
 449 208 l 2,30,31
 464 214 464 214 477 214 c 0,32,33
 503 214 503 214 523 194 c 2,34,-1
 544 169 l 1,35,-1
 540 156 l 2,36,37
 514 74 514 74 444 32 c 0,38,39
 389 0 389 0 308 -7 c 1,40,41
 214 -5 214 -5 162 33 c 0,42,43
 89 86 89 86 72 143 c 1,44,45
 60 169 60 169 55 224 c 1,46,-1
 55 261 l 1,47,48
 59 330 59 330 82 376 c 0,49,50
 117 452 117 452 189 492 c 0,51,52
 202 499 202 499 231 508 c 0,53,54
 242 510 242 510 251 512 c 0,55,56
 259 512 259 512 269 514.5 c 128,-1,57
 279 517 279 517 299 517 c 128,-1,58
 319 517 319 517 350 514 c 1,59,60
 419 496 419 496 452 470 c 2,61,-1
 463 460 l 2,0,1
204 320 m 1,62,-1
 304 317 l 2,63,64
 347 317 347 317 398 321 c 1,65,-1
 406 321 l 1,66,-1
 410 321 l 1,67,68
 410 323 410 323 410 324 c 0,69,70
 410 341 410 341 402 358 c 2,71,-1
 394 373 l 2,72,73
 363 426 363 426 290 426 c 2,74,-1
 271 425 l 2,75,76
 246 423 246 423 230 411 c 2,77,-1
 212 393 l 1,78,79
 199 372 199 372 192 355.5 c 128,-1,80
 185 339 185 339 184 329 c 0,81,82
 185 325 185 325 187 323 c 128,-1,83
 189 321 189 321 192 320 c 2,84,-1
 204 320 l 1,62,-1
EndSplineSet
EndChar

StartChar: f
Encoding: 102 102 73
Width: 610
GlyphClass: 2
Flags: W
LayerCount: 2
Fore
SplineSet
569 509 m 0,0,1
 550 495 550 495 522 490 c 0,2,3
 520 490 520 490 515.5 490 c 128,-1,4
 511 490 511 490 508.5 490 c 128,-1,5
 506 490 506 490 503 490.5 c 128,-1,6
 500 491 500 491 497 491 c 0,7,8
 492 492 492 492 486 494 c 1,9,-1
 491 488 l 2,10,11
 498 479 498 479 500 465 c 2,12,-1
 500 442 l 1,13,14
 491 404 491 404 438 399 c 0,15,16
 428 398 428 398 405.5 398 c 128,-1,17
 383 398 383 398 347 396 c 1,18,-1
 333 390 l 1,19,20
 332 348 332 348 332 313 c 0,21,22
 332 230 332 230 337 176 c 1,23,-1
 337 175 l 2,24,25
 337 158 337 158 342 134 c 1,26,-1
 352 119 l 1,27,28
 373 112 373 112 384 112 c 2,29,-1
 467 112 l 1,30,-1
 468 112 l 2,31,32
 504 111 504 111 520 91 c 0,33,34
 530 78 530 78 530 62 c 0,35,36
 530 45 530 45 521 32 c 0,37,38
 507 11 507 11 470 4 c 1,39,40
 375 0 375 0 321 0 c 2,41,-1
 214 0 l 2,42,43
 182 0 182 0 151 -2 c 128,-1,44
 120 -4 120 -4 90 -4 c 2,45,-1
 88 -4 l 1,46,47
 56 2 56 2 42 23 c 0,48,49
 31 39 31 39 31 62 c 2,50,-1
 31 68 l 1,51,-1
 34 73 l 2,52,53
 43 93 43 93 59 105 c 0,54,55
 80 121 80 121 107 121 c 0,56,57
 111 121 111 121 114 121 c 2,58,-1
 180 121 l 2,59,60
 207 123 207 123 213 136 c 2,61,-1
 214 138 l 2,62,63
 223 152 223 152 223 179 c 0,64,65
 223 187 223 187 222 197 c 2,66,-1
 221 263 l 2,67,68
 221 336 221 336 219 381 c 1,69,-1
 215 388 l 1,70,71
 169 391 169 391 150 390 c 0,72,73
 142 390 142 390 132 390 c 0,74,75
 109 390 109 390 91 397 c 0,76,77
 63 409 63 409 56 437 c 2,78,-1
 55 440 l 1,79,-1
 55 457 l 1,80,-1
 55 458 l 2,81,82
 56 495 56 495 114 506 c 0,83,84
 150 514 150 514 213 514 c 1,85,-1
 214 528 l 2,86,87
 214 535 214 535 213 546 c 2,88,-1
 213 549 l 1,89,90
 228 651 228 651 296 702 c 0,91,92
 332 725 332 725 382 734 c 1,93,-1
 433 734 l 1,94,95
 522 725 522 725 581 644 c 1,96,-1
 583 641 l 1,97,-1
 599 603 l 1,98,-1
 601 566 l 1,99,-1
 601 563 l 1,100,101
 594 529 594 529 569 509 c 0,0,1
361 511 m 128,-1,103
 383 511 383 511 407 514 c 0,104,105
 413 514 413 514 417 514 c 0,106,107
 441 514 441 514 457 510 c 1,108,109
 438 527 438 527 431 558 c 2,110,-1
 429 569 l 1,111,-1
 451 599 l 1,112,113
 449 610 449 610 440.5 615.5 c 128,-1,114
 432 621 432 621 414 622 c 2,115,-1
 397 622 l 2,116,117
 364 620 364 620 348 593 c 0,118,119
 332 568 332 568 329 518 c 2,120,-1
 329 517 l 1,121,102
 339 511 339 511 361 511 c 128,-1,103
EndSplineSet
EndChar

StartChar: g
Encoding: 103 103 74
Width: 610
GlyphClass: 2
Flags: W
LayerCount: 2
Fore
SplineSet
55 228 m 2,0,-1
 109 270 l 1,1,2
 89 307 89 307 89 342 c 0,3,4
 89 345 89 345 89 348 c 2,5,-1
 89 363 l 1,6,7
 111 444 111 444 153 475 c 0,8,9
 208 521 208 521 277 528 c 0,10,11
 290 529 290 529 292 529 c 0,12,13
 305 529 305 529 312 527 c 0,14,15
 366 516 366 516 401 488 c 1,16,17
 427 518 427 518 466 523 c 1,18,-1
 481 523 l 2,19,20
 541 523 541 523 569 483 c 0,21,22
 590 456 590 456 590 410 c 2,23,-1
 590 401 l 1,24,-1
 554 366 l 1,25,-1
 498 354 l 1,26,-1
 474 383 l 1,27,28
 483 356 483 356 483 338 c 2,29,-1
 483 322 l 1,30,-1
 482 297 l 1,31,32
 472 231 472 231 395 178 c 1,33,-1
 393 177 l 1,34,-1
 355 162 l 2,35,36
 340 157 340 157 325 155 c 1,37,38
 371 153 371 153 430 141 c 1,39,-1
 506 113 l 1,40,-1
 509 111 l 2,41,42
 584 61 584 61 584 -16 c 0,43,44
 584 -37 584 -37 579 -64 c 1,45,-1
 556 -99 l 2,46,47
 548 -115 548 -115 525.5 -131.5 c 128,-1,48
 503 -148 503 -148 461 -166 c 0,49,50
 408 -189 408 -189 320 -202 c 1,51,52
 254 -206 254 -206 236 -206 c 2,53,-1
 234 -206 l 1,54,55
 130 -186 130 -186 69 -129 c 0,56,57
 40 -101 40 -101 24 -65 c 0,58,59
 21 -49 21 -49 21 -36 c 0,60,61
 21 24 21 24 78 87 c 1,62,-1
 48 125 l 2,63,64
 24 149 24 149 24 174 c 0,65,66
 24 203 24 203 55 228 c 2,0,-1
273 147 m 1,67,68
 220 152 220 152 174 184 c 1,69,70
 160 182 160 182 153 169 c 1,71,-1
 153 163 l 1,72,73
 159 138 159 138 179 127 c 1,74,75
 212 139 212 139 265 147 c 1,76,-1
 273 147 l 1,67,68
230 415 m 0,77,78
 216 400 216 400 208 374 c 0,79,80
 206 358 206 358 206 340 c 1,81,82
 217 307 217 307 234 289 c 0,83,84
 253 267 253 267 282 266 c 2,85,-1
 305 266 l 1,86,87
 355 280 355 280 367 314 c 0,88,89
 372 327 372 327 372 345 c 2,90,-1
 372 353 l 1,91,92
 365 405 365 405 337 424 c 0,93,94
 321 435 321 435 295 437 c 2,95,-1
 277 437 l 1,96,97
 248 433 248 433 230 415 c 0,77,78
154 14 m 0,98,99
 152 9 152 9 152 2 c 2,100,-1
 152 1 l 2,101,102
 152 -2 152 -2 152 -4.5 c 128,-1,103
 152 -7 152 -7 152 -9.5 c 128,-1,104
 152 -12 152 -12 152.5 -14.5 c 128,-1,105
 153 -17 153 -17 153.5 -19.5 c 128,-1,106
 154 -22 154 -22 154.5 -24 c 128,-1,107
 155 -26 155 -26 156 -28 c 0,108,109
 168 -64 168 -64 229 -75 c 0,110,111
 254 -80 254 -80 287 -80 c 0,112,113
 352 -74 352 -74 387.5 -63 c 128,-1,114
 423 -52 423 -52 438 -40.5 c 128,-1,115
 453 -29 453 -29 454 -16 c 0,116,117
 455 -8 455 -8 455 -6 c 0,118,119
 455 0 455 0 450 7 c 0,120,121
 431 29 431 29 369 47 c 1,122,123
 308 54 308 54 288 54 c 0,124,125
 253 54 253 54 223 47 c 2,126,-1
 193 41 l 1,127,128
 161 29 161 29 154 14 c 0,98,99
EndSplineSet
EndChar

StartChar: h
Encoding: 104 104 75
Width: 610
GlyphClass: 2
Flags: W
LayerCount: 2
Fore
SplineSet
216 660 m 0,0,1
 220 642 220 642 220 623 c 0,2,3
 220 616 220 616 220 610 c 2,4,-1
 220 495 l 2,5,6
 220 472 220 472 219 449 c 1,7,8
 285 512 285 512 357 512 c 2,9,-1
 384 512 l 1,10,11
 486 497 486 497 524 394 c 0,12,13
 537 350 537 350 537 287 c 2,14,-1
 537 173 l 2,15,16
 535 140 535 140 535 113 c 1,17,18
 548 108 548 108 579 105 c 1,19,-1
 583 102 l 2,20,21
 604 90 604 90 619 70 c 2,22,-1
 623 64 l 1,23,-1
 623 42 l 1,24,-1
 622 40 l 1,25,26
 615 7 615 7 557 -2 c 1,27,-1
 555 -2 l 2,28,29
 468 1 468 1 390 1 c 1,30,-1
 345 -9 l 1,31,-1
 312 38 l 1,32,-1
 312 71 l 2,33,34
 315 81 315 81 318.5 85.5 c 128,-1,35
 322 90 322 90 327 93 c 0,36,37
 335 99 335 99 352 105.5 c 128,-1,38
 369 112 369 112 406 119 c 1,39,40
 413 136 413 136 414 162 c 2,41,-1
 414 211 l 1,42,43
 418 244 418 244 418 283.5 c 128,-1,44
 418 323 418 323 414 372 c 1,45,46
 405 419 405 419 388 431 c 1,47,48
 379 432 379 432 361 440 c 1,49,50
 294 435 294 435 246 368 c 0,51,52
 231 342 231 342 228 323 c 0,53,54
 225 301 225 301 222 242 c 2,55,-1
 222 128 l 1,56,57
 242 115 242 115 273 112 c 2,58,-1
 285 111 l 1,59,-1
 311 69 l 1,60,-1
 307 37 l 1,61,62
 297 24 297 24 289 18 c 0,63,64
 274 4 274 4 253 1 c 2,65,-1
 39 1 l 2,66,67
 13 1 13 1 -4 24 c 2,68,-1
 -9 30 l 1,69,-1
 -9 61 l 1,70,-1
 -6 67 l 2,71,72
 12 96 12 96 36 98 c 0,73,74
 80 105 80 105 96 109 c 2,75,-1
 99 110 l 1,76,77
 104 241 104 241 104 385 c 2,78,-1
 104 588 l 1,79,-1
 92 598 l 1,80,-1
 78 599 l 1,81,-1
 67 599 l 1,82,-1
 12 599 l 1,83,-1
 -12 634 l 1,84,-1
 -12 666 l 2,85,86
 -11 680 -11 680 -4.5 691.5 c 128,-1,87
 2 703 2 703 12 708 c 0,88,89
 28 719 28 719 51 720 c 0,90,91
 81 724 81 724 163 724 c 0,92,93
 184 724 184 724 198 710 c 0,94,95
 215 693 215 693 216 660 c 0,0,1
EndSplineSet
EndChar

StartChar: i
Encoding: 105 105 76
Width: 610
GlyphClass: 2
Flags: W
LayerCount: 2
Fore
SplineSet
332 505.5 m 128,-1,1
 336 505 336 505 340 503 c 0,2,3
 381 489 381 489 381 440 c 0,4,5
 381 429 381 429 380 419 c 2,6,-1
 380 280 l 1,7,-1
 380 280 l 1,8,9
 379 249 379 249 379 235.5 c 128,-1,10
 379 222 379 222 379 218.5 c 128,-1,11
 379 215 379 215 379 212 c 128,-1,12
 379 209 379 209 379 205.5 c 128,-1,13
 379 202 379 202 379 200 c 2,14,-1
 380 188 l 1,15,-1
 380 132 l 1,16,17
 385 130 385 130 393 126 c 2,18,-1
 444 124 l 1,19,-1
 475 124 l 1,20,-1
 511 122 l 1,21,-1
 516 120 l 2,22,23
 534 111 534 111 546 97 c 128,-1,24
 558 83 558 83 561 64 c 2,25,-1
 561 60 l 1,26,27
 551 1 551 1 509 1 c 0,28,29
 508 1 508 1 317 6 c 1,30,-1
 89 -3 l 1,31,-1
 82 2 l 2,32,33
 46 28 46 28 41 63 c 2,34,-1
 40 72 l 1,35,-1
 58 100 l 2,36,37
 59 105 59 105 64 110 c 0,38,39
 70 116 70 116 78 119 c 0,40,41
 93 124 93 124 130 124 c 0,42,43
 139 124 139 124 150 124 c 0,44,45
 203 126 203 126 239 129 c 0,46,47
 249 132 249 132 253.5 137.5 c 128,-1,48
 258 143 258 143 259 152 c 2,49,-1
 259 341 l 2,50,51
 260 351 260 351 260 358 c 0,52,53
 260 373 260 373 256 380 c 0,54,55
 255 382 255 382 253.5 382.5 c 128,-1,56
 252 383 252 383 237 383 c 128,-1,57
 222 383 222 383 201 384 c 0,58,59
 136 386 136 386 111 398 c 0,60,61
 92 406 92 406 86 422 c 0,62,63
 85 427 85 427 85 432 c 2,64,-1
 85 447 l 2,65,66
 85 463 85 463 93 476 c 0,67,68
 105 494 105 494 130.5 502.5 c 128,-1,69
 156 511 156 511 204 511 c 128,-1,70
 252 511 252 511 302 509 c 0,71,0
 328 506 328 506 332 505.5 c 128,-1,1
229 556.5 m 128,-1,73
 200 584 200 584 200 629 c 128,-1,74
 200 674 200 674 227 703.5 c 128,-1,75
 254 733 254 733 299 733 c 0,76,77
 337 733 337 733 366 708 c 0,78,79
 396 682 396 682 396 629 c 0,80,81
 396 587 396 587 369 558 c 128,-1,82
 342 529 342 529 300 529 c 128,-1,72
 258 529 258 529 229 556.5 c 128,-1,73
EndSplineSet
EndChar

StartChar: j
Encoding: 106 106 77
Width: 610
GlyphClass: 2
Flags: W
LayerCount: 2
Fore
SplineSet
227 -39 m 1,0,-1
 193 -52 l 1,1,2
 212 -82 212 -82 255 -83 c 0,3,4
 307 -80 307 -80 322 -55 c 2,5,-1
 330 -38 l 1,6,-1
 333 -12 l 1,7,-1
 335 16 l 2,8,9
 339 49 339 49 339 76.5 c 128,-1,10
 339 104 339 104 338 124 c 2,11,-1
 339 177 l 2,12,13
 342 233 342 233 342 291 c 1,14,-1
 342 291 l 1,15,-1
 342 301 l 2,16,17
 342 356 342 356 331 377 c 0,18,19
 329 381 329 381 327 382 c 2,20,-1
 282 385 l 1,21,-1
 193 382 l 1,22,23
 158 387 158 387 142 396 c 0,24,25
 117 410 117 410 115 433 c 2,26,-1
 115 456 l 1,27,-1
 116 458 l 2,28,29
 121 476 121 476 137 487 c 0,30,31
 153 499 153 499 178 505 c 0,32,33
 187 505 187 505 194 505 c 0,34,35
 243 505 243 505 308 499 c 1,36,-1
 338 499 l 1,37,38
 355 507 355 507 371.5 507 c 128,-1,39
 388 507 388 507 403 503 c 1,40,-1
 405 503 l 2,41,42
 422 503 422 503 434 491 c 0,43,44
 450 476 450 476 458 440 c 0,45,46
 460 416 460 416 460 353 c 128,-1,47
 460 290 460 290 457 172 c 2,48,-1
 457 116 l 1,49,-1
 451 81 l 1,50,-1
 457 45 l 1,51,-1
 457 43 l 2,52,53
 457 11 457 11 453 -26 c 1,54,-1
 453 -27 l 1,55,56
 438 -109 438 -109 404 -141 c 1,57,-1
 396 -155 l 2,58,59
 386 -166 386 -166 367 -175 c 0,60,61
 333 -191 333 -191 253 -207 c 1,62,-1
 157 -184 l 1,63,-1
 154 -182 l 1,64,65
 99 -152 99 -152 74 -101 c 0,66,67
 55 -60 55 -60 55 -8 c 0,68,69
 55 -4 55 -4 55 3 c 2,70,-1
 69 47 l 1,71,-1
 71 50 l 2,72,73
 107 110 107 110 161 117 c 0,74,75
 202 123 202 123 229 90 c 0,76,77
 250 63 250 63 250 32.5 c 128,-1,78
 250 2 250 2 232 -31 c 2,79,-1
 227 -39 l 1,0,-1
295 559 m 128,-1,81
 268 584 268 584 268 625 c 128,-1,82
 268 666 268 666 293 692.5 c 128,-1,83
 318 719 318 719 360 719 c 0,84,85
 395 719 395 719 422 698 c 0,86,87
 451 674 451 674 451 625 c 0,88,89
 451 587 451 587 425.5 560.5 c 128,-1,90
 400 534 400 534 361 534 c 128,-1,80
 322 534 322 534 295 559 c 128,-1,81
EndSplineSet
EndChar

StartChar: k
Encoding: 107 107 78
Width: 610
GlyphClass: 2
Flags: W
LayerCount: 2
Fore
SplineSet
194 709 m 2,0,1
 223 685 223 685 223 653 c 0,2,3
 223 646 223 646 221 638 c 0,4,5
 221 611 221 611 221 583 c 2,6,-1
 222 281 l 1,7,8
 240 293 240 293 264 315 c 2,9,-1
 335 381 l 1,10,-1
 305 385 l 1,11,-1
 281 424 l 2,12,13
 278 436 278 436 278 443 c 0,14,15
 278 471 278 471 302 485 c 0,16,17
 316 492 316 492 339 494 c 0,18,19
 413 500 413 500 468.5 500 c 128,-1,20
 524 500 524 500 559 491 c 2,21,-1
 567 489 l 1,22,-1
 599 451 l 1,23,-1
 598 441 l 2,24,25
 597 422 597 422 589 407 c 0,26,27
 577 387 577 387 554 379 c 2,28,-1
 507 367 l 1,29,-1
 476 367 l 1,30,31
 388 305 388 305 368 281 c 1,32,-1
 369 277 l 1,33,34
 403 238 403 238 436 196 c 1,35,36
 481 150 481 150 503 129 c 1,37,-1
 513 122 l 1,38,39
 528 117 528 117 536 116 c 0,40,41
 538 116 538 116 539 116 c 0,42,43
 584 116 584 116 604 100 c 0,44,45
 619 89 619 89 622 69 c 2,46,-1
 622 39 l 1,47,-1
 619 34 l 2,48,49
 607 13 607 13 586 3 c 0,50,51
 571 -4 571 -4 551 -5 c 2,52,-1
 550 -5 l 1,53,-1
 478 -5 l 2,54,55
 454 -2 454 -2 430.5 -2 c 128,-1,56
 407 -2 407 -2 377 -5 c 1,57,-1
 373 -4 l 2,58,59
 329 7 329 7 318 37 c 2,60,-1
 316 43 l 1,61,-1
 324 91 l 1,62,-1
 366 105 l 1,63,64
 359 129 359 129 337 164 c 0,65,66
 315 201 315 201 296 216 c 0,67,68
 286 225 286 225 280 225 c 128,-1,69
 274 225 274 225 270 224 c 128,-1,70
 266 223 266 223 262 221.5 c 128,-1,71
 258 220 258 220 255 218.5 c 128,-1,72
 252 217 252 217 249 214 c 0,73,74
 243 210 243 210 238 202 c 0,75,76
 228 188 228 188 226 174 c 2,77,-1
 226 121 l 1,78,-1
 226 120 l 2,79,80
 226 119 226 119 226 117.5 c 128,-1,81
 226 116 226 116 226 114 c 1,82,83
 247 116 247 116 258 116 c 2,84,-1
 264 116 l 1,85,-1
 269 114 l 2,86,87
 295 101 295 101 308 65 c 2,88,-1
 310 60 l 1,89,-1
 310 56 l 2,90,91
 309 9 309 9 267 -6 c 1,92,-1
 263 -7 l 1,93,94
 215 -7 215 -7 166.5 -6.5 c 128,-1,95
 118 -6 118 -6 58 -7 c 1,96,-1
 12 11 l 1,97,-1
 -3 50 l 1,98,-1
 -3 55 l 2,99,100
 -1 78 -1 78 11 93 c 0,101,102
 20 103 20 103 33 108 c 128,-1,103
 46 113 46 113 60 113 c 2,104,-1
 85 112 l 2,105,106
 98 112 98 112 103 115 c 1,107,-1
 103 248 l 1,108,-1
 102 528 l 1,109,-1
 104 600 l 2,110,111
 104 602 104 602 104 603 c 1,112,113
 101 603 101 603 98 603 c 128,-1,114
 95 603 95 603 91 603 c 2,115,-1
 47 606 l 1,116,117
 7 614 7 614 -4 642 c 2,118,-1
 -6 646 l 1,119,-1
 -6 669 l 1,120,-1
 -3 674 l 2,121,122
 4 689 4 689 16 699.5 c 128,-1,123
 28 710 28 710 43 713 c 0,124,125
 73 720 73 720 108 720 c 128,-1,126
 143 720 143 720 188 713 c 1,127,-1
 194 709 l 2,0,1
EndSplineSet
EndChar

StartChar: l
Encoding: 108 108 79
Width: 610
GlyphClass: 2
Flags: W
LayerCount: 2
Fore
SplineSet
381 649 m 1,0,-1
 383 592 l 1,1,2
 380 554 380 554 380 520 c 0,3,4
 380 489 380 489 381 464 c 1,5,-1
 381 464 l 1,6,-1
 381 291 l 2,7,8
 381 283 381 283 375 231 c 1,9,-1
 381 202 l 1,10,-1
 382 131 l 2,11,12
 383 127 383 127 384.5 126.5 c 128,-1,13
 386 126 386 126 391 126 c 2,14,-1
 395 126 l 2,15,16
 432 123 432 123 450 123 c 128,-1,17
 468 123 468 123 480 119 c 1,18,19
 491 123 491 123 503 123 c 0,20,21
 519 123 519 123 538 106 c 0,22,23
 549 96 549 96 552 91 c 0,24,25
 564 72 564 72 564 50 c 0,26,27
 564 42 564 42 561 28 c 1,28,-1
 557 23 l 2,29,30
 526 -14 526 -14 492 -14 c 0,31,32
 485 -14 485 -14 478 -13 c 0,33,34
 430 -9 430 -9 407 -6 c 2,35,-1
 329 -5 l 1,36,-1
 238 -5 l 2,37,38
 223 -6 223 -6 120 -11 c 1,39,40
 72 -6 72 -6 52 13 c 0,41,42
 39 26 39 26 38 45 c 2,43,-1
 38 46 l 1,44,-1
 38 54 l 1,45,-1
 38 55 l 2,46,47
 38 77 38 77 52 94 c 0,48,49
 75 124 75 124 136 126 c 0,50,51
 138 127 138 127 141 128 c 2,52,-1
 154 129 l 2,53,54
 165 129 165 129 184 125.5 c 128,-1,55
 203 122 203 122 213 122 c 0,56,57
 228 122 228 122 237 124 c 0,58,59
 245 127 245 127 248 129 c 128,-1,60
 251 131 251 131 251 131.5 c 128,-1,61
 251 132 251 132 251 133 c 1,62,-1
 251 133 l 1,63,64
 258 359 258 359 258 452 c 128,-1,65
 258 545 258 545 256 582 c 1,66,67
 249 586 249 586 234 586 c 0,68,69
 230 586 230 586 225 586 c 2,70,-1
 177 586 l 2,71,72
 144 586 144 586 129 589 c 128,-1,73
 114 592 114 592 106 595 c 128,-1,74
 98 598 98 598 90.5 602.5 c 128,-1,75
 83 607 83 607 77 616 c 0,76,77
 70 625 70 625 70 637 c 2,78,-1
 70 656 l 2,79,80
 72 689 72 689 107 713 c 2,81,-1
 113 717 l 1,82,-1
 146 717 l 1,83,-1
 147 717 l 2,84,85
 210 715 210 715 228 704 c 1,86,87
 293 712 293 712 312 712 c 0,88,89
 332 716 332 716 350 702.5 c 128,-1,90
 368 689 368 689 381 649 c 1,0,-1
EndSplineSet
EndChar

StartChar: m
Encoding: 109 109 80
Width: 610
GlyphClass: 2
Flags: W
LayerCount: 2
Fore
SplineSet
440 224 m 1,0,-1
 440 315 l 2,1,2
 438 372 438 372 414 377 c 1,3,-1
 410 377 l 1,4,5
 385 369 385 369 373.5 349.5 c 128,-1,6
 362 330 362 330 361 302 c 2,7,-1
 361 91 l 2,8,9
 360 83 360 83 360 78 c 128,-1,10
 360 73 360 73 360.5 69 c 128,-1,11
 361 65 361 65 362 63.5 c 128,-1,12
 363 62 363 62 363.5 61 c 128,-1,13
 364 60 364 60 364 59 c 0,14,15
 366 57 366 57 377 58 c 2,16,-1
 397 59 l 1,17,-1
 402 43 l 1,18,19
 408 47 408 47 412 48 c 2,20,-1
 436 57 l 1,21,-1
 438 59 l 1,22,23
 439 87 439 87 439 108.5 c 128,-1,24
 439 130 439 130 439 143 c 1,25,-1
 439 143 l 1,26,-1
 440 224 l 1,0,-1
90 504 m 0,27,28
 128 503 128 503 149 474 c 1,29,30
 189 506 189 506 232 506 c 0,31,32
 282 506 282 506 314 457 c 1,33,34
 356 500 356 500 418 507 c 1,35,-1
 438 507 l 1,36,-1
 441 506 l 1,37,38
 505 493 505 493 537 447 c 0,39,40
 561 412 561 412 564 360 c 2,41,-1
 564 359 l 1,42,-1
 564 120 l 2,43,44
 564 119 564 119 564 118 c 0,45,46
 564 115 564 115 564.5 114 c 128,-1,47
 565 113 565 113 569 111 c 0,48,49
 578 107 578 107 599 107 c 0,50,51
 600 107 600 107 623 107 c 1,52,-1
 637 22 l 1,53,-1
 618 15 l 2,54,55
 574 -2 574 -2 496 -2 c 0,56,57
 464 -2 464 -2 416 2 c 1,58,59
 405 12 405 12 402 16 c 1,60,-1
 391 0 l 1,61,62
 331 -5 331 -5 287 -5 c 0,63,64
 278 -5 278 -5 273.5 -5 c 128,-1,65
 269 -5 269 -5 267 -5 c 0,66,67
 226 -5 226 -5 206 17 c 1,68,-1
 204 15 l 1,69,-1
 176 0 l 1,70,-1
 28 0 l 1,71,-1
 26 0 l 1,72,73
 5 4 5 4 -7 23 c 0,74,75
 -14 33 -14 33 -17 52 c 2,76,-1
 -17 55 l 1,77,78
 -12 82 -12 82 9 94 c 0,79,80
 24 103 24 103 45 104 c 1,81,-1
 49 106 l 1,82,83
 49 211 49 211 50 389 c 1,84,85
 43 401 43 401 23 401 c 0,86,87
 22 401 22 401 19 401 c 2,88,-1
 -31 408 l 1,89,-1
 -31 466 l 1,90,-1
 -27 471 l 1,91,92
 -5 505 -5 505 65 505 c 0,93,94
 77 505 77 505 90 504 c 0,27,28
171 259 m 1,95,96
 173 170 173 170 171 94 c 1,97,98
 192 89 192 89 208 70 c 1,99,100
 219 82 219 82 237 84 c 1,101,102
 238 108 238 108 238 150 c 2,103,-1
 238 340 l 2,104,105
 238 396 238 396 217 402 c 0,106,107
 215 403 215 403 212 403 c 0,108,109
 191 397 191 397 182 381 c 256,110,111
 173 365 173 365 173 337 c 0,112,113
 173 335 173 335 173 333 c 2,114,-1
 173 332 l 1,115,-1
 171 259 l 1,95,96
EndSplineSet
EndChar

StartChar: n
Encoding: 110 110 81
Width: 610
GlyphClass: 2
Flags: W
LayerCount: 2
Fore
SplineSet
233 302 m 2,0,1
 229 245 229 245 229 171 c 2,2,-1
 229 170 l 2,3,4
 228 140 228 140 234 110 c 1,5,6
 252 107 252 107 269.5 100.5 c 128,-1,7
 287 94 287 94 298 82.5 c 128,-1,8
 309 71 309 71 314 58 c 1,9,10
 325 79 325 79 349 85 c 2,11,-1
 384 90 l 1,12,13
 392 100 392 100 392 120 c 0,14,15
 392 123 392 123 392 128 c 2,16,-1
 392 129 l 2,17,18
 393 176 393 176 392.5 221 c 128,-1,19
 392 266 392 266 392 311 c 0,20,21
 391 368 391 368 363 395 c 0,22,23
 356 402 356 402 348 406 c 0,24,25
 337 409 337 409 327 409 c 0,26,27
 295 404 295 404 274 389 c 0,28,29
 248 371 248 371 237 336 c 1,30,-1
 233 302 l 2,0,1
517 124 m 1,31,32
 530 118 530 118 567 118 c 2,33,-1
 578 118 l 1,34,-1
 615 79 l 1,35,-1
 615 69 l 2,36,37
 615 34 615 34 591 16 c 0,38,39
 573 2 573 2 544 0 c 2,40,-1
 490 0 l 2,41,42
 468 3 468 3 459.5 3 c 128,-1,43
 451 3 451 3 441.5 1.5 c 128,-1,44
 432 0 432 0 414 0 c 2,45,-1
 345 0 l 1,46,-1
 340 3 l 2,47,48
 321 14 321 14 312 30 c 1,49,-1
 311 26 l 1,50,-1
 301 21 l 2,51,52
 260 2 260 2 233.5 2 c 128,-1,53
 207 2 207 2 150 9 c 1,54,-1
 58 9 l 2,55,56
 34 9 34 9 19 25 c 0,57,58
 8 35 8 35 4 51 c 2,59,-1
 2 57 l 1,60,-1
 15 98 l 1,61,-1
 59 117 l 1,62,-1
 95 118 l 2,63,64
 103 117 103 117 110 128 c 2,65,-1
 111 130 l 1,66,-1
 111 335 l 2,67,68
 111 356 111 356 102 380 c 1,69,-1
 99 385 l 1,70,71
 54 392 54 392 33 399 c 128,-1,72
 12 406 12 406 3.5 414.5 c 128,-1,73
 -5 423 -5 423 -5 434 c 2,74,-1
 -5 435 l 1,75,-1
 -2 477 l 1,76,-1
 14 483 l 2,77,78
 75 504 75 504 116 504 c 2,79,-1
 164 504 l 1,80,-1
 212 465 l 1,81,-1
 214 459 l 1,82,83
 267 500 267 500 329 510 c 1,84,-1
 333 510 l 1,85,-1
 385 504 l 1,86,87
 479 471 479 471 508 392 c 0,88,89
 509 387 509 387 516 352 c 1,90,-1
 519 307 l 1,91,-1
 519 246 l 2,92,93
 519 216 519 216 517.5 190.5 c 128,-1,94
 516 165 516 165 516 155 c 0,95,96
 516 138 516 138 517 124 c 1,31,32
EndSplineSet
EndChar

StartChar: o
Encoding: 111 111 82
Width: 610
GlyphClass: 2
Flags: W
LayerCount: 2
Fore
SplineSet
308 -12 m 0,0,1
 285 -12 285 -12 261 -8 c 0,2,3
 219 -1 219 -1 162 32 c 1,4,5
 108 68 108 68 82 120 c 0,6,7
 67 149 67 149 58 171 c 1,8,-1
 47 234 l 1,9,-1
 47 236 l 2,10,11
 47 274 47 274 52 301 c 0,12,13
 58 328 58 328 64 349 c 0,14,15
 115 460 115 460 223 508 c 0,16,17
 242 514 242 514 273 516 c 0,18,19
 284 517 284 517 296 517 c 0,20,21
 337 517 337 517 385 505 c 1,22,-1
 446 467 l 1,23,24
 540 386 540 386 550 281 c 2,25,-1
 553 243 l 1,26,27
 541 124 541 124 482 68 c 1,28,29
 458 36 458 36 398 5 c 1,30,-1
 385 0 l 2,31,32
 348 -12 348 -12 308 -12 c 0,0,1
279 127 m 0,33,34
 295 123 295 123 309 123 c 0,35,36
 334 123 334 123 359 130 c 1,37,38
 429 164 429 164 429 246 c 0,39,40
 429 252 429 252 429 259 c 0,41,42
 422 319 422 319 398 339 c 2,43,-1
 396 341 l 1,44,-1
 395 348 l 1,45,46
 360 394 360 394 299 396 c 1,47,48
 237 393 237 393 204 354 c 1,49,-1
 202 348 l 1,50,51
 192 343 192 343 184 333 c 1,52,53
 176 310 176 310 172 267 c 0,54,55
 172 265 172 265 172 264 c 0,56,57
 172 242 172 242 182 206 c 0,58,59
 203 148 203 148 279 127 c 0,33,34
EndSplineSet
EndChar

StartChar: p
Encoding: 112 112 83
Width: 610
GlyphClass: 2
Flags: W
LayerCount: 2
Fore
SplineSet
50 -78 m 0,0,1
 70 -67 70 -67 96 -67 c 0,2,3
 108 -67 108 -67 122 -69 c 1,4,5
 128 -57 128 -57 128 -35 c 0,6,7
 128 -28 128 -28 127 -20 c 2,8,-1
 128 72 l 1,9,-1
 127 392 l 1,10,-1
 53 399 l 1,11,-1
 50 400 l 2,12,13
 15 412 15 412 15 468 c 2,14,-1
 15 476 l 1,15,-1
 21 483 l 2,16,17
 28 491 28 491 39 495 c 128,-1,18
 50 499 50 499 66 501 c 0,19,20
 98 505 98 505 160 505 c 0,21,22
 168 505 168 505 182 505 c 1,23,24
 199 497 199 497 209 488 c 128,-1,25
 219 479 219 479 229 468 c 1,26,27
 289 515 289 515 352 516 c 1,28,29
 367 541 367 541 383 516 c 1,30,-1
 386 516 l 1,31,-1
 389 515 l 1,32,33
 461 500 461 500 507 455 c 0,34,35
 544 420 544 420 564 366 c 1,36,37
 578 313 578 313 579 281 c 2,38,-1
 579 266 l 2,39,40
 579 241 579 241 570 202 c 0,41,42
 555 141 555 141 516.5 95 c 128,-1,43
 478 49 478 49 417 19 c 0,44,45
 381 -1 381 -1 302 -8 c 1,46,-1
 259 -4 l 1,47,-1
 240 10 l 1,48,-1
 240 -71 l 1,49,-1
 255 -71 l 2,50,51
 324 -71 324 -71 343 -83 c 0,52,53
 345 -84 345 -84 356 -94 c 1,54,-1
 356 -139 l 1,55,-1
 353 -145 l 2,56,57
 324 -199 324 -199 256 -199 c 0,58,59
 219 -199 219 -199 203 -190 c 1,60,61
 167 -200 167 -200 66 -206 c 2,62,-1
 40 -207 l 1,63,-1
 40 -187 l 1,64,65
 36 -186 36 -186 9 -181 c 1,66,-1
 9 -128 l 1,67,-1
 11 -123 l 2,68,69
 24 -93 24 -93 50 -78 c 0,0,1
238 267 m 1,70,-1
 241 258 l 1,71,-1
 241 205 l 2,72,73
 241 196 241 196 238 190 c 0,74,75
 244 150 244 150 260 128 c 0,76,77
 280 100 280 100 320 100 c 0,78,79
 322 100 322 100 324 100 c 0,80,81
 403 111 403 111 423 161 c 1,82,-1
 424 162 l 1,83,84
 438 191 438 191 442 217 c 2,85,-1
 445 233 l 2,86,87
 446 256 446 256 450 280 c 1,88,-1
 450 296 l 2,89,90
 450 309 450 309 446 320 c 0,91,92
 431 394 431 394 390 421 c 0,93,94
 375 430 375 430 353 431 c 1,95,96
 314 421 314 421 289 400 c 0,97,98
 256 374 256 374 242 330 c 1,99,100
 241 280 241 280 238 267 c 1,70,-1
EndSplineSet
EndChar

StartChar: q
Encoding: 113 113 84
Width: 610
GlyphClass: 2
Flags: W
LayerCount: 2
Fore
SplineSet
420 499 m 0,0,1
 433 518 433 518 458 518 c 0,2,3
 466 518 466 518 476 516 c 0,4,5
 488 515 488 515 497 508 c 0,6,7
 511 498 511 498 517 479 c 0,8,9
 523 461 523 461 523 432 c 0,10,11
 523 416 523 416 521 395 c 0,12,13
 511 143 511 143 511 79.5 c 128,-1,14
 511 16 511 16 512 -31 c 2,15,-1
 512 -32 l 2,16,17
 512 -60 512 -60 517 -74 c 0,18,19
 520 -81 520 -81 522 -81 c 2,20,21
 522 -81 522 -81 523 -81 c 2,22,-1
 524 -81 l 2,23,24
 570 -83 570 -83 584 -83 c 2,25,-1
 588 -83 l 1,26,27
 628 -95 628 -95 631 -139 c 2,28,-1
 631 -143 l 1,29,30
 620 -198 620 -198 551 -202 c 1,31,-1
 458 -198 l 1,32,-1
 348 -200 l 1,33,34
 314 -195 314 -195 294 -185.5 c 128,-1,35
 274 -176 274 -176 266 -161 c 2,36,-1
 263 -156 l 1,37,-1
 262 -131 l 1,38,-1
 264 -126 l 2,39,40
 272 -102 272 -102 294 -91 c 0,41,42
 310 -83 310 -83 331 -83 c 2,43,-1
 391 -83 l 1,44,-1
 392 48 l 1,45,46
 379 36 379 36 363 26 c 0,47,48
 321 2 321 2 275 2 c 0,49,50
 245 2 245 2 220 10 c 0,51,52
 195 17 195 17 177 26 c 0,53,54
 139 44 139 44 116 71 c 0,55,56
 92 98 92 98 68 138 c 1,57,58
 47 197 47 197 47 259 c 0,59,60
 47 271 47 271 47 273 c 0,61,62
 59 348 59 348 79 390 c 0,63,64
 95 424 95 424 116 439 c 1,65,66
 146 489 146 489 259 511 c 1,67,-1
 294 514 l 1,68,69
 356 509 356 509 410 473 c 1,70,71
 412 489 412 489 420 499 c 0,0,1
395 238 m 1,72,-1
 395 277 l 2,73,74
 395 281 395 281 391 343 c 1,75,76
 381 368 381 368 365 385 c 0,77,78
 331 424 331 424 292 424 c 0,79,80
 277 424 277 424 263 420 c 128,-1,81
 249 416 249 416 241.5 412 c 128,-1,82
 234 408 234 408 227.5 403.5 c 128,-1,83
 221 399 221 399 215 393 c 0,84,85
 173 352 173 352 167 257 c 1,86,-1
 167 240 l 2,87,88
 169 194 169 194 185 162 c 0,89,90
 204 125 204 125 242 107 c 1,91,-1
 275 99 l 1,92,-1
 301 103 l 1,93,94
 380 139 380 139 395 238 c 1,72,-1
EndSplineSet
EndChar

StartChar: r
Encoding: 114 114 85
Width: 610
GlyphClass: 2
Flags: W
LayerCount: 2
Fore
SplineSet
103 120 m 2,0,-1
 104 120 l 2,1,2
 126 119 126 119 136 119 c 0,3,4
 163 121 163 121 174 128 c 1,5,6
 178 150 178 150 178 186 c 2,7,-1
 178 363 l 2,8,9
 179 367 179 367 179 369 c 0,10,11
 179 373 179 373 177 373 c 0,12,13
 172 376 172 376 161.5 376 c 128,-1,14
 151 376 151 376 138 374 c 0,15,16
 131 374 131 374 120 374 c 0,17,18
 92 374 92 374 72 383 c 0,19,20
 47 394 47 394 40 416 c 0,21,22
 37 425 37 425 37 430.5 c 128,-1,23
 37 436 37 436 37 438 c 128,-1,24
 37 440 37 440 37.5 442.5 c 128,-1,25
 38 445 38 445 38 447 c 128,-1,26
 38 449 38 449 38.5 451 c 128,-1,27
 39 453 39 453 40 455 c 0,28,29
 47 478 47 478 68 489.5 c 128,-1,30
 89 501 89 501 123 501 c 0,31,32
 138 501 138 501 156 499 c 2,33,-1
 265 497 l 1,34,-1
 271 483 l 2,35,36
 282 461 282 461 288 434 c 1,37,38
 337 486 337 486 417 511 c 1,39,40
 444 514 444 514 456.5 514 c 128,-1,41
 469 514 469 514 481.5 512.5 c 128,-1,42
 494 511 494 511 522 504 c 1,43,-1
 524 503 l 1,44,45
 584 481 584 481 599 419 c 0,46,47
 601 411 601 411 601 399 c 0,48,49
 601 337 601 337 557 311 c 0,50,51
 539 301 539 301 514 296 c 1,52,-1
 512 296 l 2,53,54
 495 296 495 296 486 298.5 c 128,-1,55
 477 301 477 301 472 303 c 0,56,57
 463 306 463 306 455 311 c 0,58,59
 426 331 426 331 424 370 c 2,60,-1
 424 371 l 2,61,62
 424 383 424 383 432 399 c 2,63,-1
 436 407 l 1,64,65
 348 380 348 380 310 318 c 0,66,67
 293 284 293 284 293 249 c 2,68,-1
 293 247 l 1,69,70
 288 212 288 212 288 181.5 c 128,-1,71
 288 151 288 151 295 128 c 1,72,73
 334 126 334 126 363 126 c 2,74,-1
 365 126 l 1,75,76
 420 115 420 115 428 64 c 2,77,-1
 429 57 l 1,78,-1
 426 50 l 2,79,80
 416 28 416 28 400 14.5 c 128,-1,81
 384 1 384 1 363 1 c 2,82,-1
 360 1 l 1,83,-1
 338 7 l 1,84,85
 323 2 323 2 300.5 2 c 128,-1,86
 278 2 278 2 247 8 c 0,87,88
 234 8 234 8 229 8 c 0,89,90
 161 8 161 8 134 5 c 1,91,-1
 134 1 l 1,92,-1
 113 -3 l 2,93,94
 103 -4 103 -4 94 -4 c 0,95,96
 62 -4 62 -4 46 18 c 0,97,98
 34 34 34 34 34 60 c 2,99,-1
 34 77 l 1,100,-1
 40 84 l 2,101,102
 73 120 73 120 103 120 c 2,0,-1
EndSplineSet
EndChar

StartChar: s
Encoding: 115 115 86
Width: 610
GlyphClass: 2
Flags: W
LayerCount: 2
Fore
SplineSet
91 148 m 1,0,-1
 91 152 l 1,1,2
 75 182 75 182 75 212 c 2,3,-1
 75 223 l 1,4,-1
 116 253 l 1,5,-1
 143 253 l 1,6,-1
 148 251 l 2,7,8
 187 236 187 236 222 149 c 1,9,10
 244 121 244 121 301 115 c 0,11,12
 332 111 332 111 367 116 c 0,13,14
 387 120 387 120 398 130 c 128,-1,15
 409 140 409 140 409 162 c 2,16,-1
 409 172 l 1,17,18
 403 202 403 202 379 213 c 0,19,20
 369 217 369 217 354 219 c 2,21,-1
 314 227 l 1,22,23
 192 232 192 232 147 265 c 0,24,25
 127 280 127 280 121 302 c 1,26,27
 109 311 109 311 97 331 c 2,28,-1
 91 340 l 1,29,-1
 99 357 l 1,30,-1
 94 390 l 1,31,-1
 94 391 l 2,32,33
 94 429 94 429 136 461 c 0,34,35
 142 469 142 469 156 476 c 128,-1,36
 170 483 170 483 195 490 c 1,37,38
 212 515 212 515 250 515 c 0,39,40
 259 515 259 515 266 510 c 1,41,-1
 292 515 l 1,42,-1
 309 515 l 1,43,44
 387 502 387 502 414 482 c 1,45,46
 426 486 426 486 439 500 c 2,47,-1
 443 504 l 1,48,-1
 467 514 l 1,49,50
 480 513 480 513 484.5 511.5 c 128,-1,51
 489 510 489 510 491 509 c 0,52,53
 519 495 519 495 519 452 c 0,54,55
 519 449 519 449 519 438 c 1,56,57
 506 422 506 422 504 416 c 0,58,59
 504 399 504 399 507 375 c 2,60,-1
 507 319 l 1,61,-1
 475 303 l 1,62,-1
 441 303 l 1,63,64
 464 294 464 294 478 282 c 1,65,66
 518 262 518 262 536 203 c 0,67,68
 540 184 540 184 540 173 c 128,-1,69
 540 162 540 162 540 158 c 128,-1,70
 540 154 540 154 539.5 150.5 c 128,-1,71
 539 147 539 147 538.5 143 c 128,-1,72
 538 139 538 139 538 135 c 0,73,74
 536 128 536 128 534 120 c 0,75,76
 522 85 522 85 502 63 c 0,77,78
 451 7 451 7 326 -1 c 1,79,80
 220 8 220 8 176 30 c 1,81,82
 170 25 170 25 156 18 c 1,83,-1
 119 18 l 2,84,85
 100 18 100 18 89 31 c 0,86,87
 82 40 82 40 82 52 c 0,88,89
 82 119 82 119 91 148 c 1,0,-1
339 333 m 1,90,-1
 339 329 l 1,91,-1
 371 329 l 1,92,93
 403 322 403 322 426 314 c 1,94,-1
 422 322 l 2,95,96
 412 342 412 342 411 372 c 1,97,-1
 404 392 l 1,98,-1
 403 394 l 2,99,100
 402 401 402 401 397 406 c 0,101,102
 379 422 379 422 327 428 c 1,103,-1
 320 424 l 1,104,-1
 311 419 l 1,105,106
 272 428 272 428 256 428 c 0,107,108
 228 427 228 427 217 413 c 0,109,110
 210 405 210 405 207 389 c 1,111,-1
 208 378 l 1,112,113
 229 342 229 342 316 335 c 2,114,-1
 339 333 l 1,90,-1
EndSplineSet
EndChar

StartChar: t
Encoding: 116 116 87
Width: 610
GlyphClass: 2
Flags: W
LayerCount: 2
Fore
SplineSet
196 218 m 1,0,-1
 201 290 l 1,1,2
 199 359 199 359 199 372 c 2,3,-1
 199 385 l 2,4,5
 199 388 199 388 198 389 c 2,6,-1
 196 391 l 2,7,8
 190 394 190 394 175 394 c 2,9,-1
 92 389 l 1,10,11
 61 398 61 398 46 409.5 c 128,-1,12
 31 421 31 421 27 437 c 1,13,-1
 27 439 l 1,14,-1
 27 460 l 1,15,16
 39 488 39 488 50 498 c 0,17,18
 61 509 61 509 75 509 c 2,19,-1
 103 509 l 1,20,21
 119 505 119 505 144 505 c 128,-1,22
 169 505 169 505 194 506 c 0,23,24
 195 508 195 508 196 512 c 0,25,26
 200 551 200 551 200 567 c 0,27,28
 199 575 199 575 194 600 c 0,29,30
 194 608 194 608 194 613 c 0,31,32
 194 686 194 686 230 706 c 2,33,-1
 235 709 l 1,34,-1
 271 709 l 1,35,-1
 274 708 l 2,36,37
 301 700 301 700 313 674 c 0,38,39
 321 657 321 657 321 632 c 2,40,-1
 321 631 l 2,41,42
 318 600 318 600 318 570 c 0,43,44
 318 530 318 530 319 508 c 1,45,-1
 320 507 l 1,46,47
 373 502 373 502 433 502 c 0,48,49
 456 502 456 502 490 503 c 1,50,-1
 497 498 l 2,51,52
 525 477 525 477 525 444 c 0,53,54
 525 426 525 426 516 406 c 2,55,-1
 510 393 l 1,56,57
 441 384 441 384 419 384 c 2,58,-1
 332 384 l 2,59,60
 327 384 327 384 324 384 c 128,-1,61
 321 384 321 384 319 384 c 1,62,63
 319 383 319 383 319 382 c 2,64,-1
 319 241 l 1,65,-1
 319 241 l 1,66,67
 318 228 318 228 318 216 c 128,-1,68
 318 204 318 204 319.5 194 c 128,-1,69
 321 184 321 184 323 179 c 2,70,-1
 327 146 l 1,71,-1
 338 120 l 1,72,-1
 358 109 l 2,73,74
 359 109 359 109 359 109 c 2,75,76
 391 109 391 109 405 129 c 1,77,78
 415 157 415 157 415 182 c 2,79,-1
 415 188 l 1,80,-1
 436 224 l 1,81,-1
 441 227 l 2,82,83
 465 244 465 244 493 244 c 0,84,85
 501 244 501 244 521 241 c 1,86,87
 537 210 537 210 541 200 c 0,88,89
 547 182 547 182 547 167.5 c 128,-1,90
 547 153 547 153 543 135 c 0,91,92
 534 101 534 101 509 64 c 0,93,94
 477 21 477 21 399 -3 c 2,95,-1
 396 -4 l 1,96,-1
 333 -7 l 1,97,-1
 331 -7 l 1,98,99
 264 4 264 4 222 66 c 1,100,-1
 220 68 l 1,101,102
 196 130 196 130 196 218 c 1,103,-1
 196 218 l 1,0,-1
317 384 m 1024,104,-1
EndSplineSet
EndChar

StartChar: u
Encoding: 117 117 88
Width: 610
GlyphClass: 2
Flags: W
LayerCount: 2
Fore
SplineSet
513 190 m 1,0,-1
 509 140 l 1,1,2
 526 125 526 125 571 125 c 0,3,4
 577 125 577 125 600 126 c 1,5,-1
 624 80 l 1,6,-1
 624 56 l 1,7,-1
 622 51 l 2,8,9
 612 30 612 30 597 17 c 0,10,11
 577 1 577 1 549 1 c 2,12,-1
 544 1 l 2,13,14
 518 -1 518 -1 493 -1 c 128,-1,15
 468 -1 468 -1 454 1.5 c 128,-1,16
 440 4 440 4 433 6.5 c 128,-1,17
 426 9 426 9 420 13 c 0,18,19
 400 26 400 26 400 47 c 2,20,-1
 400 53 l 2,21,22
 400 60 400 60 400 71 c 1,23,24
 357 27 357 27 288 9 c 0,25,26
 248 -2 248 -2 242.5 -3 c 128,-1,27
 237 -4 237 -4 235 -4 c 0,28,29
 233 -5 233 -5 229 -5 c 2,30,-1
 225 -5 l 1,31,-1
 222 -4 l 1,32,33
 119 23 119 23 109 85 c 1,34,35
 96 98 96 98 89 133 c 1,36,-1
 90 164 l 1,37,-1
 84 195 l 1,38,-1
 84 197 l 2,39,40
 84 206 84 206 90 336 c 1,41,-1
 90 379 l 1,42,43
 66 396 66 396 21 397 c 2,44,-1
 -4 397 l 1,45,-1
 -4 457 l 1,46,-1
 -4 458 l 2,47,48
 -3 483 -3 483 17 495 c 0,49,50
 32 505 32 505 53 505 c 2,51,-1
 59 505 l 2,52,53
 81 505 81 505 94 500 c 1,54,-1
 143 505 l 1,55,-1
 144 505 l 2,56,57
 169 505 169 505 188 492 c 0,58,59
 217 470 217 470 217 419 c 1,60,-1
 217 419 l 1,61,-1
 214 263 l 1,62,-1
 212 221 l 1,63,64
 204 184 204 184 204 168 c 0,65,66
 206 151 206 151 208.5 143.5 c 128,-1,67
 211 136 211 136 212 133.5 c 128,-1,68
 213 131 213 131 214 129 c 0,69,70
 216 124 216 124 222 118 c 1,71,72
 226 102 226 102 231 97 c 0,73,74
 233 94 233 94 238 90.5 c 128,-1,75
 243 87 243 87 255 85 c 1,76,77
 283 90 283 90 332 108 c 1,78,79
 374 154 374 154 384 199 c 0,80,81
 397 249 397 249 400 296 c 2,82,-1
 399 377 l 1,83,84
 392 380 392 380 387 381 c 0,85,86
 341 374 341 374 331 374 c 2,87,-1
 320 374 l 1,88,-1
 274 425 l 1,89,-1
 288 459 l 2,90,91
 299 488 299 488 325 502 c 2,92,-1
 332 506 l 1,93,-1
 375 499 l 1,94,95
 407 505 407 505 437 505 c 0,96,97
 471 505 471 505 495 485 c 0,98,99
 513 472 513 472 523 449 c 2,100,-1
 525 445 l 1,101,-1
 516 307 l 1,102,-1
 513 190 l 1,0,-1
EndSplineSet
EndChar

StartChar: v
Encoding: 118 118 89
Width: 610
GlyphClass: 2
Flags: W
LayerCount: 2
Fore
SplineSet
611 440.5 m 128,-1,1
 611 426 611 426 604.5 415.5 c 128,-1,2
 598 405 598 405 588.5 397 c 128,-1,3
 579 389 579 389 558 384 c 1,4,-1
 514 382 l 1,5,6
 438 183 438 183 421 133 c 0,7,8
 408 95 408 95 401 82 c 0,9,10
 387 47 387 47 372 26 c 0,11,12
 363 10 363 10 351 0 c 0,13,14
 332 -16 332 -16 308 -16 c 2,15,-1
 289 -16 l 1,16,-1
 284 -13 l 2,17,18
 257 -1 257 -1 232 51 c 0,19,20
 223 69 223 69 214 92 c 0,21,22
 201 117 201 117 138 270 c 0,23,24
 117 320 117 320 92 375 c 0,25,26
 90 381 90 381 87 384 c 0,27,28
 43 386 43 386 23 396 c 0,29,30
 15 399 15 399 10 404.5 c 128,-1,31
 5 410 5 410 3 414 c 128,-1,32
 1 418 1 418 -1 423 c 0,33,34
 -4 432 -4 432 -6 449 c 2,35,-1
 -6 452 l 1,36,37
 -2 481 -2 481 34 494 c 1,38,-1
 38 496 l 1,39,-1
 215 501 l 2,40,41
 257 501 257 501 275.5 488 c 128,-1,42
 294 475 294 475 300 447 c 1,43,-1
 302 442 l 1,44,-1
 301 437 l 2,45,46
 294 404 294 404 258 386 c 0,47,48
 242 378 242 378 225 375 c 1,49,-1
 262 261 l 1,50,51
 302 163 302 163 310 146 c 1,52,53
 319 167 319 167 329 193 c 2,54,-1
 382 359 l 2,55,56
 384 371 384 371 385 379 c 1,57,-1
 382 382 l 1,58,59
 363 385 363 385 332 387 c 1,60,-1
 325 396 l 2,61,62
 309 416 309 416 309 444 c 0,63,64
 309 458 309 458 314 468 c 0,65,66
 321 486 321 486 340 490 c 0,67,68
 349 492 349 492 364 492 c 0,69,70
 367 493 367 493 403 497 c 0,71,72
 445 499 445 499 510 499 c 2,73,-1
 511 499 l 1,74,-1
 576 494 l 1,75,-1
 582 490 l 2,76,77
 596 480 596 480 603.5 467.5 c 128,-1,0
 611 455 611 455 611 440.5 c 128,-1,1
EndSplineSet
EndChar

StartChar: w
Encoding: 119 119 90
Width: 610
GlyphClass: 2
Flags: W
LayerCount: 2
Fore
SplineSet
22 490 m 0,0,1
 42 499 42 499 71 499 c 2,2,-1
 197 499 l 1,3,4
 213 492 213 492 221.5 485.5 c 128,-1,5
 230 479 230 479 236 468 c 128,-1,6
 242 457 242 457 242 445 c 0,7,8
 242 427 242 427 228 408 c 2,9,-1
 221 397 l 1,10,-1
 208 397 l 2,11,12
 178 397 178 397 166 390 c 1,13,14
 182 295 182 295 202 177 c 1,15,16
 221 253 221 253 255 371 c 1,17,-1
 258 375 l 2,18,19
 285 412 285 412 315 412 c 0,20,21
 359 412 359 412 375 349 c 0,22,23
 376 346 376 346 410 190 c 1,24,25
 434 312 434 312 440 388 c 0,26,27
 441 391 441 391 441 392 c 0,28,29
 434 399 434 399 408 401 c 2,30,-1
 385 403 l 1,31,-1
 385 452 l 1,32,-1
 387 456 l 1,33,34
 404 500 404 500 468 500 c 2,35,-1
 564 500 l 2,36,37
 595 500 595 500 611 477 c 0,38,39
 622 463 622 463 622 441 c 0,40,41
 622 434 622 434 618 403 c 1,42,43
 587 408 587 408 583 408 c 0,44,45
 575 408 575 408 570.5 405.5 c 128,-1,46
 566 403 566 403 562 395 c 2,47,-1
 561 394 l 1,48,-1
 561 394 l 1,49,50
 552 371 552 371 532.5 268.5 c 128,-1,51
 513 166 513 166 499 110 c 128,-1,52
 485 54 485 54 470 12 c 1,53,-1
 467 8 l 2,54,55
 445 -16 445 -16 408 -16 c 0,56,57
 399 -16 399 -16 382 -14 c 1,58,-1
 353 17 l 1,59,60
 329 74 329 74 308 180 c 0,61,62
 308 181 308 181 304 204 c 1,63,64
 257 27 257 27 248 -7 c 1,65,-1
 204 -23 l 1,66,-1
 154 -9 l 1,67,-1
 126 34 l 1,68,-1
 91 178 l 1,69,-1
 48 381 l 1,70,71
 42 384 42 384 28 384 c 2,72,-1
 21 384 l 2,73,74
 12 384 12 384 2.5 388.5 c 128,-1,75
 -7 393 -7 393 -12.5 403.5 c 128,-1,76
 -18 414 -18 414 -18 430 c 2,77,-1
 -18 443 l 1,78,-1
 -17 446 l 2,79,80
 -7 477 -7 477 22 490 c 0,0,1
EndSplineSet
EndChar

StartChar: x
Encoding: 120 120 91
Width: 610
GlyphClass: 2
Flags: W
LayerCount: 2
Fore
SplineSet
310 193 m 1,0,1
 275 147 275 147 254 118 c 1,2,3
 266 116 266 116 272 116 c 2,4,-1
 290 116 l 1,5,-1
 309 62 l 1,6,-1
 305 53 l 2,7,8
 291 23 291 23 265 8 c 2,9,-1
 260 5 l 1,10,-1
 253 5 l 2,11,12
 213 5 213 5 177 10 c 2,13,-1
 144 12 l 2,14,15
 122 15 122 15 103 15 c 128,-1,16
 84 15 84 15 65 12 c 2,17,-1
 23 12 l 1,18,-1
 15 22 l 2,19,20
 -3 46 -3 46 -3 64 c 2,21,-1
 -3 68 l 1,22,23
 15 116 15 116 41 122 c 2,24,-1
 44 123 l 1,25,-1
 87 123 l 1,26,-1
 90 123 l 2,27,28
 95 123 95 123 103 127 c 0,29,30
 118 134 118 134 136 151 c 2,31,-1
 249 265 l 1,32,33
 231 290 231 290 198 329 c 256,34,35
 165 368 165 368 151 386 c 1,36,37
 141 392 141 392 136 399 c 1,38,-1
 115 402 l 1,39,-1
 73 402 l 2,40,41
 59 403 59 403 47 413 c 0,42,43
 39 421 39 421 30 442 c 1,44,-1
 30 463 l 2,45,46
 32 477 32 477 37 484 c 0,47,48
 47 497 47 497 62 500 c 0,49,50
 92 506 92 506 100 506 c 0,51,52
 101 506 101 506 101 506 c 2,53,54
 113 506 113 506 123 503 c 2,55,-1
 214 506 l 1,56,57
 271 501 271 501 291.5 488 c 128,-1,58
 312 475 312 475 312 454 c 2,59,-1
 312 414 l 1,60,-1
 266 403 l 1,61,62
 267 401 267 401 275.5 387 c 128,-1,63
 284 373 284 373 304 346 c 0,64,65
 308 341 308 341 319 324 c 1,66,67
 337 348 337 348 372 397 c 1,68,69
 360 400 360 400 352 408 c 0,70,71
 338 420 338 420 338 439 c 2,72,-1
 338 452 l 2,73,74
 338 472 338 472 357 485 c 0,75,76
 377 499 377 499 430 502 c 2,77,-1
 431 502 l 1,78,-1
 503 501 l 1,79,-1
 548 495 l 2,80,81
 565 493 565 493 577 484 c 0,82,83
 594 471 594 471 595 446 c 2,84,-1
 594 431 l 2,85,86
 593 414 593 414 581 404 c 0,87,88
 576 400 576 400 567.5 396 c 128,-1,89
 559 392 559 392 542 391 c 2,90,-1
 507 391 l 1,91,92
 490 386 490 386 478 371 c 0,93,94
 429 315 429 315 382 258 c 1,95,96
 446 174 446 174 492 125 c 0,97,98
 508 108 508 108 519 104 c 0,99,100
 525 102 525 102 530 101 c 2,101,-1
 564 107 l 1,102,-1
 570 106 l 2,103,104
 593 100 593 100 604 84 c 0,105,106
 613 72 613 72 613 55 c 0,107,108
 613 47 613 47 608 29 c 1,109,-1
 599 24 l 2,110,111
 559 2 559 2 530 2 c 0,112,113
 520 2 520 2 467 9 c 0,114,115
 456 7 456 7 431 2 c 1,116,-1
 317 20 l 1,117,-1
 317 55 l 2,118,119
 317 72 317 72 328.5 87 c 128,-1,120
 340 102 340 102 362 112 c 1,121,122
 349 144 349 144 310 193 c 1,0,1
EndSplineSet
EndChar

StartChar: y
Encoding: 121 121 92
Width: 610
GlyphClass: 2
Flags: W
LayerCount: 2
Fore
SplineSet
98 38 m 0,0,1
 141 38 141 38 169 -9 c 0,2,3
 182 -34 182 -34 182 -57 c 128,-1,4
 182 -80 182 -80 173 -95 c 1,5,6
 199 -94 199 -94 216 -77.5 c 128,-1,7
 233 -61 233 -61 243 -29 c 0,8,9
 256 0 256 0 259 38 c 2,10,-1
 259 47 l 1,11,12
 247 78 247 78 238.5 96.5 c 128,-1,13
 230 115 230 115 218 139.5 c 128,-1,14
 206 164 206 164 191 192 c 0,15,16
 162 248 162 248 123 315 c 0,17,18
 106 342 106 342 85 376 c 1,19,20
 68 382 68 382 42 382 c 0,21,22
 36 382 36 382 12 381 c 1,23,-1
 -5 422 l 1,24,-1
 -5 455 l 2,25,26
 -5 472 -5 472 9 484 c 0,27,28
 25 497 25 497 64 501 c 1,29,-1
 65 501 l 2,30,31
 93 501 93 501 133 502 c 2,32,-1
 134 502 l 2,33,34
 210 503 210 503 238 503 c 2,35,-1
 248 503 l 1,36,-1
 252 502 l 2,37,38
 262 498 262 498 269 491 c 0,39,40
 282 479 282 479 289 459 c 2,41,-1
 290 455 l 1,42,-1
 290 430 l 1,43,-1
 289 426 l 2,44,45
 280 402 280 402 258 390 c 0,46,47
 244 384 244 384 226 382 c 1,48,-1
 251 314 l 1,49,50
 298 198 298 198 329 142 c 1,51,52
 366 217 366 217 395 330 c 2,53,-1
 407 371 l 1,54,-1
 406 376 l 2,55,56
 402 388 402 388 371 388 c 0,57,58
 365 388 365 388 335 385 c 1,59,-1
 325 440 l 2,60,61
 324 448 324 448 324 455 c 0,62,63
 324 479 324 479 342 492 c 0,64,65
 354 502 354 502 373 503 c 2,66,-1
 476 506 l 1,67,-1
 536 503 l 1,68,-1
 563 503 l 2,69,70
 564 503 564 503 565 503 c 0,71,72
 592 503 592 503 609 485 c 0,73,74
 621 473 621 473 626 451 c 0,75,76
 626 448 626 448 626 446 c 0,77,78
 626 424 626 424 617 410 c 0,79,80
 604 387 604 387 575 383 c 2,81,-1
 570 382 l 1,82,83
 557 385 557 385 550.5 385 c 128,-1,84
 544 385 544 385 540 385 c 2,85,-1
 518 341 l 1,86,-1
 471 222 l 1,87,-1
 428 118 l 2,88,89
 402 52 402 52 383 15 c 2,90,-1
 354 -49 l 1,91,-1
 339 -84 l 1,92,93
 305 -140 305 -140 285 -162 c 0,94,95
 248 -194 248 -194 187 -204 c 1,96,-1
 129 -206 l 1,97,98
 86 -201 86 -201 53 -179 c 0,99,100
 28 -159 28 -159 27 -159 c 0,101,102
 -5 -130 -5 -130 -5 -71 c 0,103,104
 -5 -65 -5 -65 -5 -54 c 1,105,-1
 18 0 l 1,106,-1
 23 4 l 2,107,108
 63 38 63 38 98 38 c 0,0,1
EndSplineSet
EndChar

StartChar: z
Encoding: 122 122 93
Width: 610
GlyphClass: 2
Flags: W
LayerCount: 2
Fore
SplineSet
359 389 m 0,0,1
 361 390 361 390 362 392 c 1,2,3
 359 393 359 393 356 393 c 2,4,-1
 301 393 l 2,5,6
 239 394 239 394 234 394 c 128,-1,7
 229 394 229 394 224 394 c 0,8,9
 213 394 213 394 205 392 c 1,10,-1
 193 362 l 1,11,12
 194 348 194 348 199 329 c 0,13,14
 199 323 199 323 199 320 c 0,15,16
 199 287 199 287 177 271 c 0,17,18
 161 259 161 259 135 259 c 2,19,-1
 128 259 l 2,20,21
 106 259 106 259 80 298 c 0,22,23
 78 300 78 300 72 309 c 1,24,-1
 72 346 l 2,25,26
 72 425 72 425 89 463 c 0,27,28
 100 487 100 487 119 498 c 0,29,30
 132 505 132 505 148 505 c 2,31,-1
 451 505 l 1,32,33
 479 501 479 501 496 488 c 0,34,35
 519 472 519 472 519 443 c 0,36,37
 519 433 519 433 516 420 c 0,38,39
 482 359 482 359 396 280 c 1,40,41
 268 151 268 151 240 116 c 1,42,43
 244 115 244 115 250 115 c 2,44,-1
 390 115 l 2,45,46
 409 118 409 118 418 136 c 0,47,48
 427 156 427 156 427 193 c 2,49,-1
 427 194 l 2,50,51
 424 208 424 208 424 213 c 128,-1,52
 424 218 424 218 424 220 c 0,53,54
 424 241 424 241 432.5 258.5 c 128,-1,55
 441 276 441 276 458 286 c 2,56,-1
 464 289 l 1,57,-1
 477 289 l 2,58,59
 515 287 515 287 531 251 c 0,60,61
 541 229 541 229 541 192 c 0,62,63
 541 187 541 187 541 181 c 0,64,65
 538 94 538 94 523 52 c 0,66,67
 516 32 516 32 504 18.5 c 128,-1,68
 492 5 492 5 473 3 c 0,69,70
 449 0 449 0 400 -7 c 1,71,72
 213 1 213 1 191.5 1 c 128,-1,73
 170 1 170 1 121 -2 c 0,74,75
 94 0 94 0 79 10 c 0,76,77
 55 24 55 24 55 51 c 0,78,79
 55 69 55 69 67 93 c 1,80,81
 108 140 108 140 177 205 c 0,82,83
 272 300 272 300 359 389 c 0,0,1
EndSplineSet
EndChar

StartChar: braceleft
Encoding: 123 123 94
Width: 610
GlyphClass: 2
Flags: W
LayerCount: 2
Fore
SplineSet
350 -28 m 0,0,1
 347 -41 347 -41 347 -46 c 0,2,3
 347 -97 347 -97 374 -120 c 0,4,5
 398 -140 398 -140 452 -140 c 2,6,-1
 472 -139 l 1,7,-1
 499 -137 l 1,8,-1
 499 -232 l 1,9,10
 448 -230 448 -230 427 -228 c 0,11,12
 385 -224 385 -224 362 -215 c 0,13,14
 271 -183 271 -183 234 -119 c 0,15,16
 214 -84 214 -84 214 -40 c 0,17,18
 214 2 214 2 227 52 c 0,19,20
 232 72 232 72 235 91 c 128,-1,21
 238 110 238 110 238 140 c 0,22,23
 238 175 238 175 208 205 c 0,24,25
 197 215 197 215 177 221.5 c 128,-1,26
 157 228 157 228 85 234 c 2,27,-1
 62 236 l 1,28,-1
 62 334 l 1,29,-1
 86 335 l 2,30,31
 145 338 145 338 178 347 c 0,32,33
 201 354 201 354 210 362 c 0,34,35
 232 384 232 384 232 417 c 0,36,37
 232 471 232 471 221 512 c 128,-1,38
 210 553 210 553 210 598.5 c 128,-1,39
 210 644 210 644 232 680 c 0,40,41
 253 714 253 714 285 738 c 0,42,43
 333 775 333 775 416 786 c 0,44,45
 441 789 441 789 467 790 c 2,46,-1
 493 791 l 1,47,-1
 493 709 l 1,48,-1
 471 707 l 2,49,50
 400 700 400 700 369.5 671 c 128,-1,51
 339 642 339 642 339 607.5 c 128,-1,52
 339 573 339 573 348 538 c 128,-1,53
 357 503 357 503 357 460 c 0,54,55
 357 380 357 380 310 324 c 0,56,57
 287 297 287 297 263 281 c 1,58,59
 283 268 283 268 296.5 255 c 128,-1,60
 310 242 310 242 318.5 231 c 128,-1,61
 327 220 327 220 333 211 c 0,62,63
 345 192 345 192 352 171 c 0,64,65
 363 139 363 139 363 90 c 128,-1,66
 363 41 363 41 350 -28 c 0,0,1
EndSplineSet
EndChar

StartChar: bar
Encoding: 124 124 95
Width: 610
GlyphClass: 2
Flags: W
LayerCount: 2
Fore
SplineSet
264 834 m 2,0,1
 274 839 274 839 288 839 c 0,2,3
 314 839 314 839 344 819 c 2,4,-1
 348 816 l 1,5,6
 362 794 362 794 366 784 c 0,7,8
 372 767 372 767 372 756 c 0,9,10
 371 745 371 745 366 735 c 1,11,12
 369 703 369 703 363 621 c 1,13,-1
 365 356 l 1,14,-1
 366 -16 l 2,15,16
 366 -30 366 -30 366 -40.5 c 128,-1,17
 366 -51 366 -51 366 -66 c 0,18,19
 368 -97 368 -97 372 -137 c 1,20,-1
 357 -219 l 1,21,-1
 333 -226 l 2,22,23
 324 -228 324 -228 320 -228 c 0,24,25
 303 -228 303 -228 281 -215 c 2,26,-1
 239 -189 l 1,27,28
 229 -113 229 -113 229 -61 c 0,29,30
 229 -32 229 -32 231 -8 c 2,31,-1
 235 299 l 1,32,33
 232 483 232 483 232 585 c 1,34,-1
 224 725 l 1,35,-1
 227 731 l 2,36,37
 233 742 233 742 233 778 c 0,38,39
 233 786 233 786 233 802 c 1,40,-1
 247 825 l 1,41,-1
 264 834 l 2,0,1
EndSplineSet
EndChar

StartChar: braceright
Encoding: 125 125 96
Width: 610
GlyphClass: 2
Flags: W
LayerCount: 2
Fore
SplineSet
214 464 m 0,0,1
 214 503 214 503 223 538 c 128,-1,2
 232 573 232 573 232 607.5 c 128,-1,3
 232 642 232 642 201.5 671 c 128,-1,4
 171 700 171 700 100 707 c 2,5,-1
 78 709 l 1,6,-1
 78 791 l 1,7,-1
 104 790 l 2,8,9
 157 789 157 789 205 776 c 128,-1,10
 253 763 253 763 285.5 738.5 c 128,-1,11
 318 714 318 714 339.5 679 c 128,-1,12
 361 644 361 644 361 598 c 128,-1,13
 361 552 361 552 349 509 c 0,14,15
 339 471 339 471 339 417 c 0,16,17
 339 400 339 400 343 390 c 0,18,19
 350 374 350 374 361 362 c 0,20,21
 384 340 384 340 485 335 c 2,22,-1
 509 334 l 1,23,-1
 509 236 l 1,24,25
 414 228 414 228 393 221 c 0,26,27
 374 215 374 215 362.5 204 c 128,-1,28
 351 193 351 193 341 175 c 0,29,30
 333 160 333 160 333 143 c 0,31,32
 333 110 333 110 335 96 c 0,33,34
 339 72 339 72 344 51 c 0,35,36
 357 2 357 2 357 -40 c 0,37,38
 357 -103 357 -103 313 -151 c 0,39,40
 300 -165 300 -165 283 -177 c 0,41,42
 251 -200 251 -200 212.5 -214 c 128,-1,43
 174 -228 174 -228 98 -231 c 2,44,-1
 72 -232 l 1,45,-1
 72 -137 l 1,46,47
 109 -140 109 -140 119 -140 c 128,-1,48
 129 -140 129 -140 137.5 -139 c 128,-1,49
 146 -138 146 -138 153.5 -137 c 128,-1,50
 161 -136 161 -136 167.5 -134 c 128,-1,51
 174 -132 174 -132 179 -130 c 0,52,53
 190 -126 190 -126 197 -120 c 0,54,55
 224 -97 224 -97 224 -46 c 0,56,57
 224 -41 224 -41 221 -26.5 c 128,-1,58
 218 -12 218 -12 216 2 c 0,59,60
 208 53 208 53 208 96 c 0,61,62
 208 175 208 175 251 229 c 0,63,64
 276 261 276 261 308 281 c 1,65,66
 284 297 284 297 261 324 c 0,67,68
 225 366 225 366 217 421 c 0,69,70
 214 441 214 441 214 464 c 0,0,1
EndSplineSet
EndChar

StartChar: asciitilde
Encoding: 126 126 97
Width: 610
GlyphClass: 2
Flags: W
LayerCount: 2
Fore
SplineSet
440 322 m 0,0,1
 478 322 478 322 494 410 c 2,2,-1
 499 436 l 1,3,-1
 587 415 l 1,4,5
 584 371 584 371 582 351 c 0,6,7
 569 257 569 257 528 219 c 0,8,9
 494 188 494 188 446 188 c 0,10,11
 421 188 421 188 393 196 c 0,12,13
 340 216 340 216 274 265 c 0,14,15
 241 290 241 290 227 297 c 256,16,17
 213 304 213 304 200 308 c 128,-1,18
 187 312 187 312 182 312 c 0,19,20
 171 312 171 312 160 304 c 0,21,22
 158 303 158 303 154 297 c 128,-1,23
 150 291 150 291 147 285.5 c 128,-1,24
 144 280 144 280 141.5 272.5 c 128,-1,25
 139 265 139 265 136 256 c 0,26,27
 130 237 130 237 119 190 c 1,28,-1
 19 210 l 1,29,-1
 22 233 l 2,30,31
 40 364 40 364 102 410 c 0,32,33
 146 443 146 443 190 443 c 0,34,35
 210 443 210 443 226 437 c 0,36,37
 253 427 253 427 283 408 c 0,38,39
 331 378 331 378 340 371 c 0,40,41
 394 327 394 327 431 323 c 0,42,43
 436 322 436 322 440 322 c 0,0,1
EndSplineSet
EndChar

StartChar: exclamdown
Encoding: 161 161 99
Width: 610
GlyphClass: 2
Flags: W
LayerCount: 2
Fore
SplineSet
305 -231 m 2,0,-1
 304 -231 l 2,1,2
 257 -228 257 -228 237 -199 c 0,3,4
 219 -173 219 -173 219 -147 c 2,5,-1
 219 -145 l 1,6,7
 224 -102 224 -102 238.5 11.5 c 128,-1,8
 253 125 253 125 253 251 c 2,9,-1
 253 276 l 1,10,-1
 358 276 l 1,11,-1
 359 252 l 2,12,13
 362 125 362 125 378 9 c 0,14,15
 395 -110 395 -110 395 -147 c 2,16,-1
 395 -148 l 2,17,18
 392 -177 392 -177 370 -203 c 0,19,20
 345 -231 345 -231 305 -231 c 2,0,-1
306 525 m 0,21,22
 341 525 341 525 370 500 c 0,23,24
 399 474 399 474 399 430 c 0,25,26
 399 393 399 393 373 366 c 256,27,28
 347 339 347 339 307 339 c 128,-1,29
 267 339 267 339 239 364.5 c 128,-1,30
 211 390 211 390 211 430 c 0,31,32
 211 468 211 468 237 496.5 c 128,-1,33
 263 525 263 525 306 525 c 0,21,22
EndSplineSet
EndChar

StartChar: cent
Encoding: 162 162 100
Width: 610
GlyphClass: 2
Flags: W
LayerCount: 2
Fore
SplineSet
214 -225 m 1,0,-1
 236 -7 l 1,1,2
 166 16 166 16 114 76 c 0,3,4
 53 146 53 146 53 254 c 0,5,6
 53 331 53 331 95 398 c 0,7,8
 136 463 136 463 206 497 c 0,9,10
 244 516 244 516 288 522 c 1,11,-1
 314 792 l 1,12,-1
 419 792 l 1,13,-1
 390 520 l 1,14,15
 449 507 449 507 488 470 c 0,16,17
 536 424 536 424 536 371 c 0,18,19
 536 334 536 334 514 307 c 0,20,21
 490 276 490 276 444 276 c 0,22,23
 409 276 409 276 386 296 c 0,24,25
 377 304 377 304 371 314 c 1,26,-1
 350 90 l 1,27,28
 385 95 385 95 405 113 c 0,29,30
 434 139 434 139 449 184 c 2,31,-1
 458 207 l 1,32,-1
 563 173 l 1,33,-1
 556 150 l 2,34,35
 534 77 534 77 475 28 c 0,36,37
 423 -15 423 -15 341 -17 c 1,38,-1
 324 -225 l 1,39,-1
 214 -225 l 1,0,-1
381 415 m 1,40,-1
 381 413 l 1,41,42
 381 414 381 414 382 414 c 1,43,44
 381 414 381 414 381 415 c 1,40,-1
177 254 m 0,45,46
 177 189 177 189 208 149 c 0,47,48
 226 126 226 126 245 113 c 1,49,-1
 275 414 l 1,50,51
 246 403 246 403 218 377 c 0,52,53
 177 341 177 341 177 254 c 0,45,46
EndSplineSet
EndChar

StartChar: sterling
Encoding: 163 163 101
Width: 610
GlyphClass: 2
Flags: W
LayerCount: 2
Fore
SplineSet
144 222 m 0,0,1
 179 222 179 222 210 210 c 1,2,3
 210 215 210 215 210 223 c 0,4,5
 210 235 210 235 201 276 c 1,6,-1
 35 276 l 1,7,-1
 67 388 l 1,8,-1
 167 388 l 1,9,10
 154 413 154 413 148 434 c 0,11,12
 137 469 137 469 137 518 c 2,13,-1
 137 520 l 1,14,15
 143 567 143 567 167.5 605 c 128,-1,16
 192 643 192 643 227 672 c 128,-1,17
 262 701 262 701 307.5 717 c 128,-1,18
 353 733 353 733 408 733 c 128,-1,19
 463 733 463 733 505 716.5 c 128,-1,20
 547 700 547 700 572 671 c 0,21,22
 613 625 613 625 613 567 c 0,23,24
 613 553 613 553 610 538 c 128,-1,25
 607 523 607 523 598 508 c 0,26,27
 574 472 574 472 519 468 c 1,28,-1
 513 468 l 1,29,30
 492 476 492 476 480 484 c 128,-1,31
 468 492 468 492 459.5 504.5 c 128,-1,32
 451 517 451 517 451 533 c 0,33,34
 451 536 451 536 451 538 c 0,35,36
 456 567 456 567 461.5 581 c 128,-1,37
 467 595 467 595 473 603 c 1,38,-1
 463 612 l 2,39,40
 445 625 445 625 403 629 c 1,41,42
 355 629 355 629 312 602 c 128,-1,43
 269 575 269 575 257 527 c 0,44,45
 254 500 254 500 254 492 c 0,46,47
 254 472 254 472 259 458 c 0,48,49
 269 432 269 432 295 388 c 1,50,-1
 505 388 l 1,51,-1
 467 276 l 1,52,-1
 323 276 l 1,53,54
 326 255 326 255 326 237 c 0,55,56
 326 215 326 215 325 205 c 0,57,58
 322 187 322 187 318.5 175 c 128,-1,59
 315 163 315 163 312 155 c 1,60,61
 329 135 329 135 344.5 123.5 c 128,-1,62
 360 112 360 112 414 99 c 1,63,64
 463 100 463 100 478 119 c 0,65,66
 497 142 497 142 506 195 c 2,67,-1
 510 216 l 1,68,-1
 616 216 l 1,69,-1
 613 188 l 2,70,71
 608 142 608 142 595.5 107 c 128,-1,72
 583 72 583 72 557 41.5 c 128,-1,73
 531 11 531 11 496 -10 c 128,-1,74
 461 -31 461 -31 404 -31 c 2,75,-1
 402 -31 l 1,76,77
 322 -15 322 -15 288 10 c 0,78,79
 270 23 270 23 257 41 c 1,80,81
 225 7 225 7 194 -9 c 0,82,83
 152 -31 152 -31 111 -31 c 0,84,85
 45 -31 45 -31 13 6 c 0,86,87
 -13 35 -13 35 -13 76 c 0,88,89
 -13 141 -13 141 40 186 c 0,90,91
 84 222 84 222 144 222 c 0,0,1
99 80 m 0,92,93
 106 76 106 76 118 76 c 128,-1,94
 130 76 130 76 138.5 78.5 c 128,-1,95
 147 81 147 81 156.5 87.5 c 128,-1,96
 166 94 166 94 174 103 c 1,97,98
 163 111 163 111 154 113 c 128,-1,99
 145 115 145 115 137 115 c 0,100,101
 117 115 117 115 107.5 108 c 128,-1,102
 98 101 98 101 97 90 c 2,103,-1
 96 85 l 1,104,-1
 97 81 l 1,105,106
 97 81 97 81 99 80 c 0,92,93
EndSplineSet
EndChar

StartChar: currency
Encoding: 164 164 102
Width: 610
GlyphClass: 2
Flags: W
LayerCount: 2
Fore
SplineSet
306 569 m 128,-1,1
 266 569 266 569 231 554 c 0,2,3
 157 520 157 520 127 449 c 0,4,5
 112 414 112 414 112 374 c 128,-1,6
 112 334 112 334 127.5 299 c 128,-1,7
 143 264 143 264 169 238 c 128,-1,8
 195 212 195 212 230.5 197 c 128,-1,9
 266 182 266 182 306 182 c 128,-1,10
 346 182 346 182 381 197 c 0,11,12
 433 220 433 220 465 267 c 0,13,14
 499 316 499 316 499 374 c 0,15,16
 499 444 499 444 455 498 c 0,17,18
 425 534 425 534 380 554 c 0,19,0
 346 569 346 569 306 569 c 128,-1,1
477 132 m 1,20,21
 400 81 400 81 306 81 c 0,22,23
 255 81 255 81 205 98 c 0,24,25
 166 111 166 111 134 132 c 1,26,-1
 49 47 l 1,27,-1
 -24 120 l 1,28,-1
 61 206 l 1,29,30
 26 253 26 253 15 325 c 0,31,32
 11 350 11 350 11 374 c 0,33,34
 11 424 11 424 28 473 c 0,35,36
 41 511 41 511 63 544 c 1,37,-1
 -27 635 l 1,38,-1
 49 707 l 1,39,-1
 138 619 l 1,40,41
 170 640 170 640 207 653 c 0,42,43
 256 670 256 670 306 670 c 0,44,45
 374 670 374 670 440 638 c 0,46,47
 457 630 457 630 473 619 c 1,48,-1
 562 707 l 1,49,-1
 638 635 l 1,50,-1
 549 545 l 1,51,52
 573 513 573 513 585 473 c 0,53,54
 600 424 600 424 600 374.5 c 128,-1,55
 600 325 600 325 584 275 c 0,56,57
 572 237 572 237 550 206 c 1,58,-1
 635 120 l 1,59,-1
 562 47 l 1,60,-1
 477 132 l 1,20,21
EndSplineSet
EndChar

StartChar: yen
Encoding: 165 165 103
Width: 610
GlyphClass: 2
Flags: W
LayerCount: 2
Fore
SplineSet
141 84 m 1,0,1
 194 78 194 78 207 78 c 0,2,3
 227 78 227 78 233 79 c 0,4,5
 240 81 240 81 242 82 c 0,6,7
 249 96 249 96 250 128 c 1,8,-1
 57 128 l 1,9,-1
 57 224 l 1,10,-1
 251 224 l 1,11,-1
 251 270 l 1,12,-1
 57 270 l 1,13,-1
 57 367 l 1,14,-1
 226 367 l 1,15,-1
 84 605 l 1,16,17
 47 619 47 619 5 624 c 2,18,-1
 -17 627 l 1,19,-1
 -17 725 l 1,20,-1
 265 725 l 1,21,-1
 265 627 l 1,22,-1
 240 627 l 2,23,24
 221 627 221 627 202 623 c 1,25,-1
 306 435 l 1,26,-1
 406 622 l 1,27,28
 387 627 387 627 360 629 c 2,29,-1
 337 631 l 1,30,-1
 337 725 l 1,31,-1
 620 725 l 1,32,-1
 620 630 l 1,33,-1
 598 627 l 2,34,35
 558 622 558 622 522 610 c 1,36,-1
 381 367 l 1,37,-1
 543 367 l 1,38,-1
 543 270 l 1,39,-1
 352 270 l 1,40,-1
 352 224 l 1,41,-1
 543 224 l 1,42,-1
 543 128 l 1,43,-1
 352 128 l 1,44,45
 352 115 352 115 353 104 c 128,-1,46
 354 93 354 93 356 82 c 1,47,48
 366 80 366 80 380.5 80 c 128,-1,49
 395 80 395 80 397.5 80 c 128,-1,50
 400 80 400 80 402.5 80 c 128,-1,51
 405 80 405 80 407.5 80 c 128,-1,52
 410 80 410 80 413 80.5 c 128,-1,53
 416 81 416 81 419 81 c 0,54,55
 425 81 425 81 458 82 c 1,56,-1
 458 -24 l 1,57,-1
 141 -24 l 1,58,-1
 141 84 l 1,0,1
EndSplineSet
EndChar

StartChar: brokenbar
Encoding: 166 166 104
Width: 610
GlyphClass: 2
Flags: W
LayerCount: 2
Fore
SplineSet
353 145 m 1,0,1
 357 125 357 125 357 88 c 2,2,-1
 357 -158 l 1,3,-1
 347 -208 l 1,4,-1
 331 -216 l 2,5,6
 322 -221 322 -221 309.5 -221 c 128,-1,7
 297 -221 297 -221 265 -215 c 1,8,-1
 239 -175 l 1,9,10
 233 -133 233 -133 233 -109 c 0,11,12
 233 -103 233 -103 233 -97 c 2,13,-1
 234 209 l 1,14,-1
 248 231 l 1,15,-1
 266 242 l 2,16,17
 278 246 278 246 286 246 c 128,-1,18
 294 246 294 246 301 244 c 128,-1,19
 308 242 308 242 314 239 c 0,20,21
 326 232 326 232 336 220 c 0,22,23
 348 202 348 202 351 192 c 0,24,25
 358 175 358 175 358 164 c 128,-1,26
 358 153 358 153 353 145 c 1,0,1
221 488 m 0,27,28
 221 514 221 514 224 540 c 2,29,-1
 223 741 l 1,30,-1
 226 802 l 1,31,-1
 240 823 l 1,32,-1
 257 834 l 2,33,34
 269 838 269 838 281.5 838 c 128,-1,35
 294 838 294 838 306 831 c 128,-1,36
 318 824 318 824 328 812 c 0,37,38
 350 777 350 777 350 755 c 0,39,40
 349 743 349 743 344 734 c 1,41,42
 346 719 346 719 346 701 c 128,-1,43
 346 683 346 683 346 669 c 0,44,45
 343 655 343 655 345.5 636 c 128,-1,46
 348 617 348 617 348 563 c 0,47,48
 348 484 348 484 347 404 c 1,49,-1
 332 352 l 1,50,51
 319 345 319 345 315 343 c 0,52,53
 302 340 302 340 254 335 c 1,54,-1
 230 393 l 1,55,56
 221 442 221 442 221 488 c 0,27,28
EndSplineSet
EndChar

StartChar: section
Encoding: 167 167 105
Width: 610
GlyphClass: 2
Flags: W
LayerCount: 2
Fore
SplineSet
333 831 m 1,0,-1
 350 831 l 1,1,2
 416 804 416 804 437 785 c 0,3,4
 484 743 484 743 484 693 c 0,5,6
 484 685 484 685 483 677 c 0,7,8
 480 645 480 645 462 625 c 0,9,10
 440 599 440 599 398 599 c 2,11,-1
 396 599 l 1,12,13
 369 603 369 603 353 614 c 0,14,15
 328 631 328 631 328 661 c 0,16,17
 328 675 328 675 334 691 c 0,18,19
 338 710 338 710 332 715 c 0,20,21
 327 718 327 718 315 719 c 0,22,23
 293 717 293 717 280 703 c 0,24,25
 269 692 269 692 269 680 c 0,26,27
 269 678 269 678 269 674 c 2,28,-1
 269 667 l 2,29,30
 269 630 269 630 330 569 c 0,31,32
 372 523 372 523 423 462 c 1,33,34
 504 383 504 383 517 301 c 1,35,36
 526 280 526 280 526 256 c 0,37,38
 526 218 526 218 500 157 c 1,39,-1
 499 155 l 1,40,41
 470 111 470 111 418 91 c 1,42,-1
 427 78 l 1,43,-1
 444 37 l 1,44,-1
 447 -3 l 1,45,-1
 447 -5 l 1,46,47
 438 -110 438 -110 343 -170 c 0,48,49
 330 -176 330 -176 315 -178.5 c 128,-1,50
 300 -181 300 -181 278 -181 c 2,51,-1
 276 -181 l 1,52,-1
 274 -181 l 1,53,54
 192 -168 192 -168 146 -99 c 0,55,56
 127 -69 127 -69 127 -42 c 0,57,58
 127 -35 127 -35 128 -29 c 0,59,60
 134 8 134 8 153 30 c 0,61,62
 178 60 178 60 222 60 c 0,63,64
 225 60 225 60 234 60 c 1,65,-1
 261 45 l 2,66,67
 296 28 296 28 296 -13 c 0,68,69
 296 -28 296 -28 291 -46 c 1,70,-1
 293 -49 l 1,71,-1
 299 -49 l 1,72,73
 327 -26 327 -26 327 -10 c 0,74,75
 327 -9 327 -9 326 -5 c 2,76,-1
 326 -3 l 2,77,78
 326 38 326 38 278 80 c 1,79,-1
 180 198 l 1,80,81
 143 235 143 235 127 270 c 0,82,83
 87 340 87 340 87 375 c 0,84,85
 87 382 87 382 87 389 c 0,86,87
 87 502 87 502 189 563 c 1,88,89
 164 603 164 603 161 615 c 0,90,91
 160 619 160 619 159 621 c 0,92,93
 153 639 153 639 153 659 c 0,94,95
 153 751 153 751 222 801 c 0,96,97
 264 828 264 828 332 831 c 2,98,-1
 333 831 l 1,0,-1
270 466 m 1,99,-1
 255 480 l 1,100,101
 243 477 243 477 233 464 c 0,102,103
 221 447 221 447 213 414 c 0,104,105
 211 396 211 396 211 394 c 0,106,107
 211 373 211 373 228 334 c 1,108,109
 273 266 273 266 313 222 c 1,110,111
 338 202 338 202 359 187 c 1,112,113
 371 189 371 189 388 211 c 0,114,115
 397 222 397 222 407 238 c 0,116,117
 415 251 415 251 416 260 c 0,118,119
 408 288 408 288 395 313 c 1,120,-1
 333 396 l 1,121,122
 298 426 298 426 270 466 c 1,99,-1
EndSplineSet
EndChar

StartChar: dieresis
Encoding: 168 168 106
Width: 610
GlyphClass: 2
Flags: W
LayerCount: 2
Fore
SplineSet
183 564 m 0,0,1
 149 564 149 564 125.5 586.5 c 128,-1,2
 102 609 102 609 102 646 c 128,-1,3
 102 683 102 683 124 708 c 128,-1,4
 146 733 146 733 181 733 c 128,-1,5
 216 733 216 733 241 712 c 128,-1,6
 266 691 266 691 266 647 c 0,7,8
 266 613 266 613 244.5 588.5 c 128,-1,9
 223 564 223 564 183 564 c 0,0,1
479 588 m 128,-1,11
 455 564 455 564 420 564 c 0,12,13
 386 564 386 564 362 586 c 0,14,15
 337 609 337 609 337 646.5 c 128,-1,16
 337 684 337 684 359.5 708.5 c 128,-1,17
 382 733 382 733 420 733 c 0,18,19
 452 733 452 733 477.5 712 c 128,-1,20
 503 691 503 691 503 647 c 0,21,10
 503 612 503 612 479 588 c 128,-1,11
EndSplineSet
EndChar

StartChar: copyright
Encoding: 169 169 107
Width: 610
GlyphClass: 2
Flags: W
LayerCount: 2
Fore
SplineSet
306 -103 m 0,0,1
 211 -103 211 -103 127 -67 c 128,-1,2
 43 -31 43 -31 -18 33.5 c 128,-1,3
 -79 98 -79 98 -115 182 c 128,-1,4
 -151 266 -151 266 -151 364 c 128,-1,5
 -151 462 -151 462 -115 547 c 128,-1,6
 -79 632 -79 632 -18 696.5 c 128,-1,7
 43 761 43 761 127 798.5 c 128,-1,8
 211 836 211 836 306 836 c 0,9,10
 400 836 400 836 484 798.5 c 128,-1,11
 568 761 568 761 629.5 696.5 c 128,-1,12
 691 632 691 632 726.5 547 c 128,-1,13
 762 462 762 462 762 365 c 0,14,15
 762 222 762 222 685 103 c 0,16,17
 623 9 623 9 522.5 -47 c 128,-1,18
 422 -103 422 -103 306 -103 c 0,0,1
168.5 38.5 m 128,-1,20
 230 12 230 12 305 12 c 128,-1,21
 380 12 380 12 442 37.5 c 128,-1,22
 504 63 504 63 550 110.5 c 128,-1,23
 596 158 596 158 622 223 c 128,-1,24
 648 288 648 288 648 363.5 c 128,-1,25
 648 439 648 439 622 504 c 128,-1,26
 596 569 596 569 549.5 618 c 128,-1,27
 503 667 503 667 441 695 c 0,28,29
 380 723 380 723 306 723 c 0,30,31
 197 723 197 723 113 664 c 0,32,33
 30 606 30 606 -10 506 c 0,34,35
 -36 439 -36 439 -36 365 c 128,-1,36
 -36 291 -36 291 -10 226 c 128,-1,37
 16 161 16 161 61.5 113 c 128,-1,19
 107 65 107 65 168.5 38.5 c 128,-1,20
362 512 m 1,38,39
 344 521 344 521 321 521 c 128,-1,40
 298 521 298 521 278.5 513 c 128,-1,41
 259 505 259 505 240 488 c 0,42,43
 204 457 204 457 204 368 c 0,44,45
 204 299 204 299 227 270 c 0,46,47
 233 263 233 263 239.5 258 c 128,-1,48
 246 253 246 253 251 249.5 c 128,-1,49
 256 246 256 246 260 243 c 128,-1,50
 264 240 264 240 269 238 c 0,51,52
 277 233 277 233 285 229 c 0,53,54
 303 221 303 221 323 221 c 0,55,56
 366 221 366 221 388 244 c 0,57,58
 412 269 412 269 421 303 c 2,59,-1
 427 330 l 1,60,-1
 523 296 l 1,61,-1
 517 273 l 2,62,63
 498 206 498 206 446.5 161.5 c 128,-1,64
 395 117 395 117 312 117 c 0,65,66
 264 117 264 117 221 136 c 128,-1,67
 178 155 178 155 146 189 c 0,68,69
 79 260 79 260 79 369 c 0,70,71
 79 418 79 418 95.5 462.5 c 128,-1,72
 112 507 112 507 145 541 c 128,-1,73
 178 575 178 575 222.5 595.5 c 128,-1,74
 267 616 267 616 319 616 c 0,75,76
 378 616 378 616 425 590 c 0,77,78
 465 569 465 569 488 527 c 0,79,80
 503 499 503 499 503 468.5 c 128,-1,81
 503 438 503 438 482 410 c 0,82,83
 458 379 458 379 419 379 c 0,84,85
 389 379 389 379 364.5 399.5 c 128,-1,86
 340 420 340 420 340 454 c 128,-1,87
 340 488 340 488 362 512 c 1,38,39
EndSplineSet
EndChar

StartChar: ordfeminine
Encoding: 170 170 108
Width: 610
GlyphClass: 2
Flags: W
LayerCount: 2
Fore
SplineSet
230 427 m 128,-1,1
 171 427 171 427 133.5 456 c 128,-1,2
 96 485 96 485 96 533 c 0,3,4
 96 577 96 577 125 606 c 0,5,6
 142 623 142 623 165 635 c 1,7,8
 144 640 144 640 131 655.5 c 128,-1,9
 118 671 118 671 118 697 c 0,10,11
 118 739 118 739 163 775 c 128,-1,12
 208 811 208 811 280 811 c 0,13,14
 360 811 360 811 403 774 c 0,15,16
 447 737 447 737 447 666 c 2,17,-1
 447 555 l 1,18,-1
 521 555 l 1,19,20
 522 526 522 526 522 515.5 c 128,-1,21
 522 505 522 505 520 493 c 0,22,23
 515 466 515 466 496 450 c 0,24,25
 469 427 469 427 428 427 c 0,26,27
 398 427 398 427 374 447 c 0,28,29
 362 457 362 457 355 473 c 1,30,31
 341 460 341 460 326 451 c 0,32,0
 289 427 289 427 230 427 c 128,-1,1
278 747 m 0,33,34
 256 746 256 746 242 740 c 1,35,36
 252 726 252 726 252 707 c 0,37,38
 252 691 252 691 244 677 c 1,39,40
 282 686 282 686 339 692 c 1,41,42
 336 719 336 719 325 729 c 0,43,44
 310 744 310 744 278 747 c 0,33,34
214 546 m 2,45,-1
 215 539 l 2,46,47
 219 530 219 530 247 530 c 0,48,49
 285 530 285 530 310 556 c 0,50,51
 328 573 328 573 335 603 c 1,52,53
 281 594 281 594 264 589 c 0,54,55
 220 575 220 575 215 554 c 0,56,57
 214 551 214 551 214 546 c 2,45,-1
79 280 m 1,58,-1
 79 407 l 1,59,-1
 535 407 l 1,60,-1
 535 280 l 1,61,-1
 79 280 l 1,58,-1
EndSplineSet
EndChar

StartChar: guillemotleft
Encoding: 171 171 109
Width: 610
GlyphClass: 2
Flags: W
LayerCount: 2
Fore
SplineSet
305 257 m 1,0,-1
 305 337 l 1,1,-1
 572 587 l 1,2,-1
 572 454 l 1,3,-1
 443 297 l 1,4,-1
 572 140 l 1,5,-1
 572 4 l 1,6,-1
 305 257 l 1,0,-1
79 257 m 1,7,-1
 79 337 l 1,8,-1
 353 585 l 1,9,-1
 353 454 l 1,10,-1
 224 297 l 1,11,-1
 353 140 l 1,12,-1
 353 5 l 1,13,-1
 79 257 l 1,7,-1
EndSplineSet
EndChar

StartChar: logicalnot
Encoding: 172 172 110
Width: 610
GlyphClass: 2
Flags: W
LayerCount: 2
Fore
SplineSet
563 471 m 1,0,-1
 563 90 l 1,1,-1
 436 90 l 1,2,-1
 436 340 l 1,3,-1
 9 340 l 1,4,-1
 9 471 l 1,5,-1
 563 471 l 1,0,-1
EndSplineSet
EndChar

StartChar: uni00AD
Encoding: 173 173 111
Width: 610
GlyphClass: 2
Flags: W
LayerCount: 2
Fore
SplineSet
57 305 m 0,0,1
 57 307 57 307 57 310 c 2,2,-1
 57 333 l 1,3,4
 62 368 62 368 86 384 c 0,5,6
 104 396 104 396 132 396 c 0,7,8
 139 396 139 396 147 395 c 2,9,-1
 493 395 l 1,10,11
 538 383 538 383 550 350 c 0,12,13
 555 337 555 337 555 323 c 2,14,-1
 555 297 l 1,15,16
 551 270 551 270 533 255 c 0,17,18
 520 243 520 243 497 237 c 1,19,-1
 118 237 l 1,20,21
 92 241 92 241 77 255 c 0,22,23
 57 274 57 274 57 305 c 0,0,1
EndSplineSet
EndChar

StartChar: registered
Encoding: 174 174 112
Width: 610
GlyphClass: 2
Flags: W
LayerCount: 2
Fore
SplineSet
392 616 m 2,0,1
 414 616 414 616 425 620 c 0,2,3
 431 623 431 623 433 625 c 0,4,5
 443 638 443 638 443 658 c 0,6,7
 443 666 443 666 440.5 671 c 128,-1,8
 438 676 438 676 431 680 c 0,9,10
 416 688 416 688 385 688 c 0,11,12
 364 688 364 688 350 687 c 1,13,14
 349 681 349 681 349 675 c 2,15,-1
 349 616 l 1,16,-1
 392 616 l 2,0,1
383 287 m 0,17,18
 483 287 483 287 556 343 c 0,19,20
 611 385 611 385 640 454 c 0,21,22
 661 505 661 505 661 564 c 0,23,24
 661 650 661 650 615 721 c 0,25,26
 570 790 570 790 494 823 c 0,27,28
 444 845 444 845 384.5 845 c 128,-1,29
 325 845 325 845 275 824 c 0,30,31
 234 807 234 807 202 779 c 1,32,-1
 404 779 l 2,33,34
 475 779 475 779 516 746 c 128,-1,35
 557 713 557 713 557 660 c 0,36,37
 557 619 557 619 532 583 c 0,38,39
 515 559 515 559 487 545 c 1,40,41
 490 538 490 538 495 524 c 128,-1,42
 500 510 500 510 506.5 493 c 128,-1,43
 513 476 513 476 521 465 c 0,44,45
 522 463 522 463 527 463 c 2,46,-1
 535 464 l 1,47,48
 538 472 538 472 540 486 c 2,49,-1
 543 508 l 1,50,-1
 624 508 l 1,51,-1
 624 483 l 2,52,53
 624 440 624 440 603 406 c 0,54,55
 591 385 591 385 570 375 c 128,-1,56
 549 365 549 365 522 365 c 0,57,58
 474 365 474 365 446 389 c 0,59,60
 424 408 424 408 410 433 c 1,61,-1
 410 369 l 1,62,-1
 184 369 l 1,63,64
 221 331 221 331 273 309 c 0,65,66
 323 287 323 287 383 287 c 0,17,18
734 418 m 128,-1,68
 705 348 705 348 653 297 c 128,-1,69
 601 246 601 246 531.5 216 c 128,-1,70
 462 186 462 186 383.5 186 c 128,-1,71
 305 186 305 186 235 215 c 0,72,73
 131 258 131 258 68 352 c 0,74,75
 4 448 4 448 4 564 c 0,76,77
 4 643 4 643 33.5 712 c 128,-1,78
 63 781 63 781 114 833 c 0,79,80
 166 886 166 886 235.5 915.5 c 128,-1,81
 305 945 305 945 384 945 c 0,82,83
 501 945 501 945 597 880 c 0,84,85
 690 818 690 818 734 712 c 0,86,87
 763 643 763 643 763 565.5 c 128,-1,67
 763 488 763 488 734 418 c 128,-1,68
385 460 m 2,88,-1
 398 460 l 1,89,90
 391 479 391 479 388 492 c 128,-1,91
 385 505 385 505 383 510 c 0,92,93
 380 520 380 520 377 528 c 1,94,-1
 349 528 l 1,95,-1
 349 485 l 2,96,97
 349 472 349 472 351 463 c 1,98,99
 364 460 364 460 385 460 c 2,88,-1
184 762 m 1,100,101
 149 724 149 724 128 674 c 0,102,103
 107 622 107 622 107 565 c 0,104,105
 107 479 107 479 153 408 c 0,106,107
 167 387 167 387 184 369 c 1,108,-1
 184 459 l 1,109,110
 225 460 225 460 230 461 c 0,111,112
 237 463 237 463 239 463 c 0,113,114
 241 473 241 473 241 487 c 2,115,-1
 241 665 l 2,116,117
 241 675 241 675 240 684 c 1,118,119
 227 686 227 686 209 686 c 2,120,-1
 184 686 l 1,121,-1
 184 762 l 1,100,101
EndSplineSet
EndChar

StartChar: macron
Encoding: 175 175 113
Width: 610
GlyphClass: 2
Flags: W
LayerCount: 2
Fore
SplineSet
-42 785 m 1,0,-1
 -42 907 l 1,1,-1
 646 907 l 1,2,-1
 646 785 l 1,3,-1
 -42 785 l 1,0,-1
EndSplineSet
EndChar

StartChar: degree
Encoding: 176 176 114
Width: 610
GlyphClass: 2
Flags: W
LayerCount: 2
Fore
SplineSet
297 483 m 0,0,1
 221 483 221 483 165.5 537.5 c 128,-1,2
 110 592 110 592 107 672 c 2,3,-1
 107 673 l 2,4,5
 107 749 107 749 164 805 c 128,-1,6
 221 861 221 861 297 861 c 0,7,8
 375 861 375 861 430 807.5 c 128,-1,9
 485 754 485 754 487 674 c 2,10,-1
 487 673 l 2,11,12
 487 597 487 597 432.5 540 c 128,-1,13
 378 483 378 483 297 483 c 0,0,1
352 618 m 128,-1,15
 373 639 373 639 373 672 c 0,16,17
 373 688 373 688 368 700 c 128,-1,18
 363 712 363 712 352 723 c 0,19,20
 331 743 331 743 297 744 c 0,21,22
 267 744 267 744 247 724 c 0,23,24
 227 703 227 703 225 672 c 0,25,26
 225 642 225 642 244.5 620.5 c 128,-1,27
 264 599 264 599 298 597 c 0,28,14
 331 597 331 597 352 618 c 128,-1,15
EndSplineSet
EndChar

StartChar: plusminus
Encoding: 177 177 115
Width: 610
GlyphClass: 2
Flags: W
LayerCount: 2
Fore
SplineSet
39 -27 m 1,0,-1
 39 89 l 1,1,-1
 571 89 l 1,2,-1
 571 -27 l 1,3,-1
 39 -27 l 1,0,-1
360 341 m 1,4,-1
 360 138 l 1,5,-1
 248 138 l 1,6,-1
 248 341 l 1,7,-1
 39 341 l 1,8,-1
 39 453 l 1,9,-1
 248 453 l 1,10,-1
 248 662 l 1,11,-1
 360 662 l 1,12,-1
 360 453 l 1,13,-1
 571 453 l 1,14,-1
 571 341 l 1,15,-1
 360 341 l 1,4,-1
EndSplineSet
EndChar

StartChar: twosuperior
Encoding: 178 178 116
Width: 610
GlyphClass: 2
Flags: W
LayerCount: 2
Fore
SplineSet
430 370 m 1,0,1
 449 374 449 374 465 374 c 2,2,-1
 469 374 l 1,3,-1
 473 373 l 2,4,5
 505 362 505 362 521 334 c 2,6,-1
 524 329 l 1,7,-1
 524 309 l 1,8,9
 508 282 508 282 501 273.5 c 128,-1,10
 494 265 494 265 487 260.5 c 128,-1,11
 480 256 480 256 471 256 c 2,12,-1
 427 256 l 2,13,14
 404 256 404 256 367 253 c 1,15,-1
 159 259 l 2,16,17
 114 262 114 262 92 291 c 0,18,19
 75 313 75 313 75 349 c 2,20,-1
 75 354 l 2,21,22
 75 464 75 464 260 558 c 1,23,24
 274 574 274 574 359 618 c 1,25,26
 367 629 367 629 397 658 c 0,27,28
 397 659 397 659 398 661 c 1,29,-1
 376 661 l 1,30,-1
 399 700 l 1,31,32
 378 747 378 747 345 760 c 0,33,34
 332 766 332 766 319.5 766 c 128,-1,35
 307 766 307 766 297 764 c 2,36,-1
 253 744 l 2,37,38
 246 740 246 740 242 736 c 1,39,-1
 242 716 l 1,40,-1
 217 716 l 2,41,42
 211 716 211 716 205 696 c 0,43,44
 200 679 200 679 198 652 c 2,45,-1
 196 629 l 1,46,-1
 140 629 l 2,47,48
 115 629 115 629 104 666 c 0,49,50
 101 674 101 674 97 692 c 1,51,52
 118 765 118 765 139 797 c 0,53,54
 144 805 144 805 149.5 811 c 128,-1,55
 155 817 155 817 162.5 822.5 c 128,-1,56
 170 828 170 828 179 830 c 0,57,58
 238 875 238 875 327 875 c 0,59,60
 337 875 337 875 349 875 c 0,61,62
 429 851 429 851 452 824 c 1,63,64
 489 814 489 814 508 759 c 0,65,66
 518 728 518 728 524 677 c 1,67,-1
 524 662 l 1,68,-1
 524 661 l 1,69,-1
 524 636 l 2,70,71
 524 602 524 602 477.5 558.5 c 128,-1,72
 431 515 431 515 322 450 c 1,73,74
 247 427 247 427 233 398 c 0,75,76
 230 392 230 392 230 388.5 c 128,-1,77
 230 385 230 385 231 384 c 0,78,79
 233 382 233 382 239 380 c 0,80,81
 255 374 255 374 288 374 c 2,82,-1
 410 374 l 2,83,84
 420 374 420 374 430 370 c 1,0,1
EndSplineSet
EndChar

StartChar: threesuperior
Encoding: 179 179 117
Width: 610
GlyphClass: 2
Flags: W
LayerCount: 2
Fore
SplineSet
152 222 m 1,0,1
 142 219 142 219 135 219 c 128,-1,2
 128 219 128 219 124.5 220 c 128,-1,3
 121 221 121 221 118 222 c 128,-1,4
 115 223 115 223 112.5 225 c 128,-1,5
 110 227 110 227 108 229 c 128,-1,6
 106 231 106 231 104 233 c 0,7,8
 97 243 97 243 92 261 c 2,9,-1
 90 268 l 1,10,-1
 93 276 l 2,11,12
 120 350 120 350 237 360 c 1,13,14
 289 373 289 373 328 402 c 0,15,16
 384 444 384 444 384 505 c 0,17,18
 384 506 384 506 384 507 c 2,19,-1
 384 537 l 2,20,21
 384 554 384 554 374.5 568.5 c 128,-1,22
 365 583 365 583 342 596 c 1,23,24
 325 599 325 599 320 599 c 0,25,26
 308 599 308 599 298 593 c 0,27,28
 240 568 240 568 213 568 c 2,29,-1
 202 568 l 2,30,31
 183 568 183 568 173 582 c 0,32,33
 166 591 166 591 166 602.5 c 128,-1,34
 166 614 166 614 168 622 c 0,35,36
 180 661 180 661 245 714 c 1,37,-1
 251 718 l 1,38,-1
 254 719 l 1,39,40
 267 730 267 730 290 766 c 2,41,-1
 297 778 l 1,42,-1
 311 778 l 2,43,44
 317 778 317 778 325 788 c 1,45,46
 318 790 318 790 311 792 c 2,47,-1
 202 792 l 1,48,49
 189 778 189 778 156 759 c 1,50,-1
 130 759 l 2,51,52
 112 761 112 761 94 773 c 2,53,-1
 86 779 l 1,54,55
 81 799 81 799 81 810 c 128,-1,56
 81 821 81 821 84 832.5 c 128,-1,57
 87 844 87 844 93 855 c 0,58,59
 103 876 103 876 123 894 c 2,60,-1
 130 901 l 1,61,-1
 426 901 l 1,62,63
 461 889 461 889 477 877 c 0,64,65
 496 862 496 862 496 842 c 2,66,-1
 496 840 l 1,67,-1
 490 805 l 1,68,-1
 388 701 l 1,69,-1
 392 701 l 1,70,71
 466 678 466 678 496 604 c 0,72,73
 508 582 508 582 514 547 c 1,74,-1
 514 490 l 1,75,76
 502 394 502 394 436 329 c 1,77,78
 366 270 366 270 293 250 c 1,79,80
 284 240 284 240 262 230.5 c 128,-1,81
 240 221 240 221 191 211 c 1,82,-1
 175 211 l 1,83,-1
 152 222 l 1,0,1
EndSplineSet
EndChar

StartChar: acute
Encoding: 180 180 118
Width: 610
GlyphClass: 2
Flags: W
LayerCount: 2
Fore
SplineSet
396 784 m 0,0,1
 429 784 429 784 448 760 c 0,2,3
 460 743 460 743 460 721 c 0,4,5
 460 694 460 694 447 670 c 0,6,7
 430 639 430 639 394 621 c 2,8,-1
 253 544 l 1,9,-1
 135 544 l 1,10,-1
 299 732 l 2,11,12
 347 784 347 784 396 784 c 0,0,1
EndSplineSet
EndChar

StartChar: mu
Encoding: 181 181 119
Width: 610
GlyphClass: 2
Flags: W
LayerCount: 2
Fore
SplineSet
150 -159 m 0,0,1
 148 -196 148 -196 108 -215 c 0,2,3
 75 -231 75 -231 56 -231 c 0,4,5
 23 -231 23 -231 11 -200 c 0,6,7
 2 -178 2 -178 8 -139 c 0,8,9
 98 384 98 384 98.5 388 c 128,-1,10
 99 392 99 392 99 394 c 128,-1,11
 99 396 99 396 99 397 c 0,12,13
 90 399 90 399 75 399 c 2,14,-1
 46 399 l 1,15,-1
 57 475 l 1,16,17
 97 479 97 479 113 482 c 0,18,19
 145 488 145 488 169 502 c 0,20,21
 180 508 180 508 192 519 c 2,22,-1
 198 525 l 1,23,-1
 249 530 l 1,24,-1
 186 158 l 2,25,26
 183 140 183 140 183 127.5 c 128,-1,27
 183 115 183 115 184.5 106 c 128,-1,28
 186 97 186 97 189.5 90 c 128,-1,29
 193 83 193 83 205 78 c 128,-1,30
 217 73 217 73 242 73 c 0,31,32
 272 73 272 73 308.5 99 c 128,-1,33
 345 125 345 125 373 204 c 1,34,-1
 402 379 l 2,35,36
 404 389 404 389 404 392 c 0,37,38
 404 396 404 396 403 398 c 0,39,40
 394 399 394 399 378 399 c 2,41,-1
 348 399 l 1,42,-1
 362 476 l 1,43,-1
 380 478 l 2,44,45
 424 483 424 483 448.5 492.5 c 128,-1,46
 473 502 473 502 499 522 c 2,47,-1
 505 527 l 1,48,-1
 552 527 l 1,49,-1
 483 122 l 2,50,51
 481 114 481 114 481 107 c 2,52,-1
 483 94 l 1,53,54
 505 100 505 100 545 133 c 2,55,-1
 577 160 l 1,56,-1
 595 75 l 1,57,-1
 587 66 l 2,58,59
 545 17 545 17 505 -4 c 0,60,61
 465 -24 465 -24 421 -30 c 2,62,-1
 413 -31 l 1,63,64
 392 -19 392 -19 382 -12 c 0,65,66
 368 -1 368 -1 359 17 c 1,67,68
 342 0 342 0 323 -10 c 0,69,70
 285 -29 285 -29 210 -31 c 0,71,72
 165 -29 165 -29 139 -10 c 1,73,-1
 131 -56 l 2,74,75
 126 -94 126 -94 126 -106 c 0,76,77
 127 -108 127 -108 130 -111 c 128,-1,78
 133 -114 133 -114 136 -117 c 128,-1,79
 139 -120 139 -120 142 -123.5 c 128,-1,80
 145 -127 145 -127 147 -131 c 0,81,82
 151 -140 151 -140 151 -147 c 128,-1,83
 151 -154 151 -154 150 -159 c 0,0,1
EndSplineSet
EndChar

StartChar: paragraph
Encoding: 182 182 120
Width: 610
GlyphClass: 2
Flags: W
LayerCount: 2
Fore
SplineSet
392 664 m 1,0,1
 391 652 391 652 391 616 c 2,2,-1
 391 -178 l 1,3,-1
 283 -178 l 1,4,-1
 283 318 l 1,5,-1
 212 318 l 2,6,7
 115 318 115 318 63 385 c 0,8,9
 13 448 13 448 13 547 c 0,10,11
 13 655 13 655 71 713 c 128,-1,12
 129 771 129 771 222 771 c 2,13,-1
 604 771 l 1,14,-1
 604 671 l 1,15,16
 548 668 548 668 535 666 c 2,17,-1
 527 664 l 1,18,19
 521 658 521 658 521 621 c 2,20,-1
 521 -178 l 1,21,-1
 416 -178 l 1,22,-1
 416 620 l 2,23,24
 416 645 416 645 414 664 c 0,25,26
 412 664 412 664 410 664 c 2,27,-1
 392 664 l 1,0,1
252 668 m 0,28,29
 203 668 203 668 171 635.5 c 128,-1,30
 139 603 139 603 139 544 c 128,-1,31
 139 485 139 485 170.5 457 c 128,-1,32
 202 429 202 429 237 429 c 2,33,-1
 283 429 l 1,34,-1
 283 621 l 2,35,36
 283 658 283 658 281 666 c 1,37,38
 273 668 273 668 252 668 c 0,28,29
EndSplineSet
EndChar

StartChar: periodcentered
Encoding: 183 183 121
Width: 610
GlyphClass: 2
Flags: W
LayerCount: 2
Fore
SplineSet
303 208 m 0,0,1
 260 208 260 208 227 238.5 c 128,-1,2
 194 269 194 269 194 318 c 0,3,4
 194 361 194 361 225 394 c 0,5,6
 257 429 257 429 304 429 c 128,-1,7
 351 429 351 429 381 397.5 c 128,-1,8
 411 366 411 366 415 319 c 1,9,-1
 415 318 l 2,10,11
 415 278 415 278 384.5 243 c 128,-1,12
 354 208 354 208 303 208 c 0,0,1
EndSplineSet
EndChar

StartChar: cedilla
Encoding: 184 184 122
Width: 610
GlyphClass: 2
Flags: W
LayerCount: 2
Fore
SplineSet
351 -224 m 0,0,1
 323 -231 323 -231 285 -231 c 0,2,3
 212 -231 212 -231 159 -197 c 2,4,-1
 140 -185 l 1,5,-1
 188 -93 l 1,6,-1
 210 -106 l 2,7,8
 247 -127 247 -127 283 -127 c 0,9,10
 302 -127 302 -127 314 -125 c 2,11,-1
 322 -122 l 2,12,13
 326 -118 326 -118 326 -108 c 0,14,15
 326 -103 326 -103 325 -100 c 0,16,17
 320 -91 320 -91 290 -91 c 0,18,19
 280 -91 280 -91 258 -93 c 1,20,-1
 216 -63 l 1,21,-1
 244 59 l 1,22,-1
 350 59 l 1,23,-1
 335 -8 l 1,24,25
 364 -10 364 -10 389 -20 c 0,26,27
 404 -25 404 -25 414 -36 c 0,28,29
 440 -61 440 -61 440 -111 c 0,30,31
 440 -154 440 -154 417 -183 c 0,32,33
 394 -213 394 -213 351 -224 c 0,0,1
EndSplineSet
EndChar

StartChar: onesuperior
Encoding: 185 185 123
Width: 610
GlyphClass: 2
Flags: W
LayerCount: 2
Fore
SplineSet
116 691 m 0,0,1
 116 704 116 704 121 719 c 2,2,-1
 124 724 l 1,3,-1
 289 870 l 1,4,-1
 328 887 l 1,5,-1
 333 887 l 1,6,-1
 341 886 l 1,7,-1
 342 887 l 1,8,-1
 365 887 l 1,9,-1
 370 885 l 2,10,11
 412 865 412 865 412 828 c 2,12,-1
 412 811 l 1,13,-1
 412 810 l 1,14,15
 406 536 406 536 406 367 c 1,16,-1
 417 367 l 1,17,-1
 412 337 l 2,18,19
 403 292 403 292 390 274 c 0,20,21
 377 258 377 258 359 258 c 0,22,23
 329 258 329 258 307 264.5 c 128,-1,24
 285 271 285 271 270 287 c 2,25,-1
 263 296 l 1,26,-1
 271 359 l 1,27,-1
 271 389 l 2,28,29
 271 399 271 399 275 406 c 2,30,-1
 282 669 l 1,31,32
 277 682 277 682 272 692 c 1,33,-1
 188 628 l 1,34,35
 167 633 167 633 162 634.5 c 128,-1,36
 157 636 157 636 154 637.5 c 128,-1,37
 151 639 151 639 149 640 c 0,38,39
 116 657 116 657 116 691 c 0,0,1
EndSplineSet
EndChar

StartChar: ordmasculine
Encoding: 186 186 124
Width: 610
GlyphClass: 2
Flags: W
LayerCount: 2
Fore
SplineSet
303 427 m 128,-1,1
 218 427 218 427 160.5 479.5 c 128,-1,2
 103 532 103 532 103 618.5 c 128,-1,3
 103 705 103 705 160.5 758 c 128,-1,4
 218 811 218 811 302 811 c 128,-1,5
 386 811 386 811 443.5 761 c 128,-1,6
 501 711 501 711 501 619 c 0,7,8
 501 534 501 534 444.5 480.5 c 128,-1,0
 388 427 388 427 303 427 c 128,-1,1
242.5 543.5 m 128,-1,10
 264 523 264 523 302 523 c 0,11,12
 320 523 320 523 334.5 528.5 c 128,-1,13
 349 534 349 534 360 549 c 0,14,15
 377 573 377 573 380 619 c 0,16,17
 380 671 380 671 360 692 c 0,18,19
 341 712 341 712 301 712 c 128,-1,20
 261 712 261 712 242 690 c 0,21,22
 221 666 221 666 221 618 c 0,23,9
 221 564 221 564 242.5 543.5 c 128,-1,10
90 280 m 1,24,-1
 90 407 l 1,25,-1
 516 407 l 1,26,-1
 516 280 l 1,27,-1
 90 280 l 1,24,-1
EndSplineSet
EndChar

StartChar: guillemotright
Encoding: 187 187 125
Width: 610
GlyphClass: 2
Flags: W
LayerCount: 2
Fore
SplineSet
78 4 m 1,0,-1
 78 140 l 1,1,-1
 207 297 l 1,2,-1
 78 454 l 1,3,-1
 78 587 l 1,4,-1
 345 337 l 1,5,-1
 345 257 l 1,6,-1
 78 4 l 1,0,-1
297 5 m 1,7,-1
 297 140 l 1,8,-1
 426 297 l 1,9,-1
 297 454 l 1,10,-1
 297 585 l 1,11,-1
 571 337 l 1,12,-1
 571 257 l 1,13,-1
 297 5 l 1,7,-1
EndSplineSet
EndChar

StartChar: onequarter
Encoding: 188 188 126
Width: 610
GlyphClass: 2
Flags: W
LayerCount: 2
Fore
SplineSet
798 -13 m 1,0,1
 808 -50 808 -50 808 -60 c 0,2,3
 808 -120 808 -120 780 -143 c 0,4,5
 765 -155 765 -155 745 -155 c 0,6,7
 711 -155 711 -155 693 -125 c 0,8,9
 682 -107 682 -107 678 -73 c 1,10,11
 684 -32 684 -32 684 -7 c 2,12,-1
 684 2 l 2,13,14
 684 6 684 6 673 14 c 1,15,-1
 655 11 l 1,16,-1
 603 11 l 2,17,18
 599 11 599 11 596 12 c 2,19,-1
 594 11 l 1,20,-1
 529 11 l 1,21,-1
 525 13 l 2,22,23
 501 22 501 22 491 45 c 0,24,25
 484 61 484 61 484 83 c 2,26,-1
 484 87 l 1,27,-1
 484 94 l 1,28,-1
 537 184 l 1,29,30
 579 269 579 269 616 319 c 1,31,32
 622 337 622 337 644 378 c 1,33,34
 658 433 658 433 681 455 c 0,35,36
 692 465 692 465 705 468 c 1,37,38
 713 474 713 474 724 474 c 0,39,40
 763 474 763 474 784 447 c 0,41,42
 800 428 800 428 804 395 c 1,43,-1
 804 393 l 2,44,45
 804 382 804 382 793 339 c 0,46,47
 794 327 794 327 797 281 c 2,48,-1
 797 280 l 2,49,50
 797 271 797 271 794 263 c 2,51,-1
 797 239 l 1,52,-1
 797 237 l 2,53,54
 797 211 797 211 791 198 c 1,55,56
 797 176 797 176 805 123 c 1,57,58
 834 118 834 118 849 117 c 1,59,-1
 863 122 l 1,60,61
 881 118 881 118 888 114 c 2,62,-1
 901 107 l 2,63,64
 913 97 913 97 913 83 c 2,65,-1
 913 58 l 2,66,67
 913 37 913 37 885 23 c 2,68,-1
 880 20 l 1,69,-1
 810 20 l 1,70,71
 804 8 804 8 798 -13 c 1,0,1
688 229 m 1,72,73
 664 191 664 191 664 176 c 2,74,-1
 664 167 l 1,75,76
 639 135 639 135 628 119 c 1,77,78
 631 118 631 118 633 118 c 2,79,-1
 689 131 l 1,80,-1
 689 139 l 2,81,82
 689 167 689 167 684 199 c 1,83,-1
 689 224 l 2,84,85
 688 227 688 227 688 229 c 1,72,73
193 235 m 0,86,87
 179 249 179 249 179 269 c 0,88,89
 179 274 179 274 179 278 c 2,90,-1
 179 313 l 1,91,-1
 177 359 l 2,92,93
 173 433 173 433 173 613 c 0,94,95
 170 633 170 633 169 651 c 1,96,-1
 161 646 l 2,97,98
 125 627 125 627 102 619 c 0,99,100
 83 615 83 615 80.5 615 c 128,-1,101
 78 615 78 615 78 615 c 2,102,103
 56 615 56 615 45 631 c 0,104,105
 37 642 37 642 37 657 c 0,106,107
 37 660 37 660 37 662 c 0,108,109
 37 702 37 702 72 727 c 0,110,111
 85 736 85 736 102 743 c 0,112,113
 138 764 138 764 164 781 c 1,114,115
 184 803 184 803 205 813 c 0,116,117
 218 818 218 818 236 821 c 2,118,-1
 238 821 l 2,119,120
 264 821 264 821 278 805 c 0,121,122
 284 797 284 797 287 785 c 2,123,-1
 286 731 l 1,124,-1
 286 670 l 1,125,-1
 295 351 l 1,126,-1
 293 325 l 1,127,-1
 295 325 l 1,128,129
 298 295 298 295 298 286 c 0,130,131
 298 265 298 265 289 249 c 0,132,133
 277 226 277 226 251 220 c 2,134,-1
 248 219 l 1,135,-1
 245 219 l 2,136,137
 210 219 210 219 193 235 c 0,86,87
274 -115 m 1,138,139
 249 -118 249 -118 242 -117 c 0,140,141
 228 -115 228 -115 218 -110.5 c 128,-1,142
 208 -106 208 -106 201.5 -97 c 128,-1,143
 195 -88 195 -88 193 -77 c 2,144,-1
 192 -70 l 1,145,-1
 558 775 l 1,146,-1
 590 803 l 1,147,148
 605 806 605 806 610 806 c 0,149,150
 620 806 620 806 630 798 c 0,151,152
 638 792 638 792 648 777 c 1,153,-1
 657 741 l 1,154,-1
 298 -103 l 1,155,-1
 274 -115 l 1,138,139
EndSplineSet
EndChar

StartChar: onehalf
Encoding: 189 189 127
Width: 610
GlyphClass: 2
Flags: W
LayerCount: 2
Fore
SplineSet
818 -32 m 1,0,1
 835 -28 835 -28 850 -28 c 1,2,3
 850 -28 850 -28 850 -28 c 1,4,-1
 854 -28 l 1,5,-1
 859 -29 l 1,6,7
 889 -41 889 -41 904 -67 c 2,8,-1
 907 -73 l 1,9,-1
 907 -92 l 1,10,11
 892 -117 892 -117 885.5 -124.5 c 128,-1,12
 879 -132 879 -132 872.5 -137 c 128,-1,13
 866 -142 866 -142 857 -142 c 2,14,-1
 815 -142 l 2,15,16
 794 -142 794 -142 753 -147 c 1,17,-1
 715 -130 l 1,18,19
 687 -133 687 -133 554 -152 c 1,20,21
 537 -146 537 -146 528 -140 c 0,22,23
 485 -114 485 -114 485 -53 c 2,24,-1
 485 -48 l 2,25,26
 485 58 485 58 657 148 c 1,27,28
 663 156 663 156 683 168.5 c 128,-1,29
 703 181 703 181 749 204 c 1,30,31
 757 216 757 216 784 244 c 0,32,33
 784 245 784 245 784 245 c 1,34,-1
 767 245 l 1,35,-1
 787 283 l 1,36,37
 765 334 765 334 730 343 c 0,38,39
 722 345 722 345 715 345 c 0,40,41
 704 345 704 345 694 343 c 0,42,43
 656 328 656 328 644 317 c 1,44,-1
 644 297 l 1,45,-1
 619 297 l 1,46,47
 619 297 619 297 618.5 297 c 128,-1,48
 618 297 618 297 617.5 296.5 c 128,-1,49
 617 296 617 296 616 294 c 0,50,51
 606 281 606 281 602 237 c 2,52,-1
 600 214 l 1,53,-1
 546 214 l 2,54,55
 524 214 524 214 514 240 c 0,56,57
 510 252 510 252 505 276 c 1,58,59
 525 346 525 346 543 376 c 0,60,61
 561 404 561 404 582 409 c 1,62,63
 638 453 638 453 718 453 c 0,64,65
 738 453 738 453 744 451 c 0,66,67
 818 429 818 429 840 403 c 1,68,69
 885 390 885 390 901 305 c 0,70,71
 905 286 905 286 907 261 c 2,72,-1
 907 223 l 2,73,74
 907 190 907 190 863 147.5 c 128,-1,75
 819 105 819 105 716 43 c 1,76,77
 632 16 632 16 632 -17 c 2,78,79
 632 -17 632 -17 632 -18 c 0,80,81
 634 -20 634 -20 640 -22 c 0,82,83
 655 -28 655 -28 684 -28 c 1,84,-1
 724 -22 l 1,85,86
 743 -32 743 -32 752 -34 c 2,87,-1
 797 -28 l 1,88,-1
 799 -28 l 2,89,90
 807 -28 807 -28 818 -32 c 1,0,1
237 -117 m 0,91,92
 201 -117 201 -117 186 -95 c 0,93,94
 181 -87 181 -87 179 -77 c 2,95,-1
 178 -70 l 1,96,-1
 545 775 l 1,97,-1
 578 803 l 1,98,99
 592 806 592 806 595 806 c 0,100,101
 616 806 616 806 633 779 c 2,102,-1
 635 776 l 1,103,-1
 646 742 l 1,104,-1
 284 -103 l 1,105,-1
 261 -115 l 1,106,107
 242 -117 242 -117 237 -117 c 0,91,92
165 270 m 0,108,109
 165 274 165 274 165 278 c 2,110,-1
 165 313 l 1,111,-1
 163 359 l 2,112,113
 159 433 159 433 159 613 c 0,114,115
 156 633 156 633 155 651 c 1,116,-1
 147 646 l 1,117,118
 99 621 99 621 75 616 c 0,119,120
 69 615 69 615 63 615 c 0,121,122
 41 615 41 615 30 631 c 0,123,124
 24 639 24 639 23 646 c 0,125,126
 22 652 22 652 22 662 c 0,127,128
 22 694 22 694 45 717 c 0,129,130
 61 733 61 733 87 743 c 1,131,132
 124 764 124 764 150 781 c 1,133,134
 170 803 170 803 191 813 c 0,135,136
 204 818 204 818 223 821 c 2,137,-1
 225 821 l 2,138,139
 250 821 250 821 264 804 c 0,140,141
 270 797 270 797 273 785 c 2,142,-1
 272 731 l 1,143,-1
 272 670 l 1,144,-1
 282 351 l 1,145,-1
 280 325 l 1,146,-1
 282 325 l 1,147,148
 284 296 284 296 284 290 c 0,149,150
 284 267 284 267 276 250 c 0,151,152
 264 226 264 226 237 220 c 2,153,-1
 234 219 l 1,154,-1
 231 219 l 2,155,156
 185 219 185 219 170 247 c 0,157,158
 165 257 165 257 165 270 c 0,108,109
EndSplineSet
EndChar

